<ttFont>
    <TTGlyph name=".notdef" xMin="42" yMin="-188" xMax="1398" yMax="1684">
      <contour>
        <pt x="718" y="1684" on="1"/>
        <pt x="1398" y="1684" on="1"/>
        <pt x="721" y="-188" on="1"/>
        <pt x="42" y="-188" on="1"/>
      </contour>
      <contour>
        <pt x="192" y="-95" on="1"/>
        <pt x="639" y="-95" on="1"/>
        <pt x="1248" y="1592" on="1"/>
        <pt x="801" y="1592" on="1"/>
      </contour>
    </TTGlyph>
    <TTGlyph name="A" xMin="0" yMin="-47" xMax="2124" yMax="1611">
      <contour>
        <pt x="340" y="589" on="1"/>
        <pt x="340" y="571" on="0"/>
        <pt x="319" y="548" on="0"/>
        <pt x="285" y="532" on="0"/>
        <pt x="238" y="522" on="0"/>
        <pt x="213" y="518" on="1"/>
        <pt x="192" y="514" on="0"/>
        <pt x="134" y="484" on="0"/>
        <pt x="80" y="423" on="0"/>
        <pt x="43" y="324" on="0"/>
        <pt x="43" y="251" on="1"/>
        <pt x="43" y="176" on="0"/>
        <pt x="84" y="77" on="0"/>
        <pt x="152" y="17" on="0"/>
        <pt x="239" y="-8" on="0"/>
        <pt x="285" y="-8" on="1"/>
        <pt x="337" y="-8" on="0"/>
        <pt x="431" y="22" on="0"/>
        <pt x="519" y="82" on="0"/>
        <pt x="605" y="174" on="0"/>
        <pt x="650" y="236" on="1"/>
        <pt x="705" y="313" on="0"/>
        <pt x="810" y="498" on="0"/>
        <pt x="912" y="699" on="0"/>
        <pt x="1009" y="907" on="0"/>
        <pt x="1102" y="1107" on="0"/>
        <pt x="1191" y="1291" on="0"/>
        <pt x="1233" y="1367" on="1"/>
        <pt x="1277" y="1446" on="0"/>
        <pt x="1348" y="1543" on="0"/>
        <pt x="1413" y="1594" on="0"/>
        <pt x="1479" y="1611" on="0"/>
        <pt x="1518" y="1611" on="1"/>
        <pt x="1630" y="1611" on="0"/>
        <pt x="1730" y="1515" on="0"/>
        <pt x="1730" y="1420" on="1"/>
        <pt x="1730" y="1347" on="0"/>
        <pt x="1680" y="1145" on="0"/>
        <pt x="1604" y="914" on="0"/>
        <pt x="1516" y="669" on="0"/>
        <pt x="1440" y="439" on="0"/>
        <pt x="1390" y="240" on="0"/>
        <pt x="1390" y="170" on="1"/>
        <pt x="1390" y="94" on="0"/>
        <pt x="1460" y="10" on="0"/>
        <pt x="1541" y="10" on="1"/>
        <pt x="1607" y="10" on="0"/>
        <pt x="1730" y="72" on="0"/>
        <pt x="1851" y="195" on="0"/>
        <pt x="1976" y="379" on="0"/>
        <pt x="2045" y="501" on="1"/>
        <pt x="2097" y="593" on="1"/>
        <pt x="2124" y="574" on="1"/>
        <pt x="2072" y="482" on="1"/>
        <pt x="1998" y="351" on="0"/>
        <pt x="1866" y="156" on="0"/>
        <pt x="1734" y="26" on="0"/>
        <pt x="1597" y="-39" on="0"/>
        <pt x="1519" y="-39" on="1"/>
        <pt x="1457" y="-39" on="0"/>
        <pt x="1363" y="-1" on="0"/>
        <pt x="1299" y="65" on="0"/>
        <pt x="1266" y="154" on="0"/>
        <pt x="1266" y="205" on="1"/>
        <pt x="1266" y="249" on="0"/>
        <pt x="1289" y="369" on="0"/>
        <pt x="1328" y="510" on="0"/>
        <pt x="1379" y="667" on="0"/>
        <pt x="1407" y="749" on="1"/>
        <pt x="986" y="749" on="1"/>
        <pt x="949" y="672" on="0"/>
        <pt x="872" y="522" on="0"/>
        <pt x="795" y="382" on="0"/>
        <pt x="718" y="257" on="0"/>
        <pt x="681" y="206" on="1"/>
        <pt x="632" y="138" on="0"/>
        <pt x="537" y="43" on="0"/>
        <pt x="439" y="-19" on="0"/>
        <pt x="337" y="-47" on="0"/>
        <pt x="282" y="-47" on="1"/>
        <pt x="149" y="-47" on="0"/>
        <pt x="0" y="108" on="0"/>
        <pt x="0" y="255" on="1"/>
        <pt x="0" y="334" on="0"/>
        <pt x="42" y="473" on="0"/>
        <pt x="116" y="577" on="0"/>
        <pt x="216" y="637" on="0"/>
        <pt x="274" y="637" on="1"/>
        <pt x="303" y="637" on="0"/>
        <pt x="340" y="617" on="0"/>
      </contour>
      <contour>
        <pt x="1278" y="1355" on="1"/>
        <pt x="1251" y="1304" on="0"/>
        <pt x="1188" y="1176" on="0"/>
        <pt x="1120" y="1032" on="0"/>
        <pt x="1047" y="877" on="0"/>
        <pt x="1009" y="798" on="1"/>
        <pt x="1424" y="798" on="1"/>
        <pt x="1457" y="894" on="0"/>
        <pt x="1520" y="1084" on="0"/>
        <pt x="1571" y="1258" on="0"/>
        <pt x="1602" y="1406" on="0"/>
        <pt x="1602" y="1460" on="1"/>
        <pt x="1602" y="1495" on="0"/>
        <pt x="1588" y="1539" on="0"/>
        <pt x="1563" y="1564" on="0"/>
        <pt x="1528" y="1573" on="0"/>
        <pt x="1507" y="1573" on="1"/>
        <pt x="1474" y="1573" on="0"/>
        <pt x="1419" y="1553" on="0"/>
        <pt x="1367" y="1503" on="0"/>
        <pt x="1311" y="1419" on="0"/>
      </contour>
    </TTGlyph>
    <TTGlyph name="AE" xMin="0" yMin="-39" xMax="2548" yMax="1609">
      <contour>
        <pt x="1967" y="894" on="1"/>
        <pt x="1844" y="894" on="0"/>
        <pt x="1653" y="806" on="0"/>
        <pt x="1522" y="655" on="0"/>
        <pt x="1454" y="453" on="0"/>
        <pt x="1454" y="339" on="1"/>
        <pt x="1454" y="271" on="0"/>
        <pt x="1489" y="152" on="0"/>
        <pt x="1559" y="64" on="0"/>
        <pt x="1663" y="13" on="0"/>
        <pt x="1733" y="13" on="1"/>
        <pt x="1835" y="13" on="0"/>
        <pt x="2041" y="77" on="0"/>
        <pt x="2233" y="202" on="0"/>
        <pt x="2403" y="384" on="0"/>
        <pt x="2469" y="501" on="1"/>
        <pt x="2521" y="593" on="1"/>
        <pt x="2548" y="574" on="1"/>
        <pt x="2496" y="482" on="1"/>
        <pt x="2422" y="352" on="0"/>
        <pt x="2243" y="157" on="0"/>
        <pt x="2041" y="28" on="0"/>
        <pt x="1820" y="-37" on="0"/>
        <pt x="1705" y="-37" on="1"/>
        <pt x="1589" y="-37" on="0"/>
        <pt x="1429" y="41" on="0"/>
        <pt x="1330" y="174" on="0"/>
        <pt x="1285" y="352" on="0"/>
        <pt x="1285" y="451" on="1"/>
        <pt x="1285" y="511" on="0"/>
        <pt x="1297" y="618" on="0"/>
        <pt x="1305" y="660" on="1"/>
        <pt x="1314" y="708" on="0"/>
        <pt x="1325" y="749" on="1"/>
        <pt x="886" y="749" on="1"/>
        <pt x="846" y="657" on="0"/>
        <pt x="772" y="469" on="0"/>
        <pt x="696" y="294" on="0"/>
        <pt x="615" y="140" on="0"/>
        <pt x="520" y="27" on="0"/>
        <pt x="408" y="-39" on="0"/>
        <pt x="340" y="-39" on="1"/>
        <pt x="245" y="-39" on="0"/>
        <pt x="115" y="21" on="0"/>
        <pt x="35" y="116" on="0"/>
        <pt x="0" y="232" on="0"/>
        <pt x="0" y="289" on="1"/>
        <pt x="0" y="395" on="0"/>
        <pt x="62" y="553" on="0"/>
        <pt x="175" y="666" on="0"/>
        <pt x="331" y="740" on="0"/>
        <pt x="520" y="782" on="0"/>
        <pt x="735" y="799" on="0"/>
        <pt x="850" y="799" on="1"/>
        <pt x="924" y="970" on="0"/>
        <pt x="1062" y="1266" on="0"/>
        <pt x="1209" y="1484" on="0"/>
        <pt x="1373" y="1609" on="0"/>
        <pt x="1474" y="1609" on="1"/>
        <pt x="1535" y="1609" on="0"/>
        <pt x="1615" y="1581" on="0"/>
        <pt x="1662" y="1533" on="0"/>
        <pt x="1681" y="1467" on="0"/>
        <pt x="1681" y="1428" on="1"/>
        <pt x="1681" y="1359" on="0"/>
        <pt x="1648" y="1216" on="0"/>
        <pt x="1592" y="1056" on="0"/>
        <pt x="1520" y="873" on="0"/>
        <pt x="1481" y="764" on="1"/>
        <pt x="1561" y="833" on="0"/>
        <pt x="1780" y="911" on="0"/>
        <pt x="1917" y="911" on="1"/>
        <pt x="1842" y="953" on="0"/>
        <pt x="1765" y="1091" on="0"/>
        <pt x="1765" y="1182" on="1"/>
        <pt x="1765" y="1270" on="0"/>
        <pt x="1839" y="1426" on="0"/>
        <pt x="1966" y="1542" on="0"/>
        <pt x="2136" y="1609" on="0"/>
        <pt x="2232" y="1609" on="1"/>
        <pt x="2356" y="1609" on="0"/>
        <pt x="2486" y="1495" on="0"/>
        <pt x="2486" y="1387" on="1"/>
        <pt x="2486" y="1291" on="0"/>
        <pt x="2386" y="1126" on="0"/>
        <pt x="2292" y="1068" on="1"/>
        <pt x="2278" y="1098" on="1"/>
        <pt x="2317" y="1120" on="0"/>
        <pt x="2379" y="1182" on="0"/>
        <pt x="2422" y="1257" on="0"/>
        <pt x="2446" y="1342" on="0"/>
        <pt x="2446" y="1387" on="1"/>
        <pt x="2446" y="1476" on="0"/>
        <pt x="2351" y="1570" on="0"/>
        <pt x="2262" y="1570" on="1"/>
        <pt x="2184" y="1570" on="0"/>
        <pt x="2045" y="1499" on="0"/>
        <pt x="1941" y="1378" on="0"/>
        <pt x="1880" y="1217" on="0"/>
        <pt x="1880" y="1127" on="1"/>
        <pt x="1880" y="1049" on="0"/>
        <pt x="1926" y="936" on="0"/>
        <pt x="1968" y="912" on="1"/>
        <pt x="1972" y="914" on="0"/>
        <pt x="1995" y="918" on="0"/>
        <pt x="2005" y="918" on="1"/>
        <pt x="2032" y="918" on="0"/>
        <pt x="2032" y="904" on="1"/>
        <pt x="2032" y="889" on="0"/>
        <pt x="2004" y="889" on="1"/>
        <pt x="1982" y="889" on="0"/>
      </contour>
      <contour>
        <pt x="346" y="10" on="1"/>
        <pt x="401" y="10" on="0"/>
        <pt x="495" y="72" on="0"/>
        <pt x="577" y="179" on="0"/>
        <pt x="651" y="323" on="0"/>
        <pt x="721" y="488" on="0"/>
        <pt x="791" y="663" on="0"/>
        <pt x="828" y="749" on="1"/>
        <pt x="723" y="749" on="0"/>
        <pt x="526" y="735" on="0"/>
        <pt x="355" y="697" on="0"/>
        <pt x="213" y="632" on="0"/>
        <pt x="112" y="530" on="0"/>
        <pt x="56" y="386" on="0"/>
        <pt x="56" y="289" on="1"/>
        <pt x="56" y="236" on="0"/>
        <pt x="86" y="136" on="0"/>
        <pt x="155" y="58" on="0"/>
        <pt x="266" y="10" on="0"/>
      </contour>
      <contour>
        <pt x="1470" y="1571" on="1"/>
        <pt x="1409" y="1571" on="0"/>
        <pt x="1302" y="1512" on="0"/>
        <pt x="1204" y="1406" on="0"/>
        <pt x="1115" y="1261" on="0"/>
        <pt x="1030" y="1089" on="0"/>
        <pt x="948" y="898" on="0"/>
        <pt x="907" y="799" on="1"/>
        <pt x="935" y="799" on="0"/>
        <pt x="998" y="798" on="0"/>
        <pt x="1094" y="798" on="0"/>
        <pt x="1235" y="798" on="0"/>
        <pt x="1342" y="798" on="1"/>
        <pt x="1381" y="895" on="0"/>
        <pt x="1453" y="1079" on="0"/>
        <pt x="1507" y="1247" on="0"/>
        <pt x="1540" y="1400" on="0"/>
        <pt x="1540" y="1468" on="1"/>
        <pt x="1540" y="1487" on="0"/>
        <pt x="1534" y="1524" on="0"/>
        <pt x="1518" y="1553" on="0"/>
        <pt x="1491" y="1571" on="0"/>
      </contour>
    </TTGlyph>
    <TTGlyph name="AEacute" xMin="0" yMin="-39" xMax="2548" yMax="2004">
      <contour>
        <pt x="1967" y="894" on="1"/>
        <pt x="1844" y="894" on="0"/>
        <pt x="1653" y="806" on="0"/>
        <pt x="1522" y="655" on="0"/>
        <pt x="1454" y="453" on="0"/>
        <pt x="1454" y="339" on="1"/>
        <pt x="1454" y="271" on="0"/>
        <pt x="1489" y="152" on="0"/>
        <pt x="1559" y="64" on="0"/>
        <pt x="1663" y="13" on="0"/>
        <pt x="1733" y="13" on="1"/>
        <pt x="1835" y="13" on="0"/>
        <pt x="2041" y="77" on="0"/>
        <pt x="2233" y="202" on="0"/>
        <pt x="2403" y="384" on="0"/>
        <pt x="2469" y="501" on="1"/>
        <pt x="2521" y="593" on="1"/>
        <pt x="2548" y="574" on="1"/>
        <pt x="2496" y="482" on="1"/>
        <pt x="2422" y="352" on="0"/>
        <pt x="2243" y="157" on="0"/>
        <pt x="2041" y="28" on="0"/>
        <pt x="1820" y="-37" on="0"/>
        <pt x="1705" y="-37" on="1"/>
        <pt x="1589" y="-37" on="0"/>
        <pt x="1429" y="41" on="0"/>
        <pt x="1330" y="174" on="0"/>
        <pt x="1285" y="352" on="0"/>
        <pt x="1285" y="451" on="1"/>
        <pt x="1285" y="511" on="0"/>
        <pt x="1297" y="618" on="0"/>
        <pt x="1305" y="660" on="1"/>
        <pt x="1314" y="708" on="0"/>
        <pt x="1325" y="749" on="1"/>
        <pt x="886" y="749" on="1"/>
        <pt x="846" y="657" on="0"/>
        <pt x="772" y="469" on="0"/>
        <pt x="696" y="294" on="0"/>
        <pt x="615" y="140" on="0"/>
        <pt x="520" y="27" on="0"/>
        <pt x="408" y="-39" on="0"/>
        <pt x="340" y="-39" on="1"/>
        <pt x="245" y="-39" on="0"/>
        <pt x="115" y="21" on="0"/>
        <pt x="35" y="116" on="0"/>
        <pt x="0" y="232" on="0"/>
        <pt x="0" y="289" on="1"/>
        <pt x="0" y="395" on="0"/>
        <pt x="62" y="553" on="0"/>
        <pt x="175" y="666" on="0"/>
        <pt x="331" y="740" on="0"/>
        <pt x="520" y="782" on="0"/>
        <pt x="735" y="799" on="0"/>
        <pt x="850" y="799" on="1"/>
        <pt x="924" y="970" on="0"/>
        <pt x="1062" y="1266" on="0"/>
        <pt x="1209" y="1484" on="0"/>
        <pt x="1373" y="1609" on="0"/>
        <pt x="1474" y="1609" on="1"/>
        <pt x="1535" y="1609" on="0"/>
        <pt x="1615" y="1581" on="0"/>
        <pt x="1662" y="1533" on="0"/>
        <pt x="1681" y="1467" on="0"/>
        <pt x="1681" y="1428" on="1"/>
        <pt x="1681" y="1359" on="0"/>
        <pt x="1648" y="1216" on="0"/>
        <pt x="1592" y="1056" on="0"/>
        <pt x="1520" y="873" on="0"/>
        <pt x="1481" y="764" on="1"/>
        <pt x="1561" y="833" on="0"/>
        <pt x="1780" y="911" on="0"/>
        <pt x="1917" y="911" on="1"/>
        <pt x="1842" y="953" on="0"/>
        <pt x="1765" y="1091" on="0"/>
        <pt x="1765" y="1182" on="1"/>
        <pt x="1765" y="1270" on="0"/>
        <pt x="1839" y="1426" on="0"/>
        <pt x="1966" y="1542" on="0"/>
        <pt x="2136" y="1609" on="0"/>
        <pt x="2232" y="1609" on="1"/>
        <pt x="2356" y="1609" on="0"/>
        <pt x="2486" y="1495" on="0"/>
        <pt x="2486" y="1387" on="1"/>
        <pt x="2486" y="1291" on="0"/>
        <pt x="2386" y="1126" on="0"/>
        <pt x="2292" y="1068" on="1"/>
        <pt x="2278" y="1098" on="1"/>
        <pt x="2317" y="1120" on="0"/>
        <pt x="2379" y="1182" on="0"/>
        <pt x="2422" y="1257" on="0"/>
        <pt x="2446" y="1342" on="0"/>
        <pt x="2446" y="1387" on="1"/>
        <pt x="2446" y="1476" on="0"/>
        <pt x="2351" y="1570" on="0"/>
        <pt x="2262" y="1570" on="1"/>
        <pt x="2184" y="1570" on="0"/>
        <pt x="2045" y="1499" on="0"/>
        <pt x="1941" y="1378" on="0"/>
        <pt x="1880" y="1217" on="0"/>
        <pt x="1880" y="1127" on="1"/>
        <pt x="1880" y="1049" on="0"/>
        <pt x="1926" y="936" on="0"/>
        <pt x="1968" y="912" on="1"/>
        <pt x="1972" y="914" on="0"/>
        <pt x="1995" y="918" on="0"/>
        <pt x="2005" y="918" on="1"/>
        <pt x="2032" y="918" on="0"/>
        <pt x="2032" y="904" on="1"/>
        <pt x="2032" y="889" on="0"/>
        <pt x="2004" y="889" on="1"/>
        <pt x="1982" y="889" on="0"/>
      </contour>
      <contour>
        <pt x="346" y="10" on="1"/>
        <pt x="401" y="10" on="0"/>
        <pt x="495" y="72" on="0"/>
        <pt x="577" y="179" on="0"/>
        <pt x="651" y="323" on="0"/>
        <pt x="721" y="488" on="0"/>
        <pt x="791" y="663" on="0"/>
        <pt x="828" y="749" on="1"/>
        <pt x="723" y="749" on="0"/>
        <pt x="526" y="735" on="0"/>
        <pt x="355" y="697" on="0"/>
        <pt x="213" y="632" on="0"/>
        <pt x="112" y="530" on="0"/>
        <pt x="56" y="386" on="0"/>
        <pt x="56" y="289" on="1"/>
        <pt x="56" y="236" on="0"/>
        <pt x="86" y="136" on="0"/>
        <pt x="155" y="58" on="0"/>
        <pt x="266" y="10" on="0"/>
      </contour>
      <contour>
        <pt x="1470" y="1571" on="1"/>
        <pt x="1409" y="1571" on="0"/>
        <pt x="1302" y="1512" on="0"/>
        <pt x="1204" y="1406" on="0"/>
        <pt x="1115" y="1261" on="0"/>
        <pt x="1030" y="1089" on="0"/>
        <pt x="948" y="898" on="0"/>
        <pt x="907" y="799" on="1"/>
        <pt x="935" y="799" on="0"/>
        <pt x="998" y="798" on="0"/>
        <pt x="1094" y="798" on="0"/>
        <pt x="1235" y="798" on="0"/>
        <pt x="1342" y="798" on="1"/>
        <pt x="1381" y="895" on="0"/>
        <pt x="1453" y="1079" on="0"/>
        <pt x="1507" y="1247" on="0"/>
        <pt x="1540" y="1400" on="0"/>
        <pt x="1540" y="1468" on="1"/>
        <pt x="1540" y="1487" on="0"/>
        <pt x="1534" y="1524" on="0"/>
        <pt x="1518" y="1553" on="0"/>
        <pt x="1491" y="1571" on="0"/>
      </contour>
      <contour>
        <pt x="1787" y="1684" on="1"/>
        <pt x="1819" y="1699" on="0"/>
        <pt x="1897" y="1770" on="0"/>
        <pt x="1932" y="1818" on="1"/>
        <pt x="1962" y="1859" on="0"/>
        <pt x="1998" y="1927" on="0"/>
        <pt x="2025" y="1977" on="0"/>
        <pt x="2052" y="2004" on="0"/>
        <pt x="2073" y="2004" on="1"/>
        <pt x="2097" y="2004" on="0"/>
        <pt x="2120" y="1970" on="0"/>
        <pt x="2120" y="1947" on="1"/>
        <pt x="2120" y="1918" on="0"/>
        <pt x="2087" y="1857" on="0"/>
        <pt x="2035" y="1798" on="0"/>
        <pt x="1968" y="1744" on="0"/>
        <pt x="1901" y="1699" on="0"/>
        <pt x="1838" y="1667" on="0"/>
        <pt x="1816" y="1659" on="1"/>
      </contour>
    </TTGlyph>
    <TTGlyph name="Aacute" xMin="0" yMin="-47" xMax="2124" yMax="2031">
      <contour>
        <pt x="340" y="589" on="1"/>
        <pt x="340" y="568" on="0"/>
        <pt x="319" y="547" on="0"/>
        <pt x="284" y="535" on="0"/>
        <pt x="238" y="526" on="0"/>
        <pt x="213" y="518" on="1"/>
        <pt x="192" y="512" on="0"/>
        <pt x="134" y="481" on="0"/>
        <pt x="80" y="421" on="0"/>
        <pt x="43" y="324" on="0"/>
        <pt x="43" y="251" on="1"/>
        <pt x="43" y="176" on="0"/>
        <pt x="84" y="77" on="0"/>
        <pt x="152" y="17" on="0"/>
        <pt x="239" y="-8" on="0"/>
        <pt x="285" y="-8" on="1"/>
        <pt x="337" y="-8" on="0"/>
        <pt x="431" y="22" on="0"/>
        <pt x="519" y="82" on="0"/>
        <pt x="605" y="174" on="0"/>
        <pt x="650" y="236" on="1"/>
        <pt x="705" y="313" on="0"/>
        <pt x="810" y="498" on="0"/>
        <pt x="912" y="699" on="0"/>
        <pt x="1009" y="907" on="0"/>
        <pt x="1102" y="1107" on="0"/>
        <pt x="1191" y="1291" on="0"/>
        <pt x="1233" y="1367" on="1"/>
        <pt x="1277" y="1446" on="0"/>
        <pt x="1348" y="1543" on="0"/>
        <pt x="1413" y="1594" on="0"/>
        <pt x="1479" y="1611" on="0"/>
        <pt x="1518" y="1611" on="1"/>
        <pt x="1630" y="1611" on="0"/>
        <pt x="1730" y="1515" on="0"/>
        <pt x="1730" y="1420" on="1"/>
        <pt x="1730" y="1347" on="0"/>
        <pt x="1680" y="1145" on="0"/>
        <pt x="1604" y="914" on="0"/>
        <pt x="1516" y="669" on="0"/>
        <pt x="1440" y="439" on="0"/>
        <pt x="1390" y="240" on="0"/>
        <pt x="1390" y="170" on="1"/>
        <pt x="1390" y="94" on="0"/>
        <pt x="1460" y="10" on="0"/>
        <pt x="1541" y="10" on="1"/>
        <pt x="1607" y="10" on="0"/>
        <pt x="1730" y="72" on="0"/>
        <pt x="1851" y="195" on="0"/>
        <pt x="1976" y="379" on="0"/>
        <pt x="2045" y="501" on="1"/>
        <pt x="2097" y="593" on="1"/>
        <pt x="2124" y="574" on="1"/>
        <pt x="2072" y="482" on="1"/>
        <pt x="1998" y="351" on="0"/>
        <pt x="1866" y="156" on="0"/>
        <pt x="1734" y="26" on="0"/>
        <pt x="1597" y="-39" on="0"/>
        <pt x="1519" y="-39" on="1"/>
        <pt x="1457" y="-39" on="0"/>
        <pt x="1363" y="-1" on="0"/>
        <pt x="1299" y="65" on="0"/>
        <pt x="1266" y="154" on="0"/>
        <pt x="1266" y="205" on="1"/>
        <pt x="1266" y="249" on="0"/>
        <pt x="1289" y="369" on="0"/>
        <pt x="1328" y="510" on="0"/>
        <pt x="1379" y="667" on="0"/>
        <pt x="1407" y="749" on="1"/>
        <pt x="986" y="749" on="1"/>
        <pt x="949" y="672" on="0"/>
        <pt x="872" y="522" on="0"/>
        <pt x="795" y="382" on="0"/>
        <pt x="718" y="257" on="0"/>
        <pt x="681" y="206" on="1"/>
        <pt x="632" y="138" on="0"/>
        <pt x="537" y="43" on="0"/>
        <pt x="439" y="-19" on="0"/>
        <pt x="337" y="-47" on="0"/>
        <pt x="282" y="-47" on="1"/>
        <pt x="148" y="-47" on="0"/>
        <pt x="0" y="108" on="0"/>
        <pt x="0" y="255" on="1"/>
        <pt x="0" y="334" on="0"/>
        <pt x="42" y="473" on="0"/>
        <pt x="116" y="577" on="0"/>
        <pt x="216" y="637" on="0"/>
        <pt x="274" y="637" on="1"/>
        <pt x="303" y="637" on="0"/>
        <pt x="340" y="617" on="0"/>
      </contour>
      <contour>
        <pt x="1278" y="1355" on="1"/>
        <pt x="1251" y="1304" on="0"/>
        <pt x="1188" y="1176" on="0"/>
        <pt x="1120" y="1032" on="0"/>
        <pt x="1047" y="877" on="0"/>
        <pt x="1009" y="798" on="1"/>
        <pt x="1424" y="798" on="1"/>
        <pt x="1457" y="894" on="0"/>
        <pt x="1520" y="1084" on="0"/>
        <pt x="1571" y="1257" on="0"/>
        <pt x="1602" y="1406" on="0"/>
        <pt x="1602" y="1460" on="1"/>
        <pt x="1602" y="1495" on="0"/>
        <pt x="1588" y="1539" on="0"/>
        <pt x="1563" y="1564" on="0"/>
        <pt x="1528" y="1573" on="0"/>
        <pt x="1507" y="1573" on="1"/>
        <pt x="1474" y="1573" on="0"/>
        <pt x="1419" y="1553" on="0"/>
        <pt x="1367" y="1503" on="0"/>
        <pt x="1311" y="1419" on="0"/>
      </contour>
      <contour>
        <pt x="1530" y="1712" on="1"/>
        <pt x="1561" y="1726" on="0"/>
        <pt x="1640" y="1798" on="0"/>
        <pt x="1675" y="1846" on="1"/>
        <pt x="1705" y="1886" on="0"/>
        <pt x="1741" y="1954" on="0"/>
        <pt x="1768" y="2004" on="0"/>
        <pt x="1795" y="2031" on="0"/>
        <pt x="1816" y="2031" on="1"/>
        <pt x="1840" y="2031" on="0"/>
        <pt x="1863" y="1998" on="0"/>
        <pt x="1863" y="1975" on="1"/>
        <pt x="1863" y="1946" on="0"/>
        <pt x="1830" y="1884" on="0"/>
        <pt x="1778" y="1825" on="0"/>
        <pt x="1711" y="1771" on="0"/>
        <pt x="1643" y="1727" on="0"/>
        <pt x="1580" y="1694" on="0"/>
        <pt x="1558" y="1687" on="1"/>
      </contour>
    </TTGlyph>
    <TTGlyph name="Abreve" xMin="0" yMin="-47" xMax="2124" yMax="1946">
      <contour>
        <pt x="340" y="589" on="1"/>
        <pt x="340" y="568" on="0"/>
        <pt x="319" y="547" on="0"/>
        <pt x="284" y="535" on="0"/>
        <pt x="238" y="526" on="0"/>
        <pt x="213" y="518" on="1"/>
        <pt x="192" y="512" on="0"/>
        <pt x="134" y="481" on="0"/>
        <pt x="80" y="421" on="0"/>
        <pt x="43" y="324" on="0"/>
        <pt x="43" y="251" on="1"/>
        <pt x="43" y="176" on="0"/>
        <pt x="84" y="77" on="0"/>
        <pt x="152" y="17" on="0"/>
        <pt x="239" y="-8" on="0"/>
        <pt x="285" y="-8" on="1"/>
        <pt x="337" y="-8" on="0"/>
        <pt x="431" y="22" on="0"/>
        <pt x="519" y="82" on="0"/>
        <pt x="605" y="174" on="0"/>
        <pt x="650" y="236" on="1"/>
        <pt x="705" y="313" on="0"/>
        <pt x="810" y="498" on="0"/>
        <pt x="912" y="699" on="0"/>
        <pt x="1009" y="907" on="0"/>
        <pt x="1102" y="1107" on="0"/>
        <pt x="1191" y="1291" on="0"/>
        <pt x="1233" y="1367" on="1"/>
        <pt x="1277" y="1446" on="0"/>
        <pt x="1348" y="1543" on="0"/>
        <pt x="1413" y="1594" on="0"/>
        <pt x="1479" y="1611" on="0"/>
        <pt x="1518" y="1611" on="1"/>
        <pt x="1630" y="1611" on="0"/>
        <pt x="1730" y="1515" on="0"/>
        <pt x="1730" y="1420" on="1"/>
        <pt x="1730" y="1347" on="0"/>
        <pt x="1680" y="1145" on="0"/>
        <pt x="1604" y="914" on="0"/>
        <pt x="1516" y="669" on="0"/>
        <pt x="1440" y="439" on="0"/>
        <pt x="1390" y="240" on="0"/>
        <pt x="1390" y="170" on="1"/>
        <pt x="1390" y="94" on="0"/>
        <pt x="1460" y="10" on="0"/>
        <pt x="1541" y="10" on="1"/>
        <pt x="1607" y="10" on="0"/>
        <pt x="1730" y="72" on="0"/>
        <pt x="1851" y="195" on="0"/>
        <pt x="1976" y="379" on="0"/>
        <pt x="2045" y="501" on="1"/>
        <pt x="2097" y="593" on="1"/>
        <pt x="2124" y="574" on="1"/>
        <pt x="2072" y="482" on="1"/>
        <pt x="1998" y="351" on="0"/>
        <pt x="1866" y="156" on="0"/>
        <pt x="1734" y="26" on="0"/>
        <pt x="1597" y="-39" on="0"/>
        <pt x="1519" y="-39" on="1"/>
        <pt x="1457" y="-39" on="0"/>
        <pt x="1363" y="-1" on="0"/>
        <pt x="1299" y="65" on="0"/>
        <pt x="1266" y="154" on="0"/>
        <pt x="1266" y="205" on="1"/>
        <pt x="1266" y="249" on="0"/>
        <pt x="1289" y="369" on="0"/>
        <pt x="1328" y="510" on="0"/>
        <pt x="1379" y="667" on="0"/>
        <pt x="1407" y="749" on="1"/>
        <pt x="986" y="749" on="1"/>
        <pt x="949" y="672" on="0"/>
        <pt x="872" y="522" on="0"/>
        <pt x="795" y="382" on="0"/>
        <pt x="718" y="257" on="0"/>
        <pt x="681" y="206" on="1"/>
        <pt x="632" y="138" on="0"/>
        <pt x="537" y="43" on="0"/>
        <pt x="439" y="-19" on="0"/>
        <pt x="337" y="-47" on="0"/>
        <pt x="282" y="-47" on="1"/>
        <pt x="148" y="-47" on="0"/>
        <pt x="0" y="108" on="0"/>
        <pt x="0" y="255" on="1"/>
        <pt x="0" y="334" on="0"/>
        <pt x="42" y="473" on="0"/>
        <pt x="116" y="577" on="0"/>
        <pt x="216" y="637" on="0"/>
        <pt x="274" y="637" on="1"/>
        <pt x="303" y="637" on="0"/>
        <pt x="340" y="617" on="0"/>
      </contour>
      <contour>
        <pt x="1278" y="1355" on="1"/>
        <pt x="1251" y="1304" on="0"/>
        <pt x="1188" y="1176" on="0"/>
        <pt x="1120" y="1032" on="0"/>
        <pt x="1047" y="877" on="0"/>
        <pt x="1009" y="798" on="1"/>
        <pt x="1424" y="798" on="1"/>
        <pt x="1457" y="894" on="0"/>
        <pt x="1520" y="1084" on="0"/>
        <pt x="1571" y="1257" on="0"/>
        <pt x="1602" y="1406" on="0"/>
        <pt x="1602" y="1460" on="1"/>
        <pt x="1602" y="1495" on="0"/>
        <pt x="1588" y="1539" on="0"/>
        <pt x="1563" y="1564" on="0"/>
        <pt x="1528" y="1573" on="0"/>
        <pt x="1507" y="1573" on="1"/>
        <pt x="1474" y="1573" on="0"/>
        <pt x="1419" y="1553" on="0"/>
        <pt x="1367" y="1503" on="0"/>
        <pt x="1311" y="1419" on="0"/>
      </contour>
      <contour>
        <pt x="1835" y="1946" on="1"/>
        <pt x="1833" y="1915" on="0"/>
        <pt x="1803" y="1848" on="0"/>
        <pt x="1748" y="1793" on="0"/>
        <pt x="1668" y="1757" on="0"/>
        <pt x="1617" y="1757" on="1"/>
        <pt x="1566" y="1757" on="0"/>
        <pt x="1487" y="1792" on="0"/>
        <pt x="1434" y="1848" on="0"/>
        <pt x="1406" y="1914" on="0"/>
        <pt x="1405" y="1946" on="1"/>
        <pt x="1447" y="1946" on="1"/>
        <pt x="1448" y="1923" on="0"/>
        <pt x="1471" y="1871" on="0"/>
        <pt x="1514" y="1827" on="0"/>
        <pt x="1576" y="1798" on="0"/>
        <pt x="1617" y="1798" on="1"/>
        <pt x="1658" y="1798" on="0"/>
        <pt x="1722" y="1827" on="0"/>
        <pt x="1765" y="1872" on="0"/>
        <pt x="1789" y="1923" on="0"/>
        <pt x="1791" y="1946" on="1"/>
      </contour>
    </TTGlyph>
    <TTGlyph name="Acircumflex" xMin="0" yMin="-47" xMax="2124" yMax="2031">
      <contour>
        <pt x="340" y="589" on="1"/>
        <pt x="340" y="568" on="0"/>
        <pt x="319" y="547" on="0"/>
        <pt x="284" y="535" on="0"/>
        <pt x="238" y="526" on="0"/>
        <pt x="213" y="518" on="1"/>
        <pt x="192" y="512" on="0"/>
        <pt x="134" y="481" on="0"/>
        <pt x="80" y="421" on="0"/>
        <pt x="43" y="324" on="0"/>
        <pt x="43" y="251" on="1"/>
        <pt x="43" y="176" on="0"/>
        <pt x="84" y="77" on="0"/>
        <pt x="152" y="17" on="0"/>
        <pt x="239" y="-8" on="0"/>
        <pt x="285" y="-8" on="1"/>
        <pt x="337" y="-8" on="0"/>
        <pt x="431" y="22" on="0"/>
        <pt x="519" y="82" on="0"/>
        <pt x="605" y="174" on="0"/>
        <pt x="650" y="236" on="1"/>
        <pt x="705" y="313" on="0"/>
        <pt x="810" y="498" on="0"/>
        <pt x="912" y="699" on="0"/>
        <pt x="1009" y="907" on="0"/>
        <pt x="1102" y="1107" on="0"/>
        <pt x="1191" y="1291" on="0"/>
        <pt x="1233" y="1367" on="1"/>
        <pt x="1277" y="1446" on="0"/>
        <pt x="1348" y="1543" on="0"/>
        <pt x="1413" y="1594" on="0"/>
        <pt x="1479" y="1611" on="0"/>
        <pt x="1518" y="1611" on="1"/>
        <pt x="1630" y="1611" on="0"/>
        <pt x="1730" y="1515" on="0"/>
        <pt x="1730" y="1420" on="1"/>
        <pt x="1730" y="1347" on="0"/>
        <pt x="1680" y="1145" on="0"/>
        <pt x="1604" y="914" on="0"/>
        <pt x="1516" y="669" on="0"/>
        <pt x="1440" y="439" on="0"/>
        <pt x="1390" y="240" on="0"/>
        <pt x="1390" y="170" on="1"/>
        <pt x="1390" y="94" on="0"/>
        <pt x="1460" y="10" on="0"/>
        <pt x="1541" y="10" on="1"/>
        <pt x="1607" y="10" on="0"/>
        <pt x="1730" y="72" on="0"/>
        <pt x="1851" y="195" on="0"/>
        <pt x="1976" y="379" on="0"/>
        <pt x="2045" y="501" on="1"/>
        <pt x="2097" y="593" on="1"/>
        <pt x="2124" y="574" on="1"/>
        <pt x="2072" y="482" on="1"/>
        <pt x="1998" y="351" on="0"/>
        <pt x="1866" y="156" on="0"/>
        <pt x="1734" y="26" on="0"/>
        <pt x="1597" y="-39" on="0"/>
        <pt x="1519" y="-39" on="1"/>
        <pt x="1457" y="-39" on="0"/>
        <pt x="1363" y="-1" on="0"/>
        <pt x="1299" y="65" on="0"/>
        <pt x="1266" y="154" on="0"/>
        <pt x="1266" y="205" on="1"/>
        <pt x="1266" y="249" on="0"/>
        <pt x="1289" y="369" on="0"/>
        <pt x="1328" y="510" on="0"/>
        <pt x="1379" y="667" on="0"/>
        <pt x="1407" y="749" on="1"/>
        <pt x="986" y="749" on="1"/>
        <pt x="949" y="672" on="0"/>
        <pt x="872" y="522" on="0"/>
        <pt x="795" y="382" on="0"/>
        <pt x="718" y="257" on="0"/>
        <pt x="681" y="206" on="1"/>
        <pt x="632" y="138" on="0"/>
        <pt x="537" y="43" on="0"/>
        <pt x="439" y="-19" on="0"/>
        <pt x="337" y="-47" on="0"/>
        <pt x="282" y="-47" on="1"/>
        <pt x="148" y="-47" on="0"/>
        <pt x="0" y="108" on="0"/>
        <pt x="0" y="255" on="1"/>
        <pt x="0" y="334" on="0"/>
        <pt x="42" y="473" on="0"/>
        <pt x="116" y="577" on="0"/>
        <pt x="216" y="637" on="0"/>
        <pt x="274" y="637" on="1"/>
        <pt x="303" y="637" on="0"/>
        <pt x="340" y="617" on="0"/>
      </contour>
      <contour>
        <pt x="1278" y="1355" on="1"/>
        <pt x="1251" y="1304" on="0"/>
        <pt x="1188" y="1176" on="0"/>
        <pt x="1120" y="1032" on="0"/>
        <pt x="1047" y="877" on="0"/>
        <pt x="1009" y="798" on="1"/>
        <pt x="1424" y="798" on="1"/>
        <pt x="1457" y="894" on="0"/>
        <pt x="1520" y="1084" on="0"/>
        <pt x="1571" y="1257" on="0"/>
        <pt x="1602" y="1406" on="0"/>
        <pt x="1602" y="1460" on="1"/>
        <pt x="1602" y="1495" on="0"/>
        <pt x="1588" y="1539" on="0"/>
        <pt x="1563" y="1564" on="0"/>
        <pt x="1528" y="1573" on="0"/>
        <pt x="1507" y="1573" on="1"/>
        <pt x="1474" y="1573" on="0"/>
        <pt x="1419" y="1553" on="0"/>
        <pt x="1367" y="1503" on="0"/>
        <pt x="1311" y="1419" on="0"/>
      </contour>
      <contour>
        <pt x="1619" y="2004" on="1"/>
        <pt x="1630" y="2021" on="0"/>
        <pt x="1655" y="2031" on="0"/>
        <pt x="1667" y="2031" on="1"/>
        <pt x="1686" y="2031" on="0"/>
        <pt x="1705" y="2016" on="0"/>
        <pt x="1709" y="2002" on="1"/>
        <pt x="1719" y="1967" on="0"/>
        <pt x="1744" y="1895" on="0"/>
        <pt x="1789" y="1821" on="0"/>
        <pt x="1862" y="1748" on="0"/>
        <pt x="1919" y="1712" on="1"/>
        <pt x="1918" y="1711" on="0"/>
        <pt x="1911" y="1703" on="0"/>
        <pt x="1906" y="1698" on="1"/>
        <pt x="1901" y="1692" on="0"/>
        <pt x="1895" y="1685" on="1"/>
        <pt x="1847" y="1708" on="0"/>
        <pt x="1803" y="1741" on="1"/>
        <pt x="1765" y="1769" on="0"/>
        <pt x="1685" y="1853" on="0"/>
        <pt x="1659" y="1910" on="1"/>
        <pt x="1659" y="1910" on="0"/>
        <pt x="1635" y="1883" on="0"/>
        <pt x="1591" y="1841" on="0"/>
        <pt x="1531" y="1790" on="0"/>
        <pt x="1460" y="1740" on="0"/>
        <pt x="1382" y="1698" on="0"/>
        <pt x="1343" y="1687" on="1"/>
        <pt x="1342" y="1687" on="0"/>
        <pt x="1333" y="1694" on="0"/>
        <pt x="1328" y="1699" on="1"/>
        <pt x="1322" y="1704" on="0"/>
        <pt x="1314" y="1712" on="1"/>
        <pt x="1381" y="1746" on="0"/>
        <pt x="1472" y="1811" on="0"/>
        <pt x="1538" y="1880" on="0"/>
        <pt x="1590" y="1957" on="0"/>
      </contour>
    </TTGlyph>
    <TTGlyph name="Adieresis" xMin="0" yMin="-47" xMax="2124" yMax="1879">
      <contour>
        <pt x="340" y="589" on="1"/>
        <pt x="340" y="568" on="0"/>
        <pt x="319" y="547" on="0"/>
        <pt x="284" y="535" on="0"/>
        <pt x="238" y="526" on="0"/>
        <pt x="213" y="518" on="1"/>
        <pt x="192" y="512" on="0"/>
        <pt x="134" y="481" on="0"/>
        <pt x="80" y="421" on="0"/>
        <pt x="43" y="324" on="0"/>
        <pt x="43" y="251" on="1"/>
        <pt x="43" y="176" on="0"/>
        <pt x="84" y="77" on="0"/>
        <pt x="152" y="17" on="0"/>
        <pt x="239" y="-8" on="0"/>
        <pt x="285" y="-8" on="1"/>
        <pt x="337" y="-8" on="0"/>
        <pt x="431" y="22" on="0"/>
        <pt x="519" y="82" on="0"/>
        <pt x="605" y="174" on="0"/>
        <pt x="650" y="236" on="1"/>
        <pt x="705" y="313" on="0"/>
        <pt x="810" y="498" on="0"/>
        <pt x="912" y="699" on="0"/>
        <pt x="1009" y="907" on="0"/>
        <pt x="1102" y="1107" on="0"/>
        <pt x="1191" y="1291" on="0"/>
        <pt x="1233" y="1367" on="1"/>
        <pt x="1277" y="1446" on="0"/>
        <pt x="1348" y="1543" on="0"/>
        <pt x="1413" y="1594" on="0"/>
        <pt x="1479" y="1611" on="0"/>
        <pt x="1518" y="1611" on="1"/>
        <pt x="1630" y="1611" on="0"/>
        <pt x="1730" y="1515" on="0"/>
        <pt x="1730" y="1420" on="1"/>
        <pt x="1730" y="1347" on="0"/>
        <pt x="1680" y="1145" on="0"/>
        <pt x="1604" y="914" on="0"/>
        <pt x="1516" y="669" on="0"/>
        <pt x="1440" y="439" on="0"/>
        <pt x="1390" y="240" on="0"/>
        <pt x="1390" y="170" on="1"/>
        <pt x="1390" y="94" on="0"/>
        <pt x="1460" y="10" on="0"/>
        <pt x="1541" y="10" on="1"/>
        <pt x="1607" y="10" on="0"/>
        <pt x="1730" y="72" on="0"/>
        <pt x="1851" y="195" on="0"/>
        <pt x="1976" y="379" on="0"/>
        <pt x="2045" y="501" on="1"/>
        <pt x="2097" y="593" on="1"/>
        <pt x="2124" y="574" on="1"/>
        <pt x="2072" y="482" on="1"/>
        <pt x="1998" y="351" on="0"/>
        <pt x="1866" y="156" on="0"/>
        <pt x="1734" y="26" on="0"/>
        <pt x="1597" y="-39" on="0"/>
        <pt x="1519" y="-39" on="1"/>
        <pt x="1457" y="-39" on="0"/>
        <pt x="1363" y="-1" on="0"/>
        <pt x="1299" y="65" on="0"/>
        <pt x="1266" y="154" on="0"/>
        <pt x="1266" y="205" on="1"/>
        <pt x="1266" y="249" on="0"/>
        <pt x="1289" y="369" on="0"/>
        <pt x="1328" y="510" on="0"/>
        <pt x="1379" y="667" on="0"/>
        <pt x="1407" y="749" on="1"/>
        <pt x="986" y="749" on="1"/>
        <pt x="949" y="672" on="0"/>
        <pt x="872" y="522" on="0"/>
        <pt x="795" y="382" on="0"/>
        <pt x="718" y="257" on="0"/>
        <pt x="681" y="206" on="1"/>
        <pt x="632" y="138" on="0"/>
        <pt x="537" y="43" on="0"/>
        <pt x="439" y="-19" on="0"/>
        <pt x="337" y="-47" on="0"/>
        <pt x="282" y="-47" on="1"/>
        <pt x="148" y="-47" on="0"/>
        <pt x="0" y="108" on="0"/>
        <pt x="0" y="255" on="1"/>
        <pt x="0" y="334" on="0"/>
        <pt x="42" y="473" on="0"/>
        <pt x="116" y="577" on="0"/>
        <pt x="216" y="637" on="0"/>
        <pt x="274" y="637" on="1"/>
        <pt x="303" y="637" on="0"/>
        <pt x="340" y="617" on="0"/>
      </contour>
      <contour>
        <pt x="1278" y="1355" on="1"/>
        <pt x="1251" y="1304" on="0"/>
        <pt x="1188" y="1176" on="0"/>
        <pt x="1120" y="1032" on="0"/>
        <pt x="1047" y="877" on="0"/>
        <pt x="1009" y="798" on="1"/>
        <pt x="1424" y="798" on="1"/>
        <pt x="1457" y="894" on="0"/>
        <pt x="1520" y="1084" on="0"/>
        <pt x="1571" y="1257" on="0"/>
        <pt x="1602" y="1406" on="0"/>
        <pt x="1602" y="1460" on="1"/>
        <pt x="1602" y="1495" on="0"/>
        <pt x="1588" y="1539" on="0"/>
        <pt x="1563" y="1564" on="0"/>
        <pt x="1528" y="1573" on="0"/>
        <pt x="1507" y="1573" on="1"/>
        <pt x="1474" y="1573" on="0"/>
        <pt x="1419" y="1553" on="0"/>
        <pt x="1367" y="1503" on="0"/>
        <pt x="1311" y="1419" on="0"/>
      </contour>
      <contour>
        <pt x="1387" y="1794" on="1"/>
        <pt x="1387" y="1830" on="0"/>
        <pt x="1430" y="1879" on="0"/>
        <pt x="1461" y="1879" on="1"/>
        <pt x="1493" y="1879" on="0"/>
        <pt x="1536" y="1830" on="0"/>
        <pt x="1536" y="1795" on="1"/>
        <pt x="1536" y="1760" on="0"/>
        <pt x="1492" y="1712" on="0"/>
        <pt x="1460" y="1712" on="1"/>
        <pt x="1429" y="1712" on="0"/>
        <pt x="1387" y="1759" on="0"/>
      </contour>
      <contour>
        <pt x="1702" y="1794" on="1"/>
        <pt x="1702" y="1830" on="0"/>
        <pt x="1745" y="1879" on="0"/>
        <pt x="1776" y="1879" on="1"/>
        <pt x="1807" y="1879" on="0"/>
        <pt x="1851" y="1830" on="0"/>
        <pt x="1851" y="1795" on="1"/>
        <pt x="1851" y="1760" on="0"/>
        <pt x="1807" y="1712" on="0"/>
        <pt x="1775" y="1712" on="1"/>
        <pt x="1744" y="1712" on="0"/>
        <pt x="1702" y="1759" on="0"/>
      </contour>
    </TTGlyph>
    <TTGlyph name="Agrave" xMin="0" yMin="-47" xMax="2124" yMax="2031">
      <contour>
        <pt x="340" y="589" on="1"/>
        <pt x="340" y="568" on="0"/>
        <pt x="319" y="547" on="0"/>
        <pt x="284" y="535" on="0"/>
        <pt x="238" y="526" on="0"/>
        <pt x="213" y="518" on="1"/>
        <pt x="192" y="512" on="0"/>
        <pt x="134" y="481" on="0"/>
        <pt x="80" y="421" on="0"/>
        <pt x="43" y="324" on="0"/>
        <pt x="43" y="251" on="1"/>
        <pt x="43" y="176" on="0"/>
        <pt x="84" y="77" on="0"/>
        <pt x="152" y="17" on="0"/>
        <pt x="239" y="-8" on="0"/>
        <pt x="285" y="-8" on="1"/>
        <pt x="337" y="-8" on="0"/>
        <pt x="431" y="22" on="0"/>
        <pt x="519" y="82" on="0"/>
        <pt x="605" y="174" on="0"/>
        <pt x="650" y="236" on="1"/>
        <pt x="705" y="313" on="0"/>
        <pt x="810" y="498" on="0"/>
        <pt x="912" y="699" on="0"/>
        <pt x="1009" y="907" on="0"/>
        <pt x="1102" y="1107" on="0"/>
        <pt x="1191" y="1291" on="0"/>
        <pt x="1233" y="1367" on="1"/>
        <pt x="1277" y="1446" on="0"/>
        <pt x="1348" y="1543" on="0"/>
        <pt x="1413" y="1594" on="0"/>
        <pt x="1479" y="1611" on="0"/>
        <pt x="1518" y="1611" on="1"/>
        <pt x="1630" y="1611" on="0"/>
        <pt x="1730" y="1515" on="0"/>
        <pt x="1730" y="1420" on="1"/>
        <pt x="1730" y="1347" on="0"/>
        <pt x="1680" y="1145" on="0"/>
        <pt x="1604" y="914" on="0"/>
        <pt x="1516" y="669" on="0"/>
        <pt x="1440" y="439" on="0"/>
        <pt x="1390" y="240" on="0"/>
        <pt x="1390" y="170" on="1"/>
        <pt x="1390" y="94" on="0"/>
        <pt x="1460" y="10" on="0"/>
        <pt x="1541" y="10" on="1"/>
        <pt x="1607" y="10" on="0"/>
        <pt x="1730" y="72" on="0"/>
        <pt x="1851" y="195" on="0"/>
        <pt x="1976" y="379" on="0"/>
        <pt x="2045" y="501" on="1"/>
        <pt x="2097" y="593" on="1"/>
        <pt x="2124" y="574" on="1"/>
        <pt x="2072" y="482" on="1"/>
        <pt x="1998" y="351" on="0"/>
        <pt x="1866" y="156" on="0"/>
        <pt x="1734" y="26" on="0"/>
        <pt x="1597" y="-39" on="0"/>
        <pt x="1519" y="-39" on="1"/>
        <pt x="1457" y="-39" on="0"/>
        <pt x="1363" y="-1" on="0"/>
        <pt x="1299" y="65" on="0"/>
        <pt x="1266" y="154" on="0"/>
        <pt x="1266" y="205" on="1"/>
        <pt x="1266" y="249" on="0"/>
        <pt x="1289" y="369" on="0"/>
        <pt x="1328" y="510" on="0"/>
        <pt x="1379" y="667" on="0"/>
        <pt x="1407" y="749" on="1"/>
        <pt x="986" y="749" on="1"/>
        <pt x="949" y="672" on="0"/>
        <pt x="872" y="522" on="0"/>
        <pt x="795" y="382" on="0"/>
        <pt x="718" y="257" on="0"/>
        <pt x="681" y="206" on="1"/>
        <pt x="632" y="138" on="0"/>
        <pt x="537" y="43" on="0"/>
        <pt x="439" y="-19" on="0"/>
        <pt x="337" y="-47" on="0"/>
        <pt x="282" y="-47" on="1"/>
        <pt x="148" y="-47" on="0"/>
        <pt x="0" y="108" on="0"/>
        <pt x="0" y="255" on="1"/>
        <pt x="0" y="334" on="0"/>
        <pt x="42" y="473" on="0"/>
        <pt x="116" y="577" on="0"/>
        <pt x="216" y="637" on="0"/>
        <pt x="274" y="637" on="1"/>
        <pt x="303" y="637" on="0"/>
        <pt x="340" y="617" on="0"/>
      </contour>
      <contour>
        <pt x="1278" y="1355" on="1"/>
        <pt x="1251" y="1304" on="0"/>
        <pt x="1188" y="1176" on="0"/>
        <pt x="1120" y="1032" on="0"/>
        <pt x="1047" y="877" on="0"/>
        <pt x="1009" y="798" on="1"/>
        <pt x="1424" y="798" on="1"/>
        <pt x="1457" y="894" on="0"/>
        <pt x="1520" y="1084" on="0"/>
        <pt x="1571" y="1257" on="0"/>
        <pt x="1602" y="1406" on="0"/>
        <pt x="1602" y="1460" on="1"/>
        <pt x="1602" y="1495" on="0"/>
        <pt x="1588" y="1539" on="0"/>
        <pt x="1563" y="1564" on="0"/>
        <pt x="1528" y="1573" on="0"/>
        <pt x="1507" y="1573" on="1"/>
        <pt x="1474" y="1573" on="0"/>
        <pt x="1419" y="1553" on="0"/>
        <pt x="1367" y="1503" on="0"/>
        <pt x="1311" y="1419" on="0"/>
      </contour>
      <contour>
        <pt x="1693" y="1687" on="1"/>
        <pt x="1671" y="1694" on="0"/>
        <pt x="1608" y="1727" on="0"/>
        <pt x="1541" y="1771" on="0"/>
        <pt x="1474" y="1826" on="0"/>
        <pt x="1422" y="1885" on="0"/>
        <pt x="1389" y="1946" on="0"/>
        <pt x="1389" y="1975" on="1"/>
        <pt x="1389" y="1998" on="0"/>
        <pt x="1412" y="2031" on="0"/>
        <pt x="1436" y="2031" on="1"/>
        <pt x="1457" y="2031" on="0"/>
        <pt x="1484" y="2004" on="0"/>
        <pt x="1511" y="1954" on="0"/>
        <pt x="1547" y="1886" on="0"/>
        <pt x="1577" y="1846" on="1"/>
        <pt x="1612" y="1798" on="0"/>
        <pt x="1690" y="1726" on="0"/>
        <pt x="1722" y="1712" on="1"/>
      </contour>
    </TTGlyph>
    <TTGlyph name="Amacron" xMin="0" yMin="-47" xMax="2124" yMax="1839">
      <contour>
        <pt x="340" y="589" on="1"/>
        <pt x="340" y="568" on="0"/>
        <pt x="319" y="547" on="0"/>
        <pt x="284" y="535" on="0"/>
        <pt x="238" y="526" on="0"/>
        <pt x="213" y="518" on="1"/>
        <pt x="192" y="512" on="0"/>
        <pt x="134" y="481" on="0"/>
        <pt x="80" y="421" on="0"/>
        <pt x="43" y="324" on="0"/>
        <pt x="43" y="251" on="1"/>
        <pt x="43" y="176" on="0"/>
        <pt x="84" y="77" on="0"/>
        <pt x="152" y="17" on="0"/>
        <pt x="239" y="-8" on="0"/>
        <pt x="285" y="-8" on="1"/>
        <pt x="337" y="-8" on="0"/>
        <pt x="431" y="22" on="0"/>
        <pt x="519" y="82" on="0"/>
        <pt x="605" y="174" on="0"/>
        <pt x="650" y="236" on="1"/>
        <pt x="705" y="313" on="0"/>
        <pt x="810" y="498" on="0"/>
        <pt x="912" y="699" on="0"/>
        <pt x="1009" y="907" on="0"/>
        <pt x="1102" y="1107" on="0"/>
        <pt x="1191" y="1291" on="0"/>
        <pt x="1233" y="1367" on="1"/>
        <pt x="1277" y="1446" on="0"/>
        <pt x="1348" y="1543" on="0"/>
        <pt x="1413" y="1594" on="0"/>
        <pt x="1479" y="1611" on="0"/>
        <pt x="1518" y="1611" on="1"/>
        <pt x="1630" y="1611" on="0"/>
        <pt x="1730" y="1515" on="0"/>
        <pt x="1730" y="1420" on="1"/>
        <pt x="1730" y="1347" on="0"/>
        <pt x="1680" y="1145" on="0"/>
        <pt x="1604" y="914" on="0"/>
        <pt x="1516" y="669" on="0"/>
        <pt x="1440" y="439" on="0"/>
        <pt x="1390" y="240" on="0"/>
        <pt x="1390" y="170" on="1"/>
        <pt x="1390" y="94" on="0"/>
        <pt x="1460" y="10" on="0"/>
        <pt x="1541" y="10" on="1"/>
        <pt x="1607" y="10" on="0"/>
        <pt x="1730" y="72" on="0"/>
        <pt x="1851" y="195" on="0"/>
        <pt x="1976" y="379" on="0"/>
        <pt x="2045" y="501" on="1"/>
        <pt x="2097" y="593" on="1"/>
        <pt x="2124" y="574" on="1"/>
        <pt x="2072" y="482" on="1"/>
        <pt x="1998" y="351" on="0"/>
        <pt x="1866" y="156" on="0"/>
        <pt x="1734" y="26" on="0"/>
        <pt x="1597" y="-39" on="0"/>
        <pt x="1519" y="-39" on="1"/>
        <pt x="1457" y="-39" on="0"/>
        <pt x="1363" y="-1" on="0"/>
        <pt x="1299" y="65" on="0"/>
        <pt x="1266" y="154" on="0"/>
        <pt x="1266" y="205" on="1"/>
        <pt x="1266" y="249" on="0"/>
        <pt x="1289" y="369" on="0"/>
        <pt x="1328" y="510" on="0"/>
        <pt x="1379" y="667" on="0"/>
        <pt x="1407" y="749" on="1"/>
        <pt x="986" y="749" on="1"/>
        <pt x="949" y="672" on="0"/>
        <pt x="872" y="522" on="0"/>
        <pt x="795" y="382" on="0"/>
        <pt x="718" y="257" on="0"/>
        <pt x="681" y="206" on="1"/>
        <pt x="632" y="138" on="0"/>
        <pt x="537" y="43" on="0"/>
        <pt x="439" y="-19" on="0"/>
        <pt x="337" y="-47" on="0"/>
        <pt x="282" y="-47" on="1"/>
        <pt x="148" y="-47" on="0"/>
        <pt x="0" y="108" on="0"/>
        <pt x="0" y="255" on="1"/>
        <pt x="0" y="334" on="0"/>
        <pt x="42" y="473" on="0"/>
        <pt x="116" y="577" on="0"/>
        <pt x="216" y="637" on="0"/>
        <pt x="274" y="637" on="1"/>
        <pt x="303" y="637" on="0"/>
        <pt x="340" y="617" on="0"/>
      </contour>
      <contour>
        <pt x="1278" y="1355" on="1"/>
        <pt x="1251" y="1304" on="0"/>
        <pt x="1188" y="1176" on="0"/>
        <pt x="1120" y="1032" on="0"/>
        <pt x="1047" y="877" on="0"/>
        <pt x="1009" y="798" on="1"/>
        <pt x="1424" y="798" on="1"/>
        <pt x="1457" y="894" on="0"/>
        <pt x="1520" y="1084" on="0"/>
        <pt x="1571" y="1257" on="0"/>
        <pt x="1602" y="1406" on="0"/>
        <pt x="1602" y="1460" on="1"/>
        <pt x="1602" y="1495" on="0"/>
        <pt x="1588" y="1539" on="0"/>
        <pt x="1563" y="1564" on="0"/>
        <pt x="1528" y="1573" on="0"/>
        <pt x="1507" y="1573" on="1"/>
        <pt x="1474" y="1573" on="0"/>
        <pt x="1419" y="1553" on="0"/>
        <pt x="1367" y="1503" on="0"/>
        <pt x="1311" y="1419" on="0"/>
      </contour>
      <contour>
        <pt x="1292" y="1839" on="1"/>
        <pt x="1969" y="1839" on="1"/>
        <pt x="1942" y="1771" on="1"/>
        <pt x="1266" y="1771" on="1"/>
      </contour>
    </TTGlyph>
    <TTGlyph name="Aogonek" xMin="0" yMin="-516" xMax="2124" yMax="1611">
      <contour>
        <pt x="340" y="589" on="1"/>
        <pt x="340" y="568" on="0"/>
        <pt x="319" y="547" on="0"/>
        <pt x="284" y="535" on="0"/>
        <pt x="238" y="526" on="0"/>
        <pt x="213" y="518" on="1"/>
        <pt x="192" y="512" on="0"/>
        <pt x="134" y="481" on="0"/>
        <pt x="80" y="421" on="0"/>
        <pt x="43" y="324" on="0"/>
        <pt x="43" y="251" on="1"/>
        <pt x="43" y="176" on="0"/>
        <pt x="84" y="77" on="0"/>
        <pt x="152" y="17" on="0"/>
        <pt x="239" y="-8" on="0"/>
        <pt x="285" y="-8" on="1"/>
        <pt x="337" y="-8" on="0"/>
        <pt x="431" y="22" on="0"/>
        <pt x="519" y="82" on="0"/>
        <pt x="605" y="174" on="0"/>
        <pt x="650" y="236" on="1"/>
        <pt x="705" y="313" on="0"/>
        <pt x="810" y="498" on="0"/>
        <pt x="912" y="699" on="0"/>
        <pt x="1009" y="907" on="0"/>
        <pt x="1102" y="1107" on="0"/>
        <pt x="1191" y="1291" on="0"/>
        <pt x="1233" y="1367" on="1"/>
        <pt x="1277" y="1446" on="0"/>
        <pt x="1348" y="1543" on="0"/>
        <pt x="1413" y="1594" on="0"/>
        <pt x="1479" y="1611" on="0"/>
        <pt x="1518" y="1611" on="1"/>
        <pt x="1630" y="1611" on="0"/>
        <pt x="1730" y="1515" on="0"/>
        <pt x="1730" y="1420" on="1"/>
        <pt x="1730" y="1347" on="0"/>
        <pt x="1680" y="1145" on="0"/>
        <pt x="1604" y="914" on="0"/>
        <pt x="1516" y="669" on="0"/>
        <pt x="1440" y="439" on="0"/>
        <pt x="1390" y="240" on="0"/>
        <pt x="1390" y="170" on="1"/>
        <pt x="1390" y="94" on="0"/>
        <pt x="1460" y="10" on="0"/>
        <pt x="1541" y="10" on="1"/>
        <pt x="1607" y="10" on="0"/>
        <pt x="1730" y="72" on="0"/>
        <pt x="1851" y="195" on="0"/>
        <pt x="1976" y="379" on="0"/>
        <pt x="2045" y="501" on="1"/>
        <pt x="2097" y="593" on="1"/>
        <pt x="2124" y="574" on="1"/>
        <pt x="2072" y="482" on="1"/>
        <pt x="2012" y="376" on="0"/>
        <pt x="1902" y="208" on="0"/>
        <pt x="1796" y="82" on="0"/>
        <pt x="1689" y="-1" on="0"/>
        <pt x="1631" y="-20" on="1"/>
        <pt x="1470" y="-101" on="0"/>
        <pt x="1305" y="-288" on="0"/>
        <pt x="1305" y="-382" on="1"/>
        <pt x="1305" y="-488" on="0"/>
        <pt x="1418" y="-488" on="1"/>
        <pt x="1455" y="-488" on="0"/>
        <pt x="1538" y="-467" on="0"/>
        <pt x="1592" y="-445" on="1"/>
        <pt x="1604" y="-464" on="1"/>
        <pt x="1544" y="-492" on="0"/>
        <pt x="1450" y="-516" on="0"/>
        <pt x="1398" y="-516" on="1"/>
        <pt x="1216" y="-516" on="0"/>
        <pt x="1216" y="-371" on="1"/>
        <pt x="1216" y="-280" on="0"/>
        <pt x="1353" y="-108" on="0"/>
        <pt x="1478" y="-36" on="1"/>
        <pt x="1426" y="-30" on="0"/>
        <pt x="1347" y="12" on="0"/>
        <pt x="1293" y="76" on="0"/>
        <pt x="1266" y="158" on="0"/>
        <pt x="1266" y="205" on="1"/>
        <pt x="1266" y="249" on="0"/>
        <pt x="1289" y="369" on="0"/>
        <pt x="1328" y="510" on="0"/>
        <pt x="1379" y="667" on="0"/>
        <pt x="1407" y="749" on="1"/>
        <pt x="986" y="749" on="1"/>
        <pt x="949" y="672" on="0"/>
        <pt x="872" y="522" on="0"/>
        <pt x="795" y="382" on="0"/>
        <pt x="718" y="257" on="0"/>
        <pt x="681" y="206" on="1"/>
        <pt x="632" y="138" on="0"/>
        <pt x="537" y="43" on="0"/>
        <pt x="439" y="-19" on="0"/>
        <pt x="337" y="-47" on="0"/>
        <pt x="282" y="-47" on="1"/>
        <pt x="148" y="-47" on="0"/>
        <pt x="0" y="108" on="0"/>
        <pt x="0" y="255" on="1"/>
        <pt x="0" y="334" on="0"/>
        <pt x="42" y="473" on="0"/>
        <pt x="116" y="577" on="0"/>
        <pt x="216" y="637" on="0"/>
        <pt x="274" y="637" on="1"/>
        <pt x="303" y="637" on="0"/>
        <pt x="340" y="617" on="0"/>
      </contour>
      <contour>
        <pt x="1278" y="1355" on="1"/>
        <pt x="1251" y="1304" on="0"/>
        <pt x="1188" y="1176" on="0"/>
        <pt x="1120" y="1032" on="0"/>
        <pt x="1047" y="877" on="0"/>
        <pt x="1009" y="798" on="1"/>
        <pt x="1424" y="798" on="1"/>
        <pt x="1457" y="894" on="0"/>
        <pt x="1520" y="1084" on="0"/>
        <pt x="1571" y="1257" on="0"/>
        <pt x="1602" y="1406" on="0"/>
        <pt x="1602" y="1460" on="1"/>
        <pt x="1602" y="1495" on="0"/>
        <pt x="1588" y="1539" on="0"/>
        <pt x="1563" y="1564" on="0"/>
        <pt x="1528" y="1573" on="0"/>
        <pt x="1507" y="1573" on="1"/>
        <pt x="1474" y="1573" on="0"/>
        <pt x="1419" y="1553" on="0"/>
        <pt x="1367" y="1503" on="0"/>
        <pt x="1311" y="1419" on="0"/>
      </contour>
    </TTGlyph>
    <TTGlyph name="Aring" xMin="0" yMin="-47" xMax="2124" yMax="2033">
      <contour>
        <pt x="340" y="589" on="1"/>
        <pt x="340" y="568" on="0"/>
        <pt x="319" y="547" on="0"/>
        <pt x="284" y="535" on="0"/>
        <pt x="238" y="526" on="0"/>
        <pt x="213" y="518" on="1"/>
        <pt x="192" y="512" on="0"/>
        <pt x="134" y="481" on="0"/>
        <pt x="80" y="421" on="0"/>
        <pt x="43" y="324" on="0"/>
        <pt x="43" y="251" on="1"/>
        <pt x="43" y="176" on="0"/>
        <pt x="84" y="77" on="0"/>
        <pt x="152" y="17" on="0"/>
        <pt x="239" y="-8" on="0"/>
        <pt x="285" y="-8" on="1"/>
        <pt x="337" y="-8" on="0"/>
        <pt x="431" y="22" on="0"/>
        <pt x="519" y="82" on="0"/>
        <pt x="605" y="174" on="0"/>
        <pt x="650" y="236" on="1"/>
        <pt x="705" y="313" on="0"/>
        <pt x="810" y="498" on="0"/>
        <pt x="912" y="699" on="0"/>
        <pt x="1009" y="907" on="0"/>
        <pt x="1102" y="1107" on="0"/>
        <pt x="1191" y="1291" on="0"/>
        <pt x="1233" y="1367" on="1"/>
        <pt x="1277" y="1446" on="0"/>
        <pt x="1348" y="1543" on="0"/>
        <pt x="1413" y="1594" on="0"/>
        <pt x="1479" y="1611" on="0"/>
        <pt x="1518" y="1611" on="1"/>
        <pt x="1630" y="1611" on="0"/>
        <pt x="1730" y="1515" on="0"/>
        <pt x="1730" y="1420" on="1"/>
        <pt x="1730" y="1347" on="0"/>
        <pt x="1680" y="1145" on="0"/>
        <pt x="1604" y="914" on="0"/>
        <pt x="1516" y="669" on="0"/>
        <pt x="1440" y="439" on="0"/>
        <pt x="1390" y="240" on="0"/>
        <pt x="1390" y="170" on="1"/>
        <pt x="1390" y="94" on="0"/>
        <pt x="1460" y="10" on="0"/>
        <pt x="1541" y="10" on="1"/>
        <pt x="1607" y="10" on="0"/>
        <pt x="1730" y="72" on="0"/>
        <pt x="1851" y="195" on="0"/>
        <pt x="1976" y="379" on="0"/>
        <pt x="2045" y="501" on="1"/>
        <pt x="2097" y="593" on="1"/>
        <pt x="2124" y="574" on="1"/>
        <pt x="2072" y="482" on="1"/>
        <pt x="1998" y="351" on="0"/>
        <pt x="1866" y="156" on="0"/>
        <pt x="1734" y="26" on="0"/>
        <pt x="1597" y="-39" on="0"/>
        <pt x="1519" y="-39" on="1"/>
        <pt x="1457" y="-39" on="0"/>
        <pt x="1363" y="-1" on="0"/>
        <pt x="1299" y="65" on="0"/>
        <pt x="1266" y="154" on="0"/>
        <pt x="1266" y="205" on="1"/>
        <pt x="1266" y="249" on="0"/>
        <pt x="1289" y="369" on="0"/>
        <pt x="1328" y="510" on="0"/>
        <pt x="1379" y="667" on="0"/>
        <pt x="1407" y="749" on="1"/>
        <pt x="986" y="749" on="1"/>
        <pt x="949" y="672" on="0"/>
        <pt x="872" y="522" on="0"/>
        <pt x="795" y="382" on="0"/>
        <pt x="718" y="257" on="0"/>
        <pt x="681" y="206" on="1"/>
        <pt x="632" y="138" on="0"/>
        <pt x="537" y="43" on="0"/>
        <pt x="439" y="-19" on="0"/>
        <pt x="337" y="-47" on="0"/>
        <pt x="282" y="-47" on="1"/>
        <pt x="148" y="-47" on="0"/>
        <pt x="0" y="108" on="0"/>
        <pt x="0" y="255" on="1"/>
        <pt x="0" y="334" on="0"/>
        <pt x="42" y="473" on="0"/>
        <pt x="116" y="577" on="0"/>
        <pt x="216" y="637" on="0"/>
        <pt x="274" y="637" on="1"/>
        <pt x="303" y="637" on="0"/>
        <pt x="340" y="617" on="0"/>
      </contour>
      <contour>
        <pt x="1278" y="1355" on="1"/>
        <pt x="1251" y="1304" on="0"/>
        <pt x="1188" y="1176" on="0"/>
        <pt x="1120" y="1032" on="0"/>
        <pt x="1047" y="877" on="0"/>
        <pt x="1009" y="798" on="1"/>
        <pt x="1424" y="798" on="1"/>
        <pt x="1457" y="894" on="0"/>
        <pt x="1520" y="1084" on="0"/>
        <pt x="1571" y="1257" on="0"/>
        <pt x="1602" y="1406" on="0"/>
        <pt x="1602" y="1460" on="1"/>
        <pt x="1602" y="1495" on="0"/>
        <pt x="1588" y="1539" on="0"/>
        <pt x="1563" y="1564" on="0"/>
        <pt x="1528" y="1573" on="0"/>
        <pt x="1507" y="1573" on="1"/>
        <pt x="1474" y="1573" on="0"/>
        <pt x="1419" y="1553" on="0"/>
        <pt x="1367" y="1503" on="0"/>
        <pt x="1311" y="1419" on="0"/>
      </contour>
      <contour>
        <pt x="1491" y="1880" on="1"/>
        <pt x="1491" y="1912" on="0"/>
        <pt x="1514" y="1968" on="0"/>
        <pt x="1555" y="2009" on="0"/>
        <pt x="1609" y="2033" on="0"/>
        <pt x="1641" y="2033" on="1"/>
        <pt x="1672" y="2033" on="0"/>
        <pt x="1727" y="2009" on="0"/>
        <pt x="1768" y="1969" on="0"/>
        <pt x="1792" y="1913" on="0"/>
        <pt x="1792" y="1882" on="1"/>
        <pt x="1792" y="1851" on="0"/>
        <pt x="1768" y="1796" on="0"/>
        <pt x="1727" y="1756" on="0"/>
        <pt x="1671" y="1732" on="0"/>
        <pt x="1639" y="1732" on="1"/>
        <pt x="1607" y="1732" on="0"/>
        <pt x="1553" y="1755" on="0"/>
        <pt x="1514" y="1795" on="0"/>
        <pt x="1491" y="1849" on="0"/>
      </contour>
      <contour>
        <pt x="1530" y="1880" on="1"/>
        <pt x="1530" y="1857" on="0"/>
        <pt x="1547" y="1817" on="0"/>
        <pt x="1576" y="1788" on="0"/>
        <pt x="1616" y="1771" on="0"/>
        <pt x="1639" y="1771" on="1"/>
        <pt x="1663" y="1771" on="0"/>
        <pt x="1704" y="1789" on="0"/>
        <pt x="1734" y="1819" on="0"/>
        <pt x="1751" y="1859" on="0"/>
        <pt x="1751" y="1882" on="1"/>
        <pt x="1751" y="1905" on="0"/>
        <pt x="1734" y="1945" on="0"/>
        <pt x="1704" y="1975" on="0"/>
        <pt x="1664" y="1992" on="0"/>
        <pt x="1641" y="1992" on="1"/>
        <pt x="1618" y="1992" on="0"/>
        <pt x="1578" y="1975" on="0"/>
        <pt x="1548" y="1945" on="0"/>
        <pt x="1530" y="1904" on="0"/>
      </contour>
    </TTGlyph>
    <TTGlyph name="Aringacute" xMin="0" yMin="-47" xMax="2124" yMax="2033">
      <contour>
        <pt x="340" y="589" on="1"/>
        <pt x="340" y="568" on="0"/>
        <pt x="319" y="547" on="0"/>
        <pt x="284" y="535" on="0"/>
        <pt x="238" y="526" on="0"/>
        <pt x="213" y="518" on="1"/>
        <pt x="192" y="512" on="0"/>
        <pt x="134" y="481" on="0"/>
        <pt x="80" y="421" on="0"/>
        <pt x="43" y="324" on="0"/>
        <pt x="43" y="251" on="1"/>
        <pt x="43" y="176" on="0"/>
        <pt x="84" y="77" on="0"/>
        <pt x="152" y="17" on="0"/>
        <pt x="239" y="-8" on="0"/>
        <pt x="285" y="-8" on="1"/>
        <pt x="337" y="-8" on="0"/>
        <pt x="431" y="22" on="0"/>
        <pt x="519" y="82" on="0"/>
        <pt x="605" y="174" on="0"/>
        <pt x="650" y="236" on="1"/>
        <pt x="705" y="313" on="0"/>
        <pt x="810" y="498" on="0"/>
        <pt x="912" y="699" on="0"/>
        <pt x="1009" y="907" on="0"/>
        <pt x="1102" y="1107" on="0"/>
        <pt x="1191" y="1291" on="0"/>
        <pt x="1233" y="1367" on="1"/>
        <pt x="1277" y="1446" on="0"/>
        <pt x="1348" y="1543" on="0"/>
        <pt x="1413" y="1594" on="0"/>
        <pt x="1479" y="1611" on="0"/>
        <pt x="1518" y="1611" on="1"/>
        <pt x="1630" y="1611" on="0"/>
        <pt x="1730" y="1515" on="0"/>
        <pt x="1730" y="1420" on="1"/>
        <pt x="1730" y="1347" on="0"/>
        <pt x="1680" y="1145" on="0"/>
        <pt x="1604" y="914" on="0"/>
        <pt x="1516" y="669" on="0"/>
        <pt x="1440" y="439" on="0"/>
        <pt x="1390" y="240" on="0"/>
        <pt x="1390" y="170" on="1"/>
        <pt x="1390" y="94" on="0"/>
        <pt x="1460" y="10" on="0"/>
        <pt x="1541" y="10" on="1"/>
        <pt x="1607" y="10" on="0"/>
        <pt x="1730" y="72" on="0"/>
        <pt x="1851" y="195" on="0"/>
        <pt x="1976" y="379" on="0"/>
        <pt x="2045" y="501" on="1"/>
        <pt x="2097" y="593" on="1"/>
        <pt x="2124" y="574" on="1"/>
        <pt x="2072" y="482" on="1"/>
        <pt x="1998" y="351" on="0"/>
        <pt x="1866" y="156" on="0"/>
        <pt x="1734" y="26" on="0"/>
        <pt x="1597" y="-39" on="0"/>
        <pt x="1519" y="-39" on="1"/>
        <pt x="1457" y="-39" on="0"/>
        <pt x="1363" y="-1" on="0"/>
        <pt x="1299" y="65" on="0"/>
        <pt x="1266" y="154" on="0"/>
        <pt x="1266" y="205" on="1"/>
        <pt x="1266" y="249" on="0"/>
        <pt x="1289" y="369" on="0"/>
        <pt x="1328" y="510" on="0"/>
        <pt x="1379" y="667" on="0"/>
        <pt x="1407" y="749" on="1"/>
        <pt x="986" y="749" on="1"/>
        <pt x="949" y="672" on="0"/>
        <pt x="872" y="522" on="0"/>
        <pt x="795" y="382" on="0"/>
        <pt x="718" y="257" on="0"/>
        <pt x="681" y="206" on="1"/>
        <pt x="632" y="138" on="0"/>
        <pt x="537" y="43" on="0"/>
        <pt x="439" y="-19" on="0"/>
        <pt x="337" y="-47" on="0"/>
        <pt x="282" y="-47" on="1"/>
        <pt x="148" y="-47" on="0"/>
        <pt x="0" y="108" on="0"/>
        <pt x="0" y="255" on="1"/>
        <pt x="0" y="334" on="0"/>
        <pt x="42" y="473" on="0"/>
        <pt x="116" y="577" on="0"/>
        <pt x="216" y="637" on="0"/>
        <pt x="274" y="637" on="1"/>
        <pt x="303" y="637" on="0"/>
        <pt x="340" y="617" on="0"/>
      </contour>
      <contour>
        <pt x="1278" y="1355" on="1"/>
        <pt x="1251" y="1304" on="0"/>
        <pt x="1188" y="1176" on="0"/>
        <pt x="1120" y="1032" on="0"/>
        <pt x="1047" y="877" on="0"/>
        <pt x="1009" y="798" on="1"/>
        <pt x="1424" y="798" on="1"/>
        <pt x="1457" y="894" on="0"/>
        <pt x="1520" y="1084" on="0"/>
        <pt x="1571" y="1257" on="0"/>
        <pt x="1602" y="1406" on="0"/>
        <pt x="1602" y="1460" on="1"/>
        <pt x="1602" y="1495" on="0"/>
        <pt x="1588" y="1539" on="0"/>
        <pt x="1563" y="1564" on="0"/>
        <pt x="1528" y="1573" on="0"/>
        <pt x="1507" y="1573" on="1"/>
        <pt x="1474" y="1573" on="0"/>
        <pt x="1419" y="1553" on="0"/>
        <pt x="1367" y="1503" on="0"/>
        <pt x="1311" y="1419" on="0"/>
      </contour>
      <contour>
        <pt x="1421" y="1714" on="1"/>
        <pt x="1436" y="1721" on="0"/>
        <pt x="1469" y="1744" on="0"/>
        <pt x="1486" y="1759" on="1"/>
        <pt x="1477" y="1776" on="0"/>
        <pt x="1467" y="1812" on="0"/>
        <pt x="1467" y="1833" on="1"/>
        <pt x="1467" y="1865" on="0"/>
        <pt x="1491" y="1921" on="0"/>
        <pt x="1531" y="1962" on="0"/>
        <pt x="1586" y="1986" on="0"/>
        <pt x="1617" y="1986" on="1"/>
        <pt x="1632" y="1986" on="0"/>
        <pt x="1646" y="1983" on="1"/>
        <pt x="1660" y="2007" on="0"/>
        <pt x="1687" y="2033" on="0"/>
        <pt x="1707" y="2033" on="1"/>
        <pt x="1732" y="2033" on="0"/>
        <pt x="1755" y="2000" on="0"/>
        <pt x="1755" y="1977" on="1"/>
        <pt x="1755" y="1963" on="0"/>
        <pt x="1747" y="1936" on="0"/>
        <pt x="1741" y="1922" on="1"/>
        <pt x="1753" y="1903" on="0"/>
        <pt x="1768" y="1859" on="0"/>
        <pt x="1768" y="1835" on="1"/>
        <pt x="1768" y="1804" on="0"/>
        <pt x="1744" y="1749" on="0"/>
        <pt x="1703" y="1709" on="0"/>
        <pt x="1648" y="1685" on="0"/>
        <pt x="1616" y="1685" on="1"/>
        <pt x="1587" y="1685" on="0"/>
        <pt x="1538" y="1703" on="0"/>
        <pt x="1518" y="1720" on="1"/>
        <pt x="1498" y="1709" on="0"/>
        <pt x="1464" y="1694" on="0"/>
        <pt x="1450" y="1689" on="1"/>
      </contour>
      <contour>
        <pt x="1728" y="1835" on="1"/>
        <pt x="1728" y="1859" on="0"/>
        <pt x="1717" y="1883" on="1"/>
        <pt x="1688" y="1842" on="0"/>
        <pt x="1600" y="1771" on="0"/>
        <pt x="1555" y="1742" on="1"/>
        <pt x="1580" y="1724" on="0"/>
        <pt x="1616" y="1724" on="1"/>
        <pt x="1640" y="1724" on="0"/>
        <pt x="1681" y="1742" on="0"/>
        <pt x="1711" y="1772" on="0"/>
        <pt x="1728" y="1812" on="0"/>
      </contour>
      <contour>
        <pt x="1506" y="1833" on="1"/>
        <pt x="1506" y="1811" on="0"/>
        <pt x="1516" y="1788" on="1"/>
        <pt x="1529" y="1801" on="0"/>
        <pt x="1554" y="1831" on="0"/>
        <pt x="1567" y="1848" on="1"/>
        <pt x="1587" y="1875" on="0"/>
        <pt x="1615" y="1924" on="0"/>
        <pt x="1626" y="1944" on="1"/>
        <pt x="1624" y="1944" on="0"/>
        <pt x="1619" y="1945" on="0"/>
        <pt x="1617" y="1945" on="1"/>
        <pt x="1594" y="1945" on="0"/>
        <pt x="1554" y="1928" on="0"/>
        <pt x="1524" y="1898" on="0"/>
        <pt x="1506" y="1857" on="0"/>
      </contour>
    </TTGlyph>
    <TTGlyph name="Atilde" xMin="0" yMin="-47" xMax="2124" yMax="2029">
      <contour>
        <pt x="340" y="589" on="1"/>
        <pt x="340" y="568" on="0"/>
        <pt x="319" y="547" on="0"/>
        <pt x="284" y="535" on="0"/>
        <pt x="238" y="526" on="0"/>
        <pt x="213" y="518" on="1"/>
        <pt x="192" y="512" on="0"/>
        <pt x="134" y="481" on="0"/>
        <pt x="80" y="421" on="0"/>
        <pt x="43" y="324" on="0"/>
        <pt x="43" y="251" on="1"/>
        <pt x="43" y="176" on="0"/>
        <pt x="84" y="77" on="0"/>
        <pt x="152" y="17" on="0"/>
        <pt x="239" y="-8" on="0"/>
        <pt x="285" y="-8" on="1"/>
        <pt x="337" y="-8" on="0"/>
        <pt x="431" y="22" on="0"/>
        <pt x="519" y="82" on="0"/>
        <pt x="605" y="174" on="0"/>
        <pt x="650" y="236" on="1"/>
        <pt x="705" y="313" on="0"/>
        <pt x="810" y="498" on="0"/>
        <pt x="912" y="699" on="0"/>
        <pt x="1009" y="907" on="0"/>
        <pt x="1102" y="1107" on="0"/>
        <pt x="1191" y="1291" on="0"/>
        <pt x="1233" y="1367" on="1"/>
        <pt x="1277" y="1446" on="0"/>
        <pt x="1348" y="1543" on="0"/>
        <pt x="1413" y="1594" on="0"/>
        <pt x="1479" y="1611" on="0"/>
        <pt x="1518" y="1611" on="1"/>
        <pt x="1630" y="1611" on="0"/>
        <pt x="1730" y="1515" on="0"/>
        <pt x="1730" y="1420" on="1"/>
        <pt x="1730" y="1347" on="0"/>
        <pt x="1680" y="1145" on="0"/>
        <pt x="1604" y="914" on="0"/>
        <pt x="1516" y="669" on="0"/>
        <pt x="1440" y="439" on="0"/>
        <pt x="1390" y="240" on="0"/>
        <pt x="1390" y="170" on="1"/>
        <pt x="1390" y="94" on="0"/>
        <pt x="1460" y="10" on="0"/>
        <pt x="1541" y="10" on="1"/>
        <pt x="1607" y="10" on="0"/>
        <pt x="1730" y="72" on="0"/>
        <pt x="1851" y="195" on="0"/>
        <pt x="1976" y="379" on="0"/>
        <pt x="2045" y="501" on="1"/>
        <pt x="2097" y="593" on="1"/>
        <pt x="2124" y="574" on="1"/>
        <pt x="2072" y="482" on="1"/>
        <pt x="1998" y="351" on="0"/>
        <pt x="1866" y="156" on="0"/>
        <pt x="1734" y="26" on="0"/>
        <pt x="1597" y="-39" on="0"/>
        <pt x="1519" y="-39" on="1"/>
        <pt x="1457" y="-39" on="0"/>
        <pt x="1363" y="-1" on="0"/>
        <pt x="1299" y="65" on="0"/>
        <pt x="1266" y="154" on="0"/>
        <pt x="1266" y="205" on="1"/>
        <pt x="1266" y="249" on="0"/>
        <pt x="1289" y="369" on="0"/>
        <pt x="1328" y="510" on="0"/>
        <pt x="1379" y="667" on="0"/>
        <pt x="1407" y="749" on="1"/>
        <pt x="986" y="749" on="1"/>
        <pt x="949" y="672" on="0"/>
        <pt x="872" y="522" on="0"/>
        <pt x="795" y="382" on="0"/>
        <pt x="718" y="257" on="0"/>
        <pt x="681" y="206" on="1"/>
        <pt x="632" y="138" on="0"/>
        <pt x="537" y="43" on="0"/>
        <pt x="439" y="-19" on="0"/>
        <pt x="337" y="-47" on="0"/>
        <pt x="282" y="-47" on="1"/>
        <pt x="148" y="-47" on="0"/>
        <pt x="0" y="108" on="0"/>
        <pt x="0" y="255" on="1"/>
        <pt x="0" y="334" on="0"/>
        <pt x="42" y="473" on="0"/>
        <pt x="116" y="577" on="0"/>
        <pt x="216" y="637" on="0"/>
        <pt x="274" y="637" on="1"/>
        <pt x="303" y="637" on="0"/>
        <pt x="340" y="617" on="0"/>
      </contour>
      <contour>
        <pt x="1278" y="1355" on="1"/>
        <pt x="1251" y="1304" on="0"/>
        <pt x="1188" y="1176" on="0"/>
        <pt x="1120" y="1032" on="0"/>
        <pt x="1047" y="877" on="0"/>
        <pt x="1009" y="798" on="1"/>
        <pt x="1424" y="798" on="1"/>
        <pt x="1457" y="894" on="0"/>
        <pt x="1520" y="1084" on="0"/>
        <pt x="1571" y="1257" on="0"/>
        <pt x="1602" y="1406" on="0"/>
        <pt x="1602" y="1460" on="1"/>
        <pt x="1602" y="1495" on="0"/>
        <pt x="1588" y="1539" on="0"/>
        <pt x="1563" y="1564" on="0"/>
        <pt x="1528" y="1573" on="0"/>
        <pt x="1507" y="1573" on="1"/>
        <pt x="1474" y="1573" on="0"/>
        <pt x="1419" y="1553" on="0"/>
        <pt x="1367" y="1503" on="0"/>
        <pt x="1311" y="1419" on="0"/>
      </contour>
      <contour>
        <pt x="1478" y="2029" on="1"/>
        <pt x="1522" y="2029" on="0"/>
        <pt x="1590" y="2000" on="0"/>
        <pt x="1647" y="1956" on="0"/>
        <pt x="1696" y="1904" on="0"/>
        <pt x="1746" y="1860" on="0"/>
        <pt x="1800" y="1831" on="0"/>
        <pt x="1834" y="1831" on="1"/>
        <pt x="1872" y="1831" on="0"/>
        <pt x="1934" y="1868" on="0"/>
        <pt x="1981" y="1922" on="0"/>
        <pt x="2011" y="1984" on="0"/>
        <pt x="2017" y="2008" on="1"/>
        <pt x="2060" y="2008" on="1"/>
        <pt x="2045" y="1955" on="0"/>
        <pt x="2004" y="1855" on="0"/>
        <pt x="1942" y="1776" on="0"/>
        <pt x="1856" y="1728" on="0"/>
        <pt x="1796" y="1728" on="1"/>
        <pt x="1749" y="1728" on="0"/>
        <pt x="1682" y="1757" on="0"/>
        <pt x="1629" y="1800" on="0"/>
        <pt x="1585" y="1851" on="0"/>
        <pt x="1539" y="1894" on="0"/>
        <pt x="1484" y="1923" on="0"/>
        <pt x="1447" y="1923" on="1"/>
        <pt x="1399" y="1923" on="0"/>
        <pt x="1334" y="1878" on="0"/>
        <pt x="1292" y="1817" on="0"/>
        <pt x="1270" y="1757" on="0"/>
        <pt x="1265" y="1742" on="1"/>
        <pt x="1221" y="1742" on="1"/>
        <pt x="1234" y="1781" on="0"/>
        <pt x="1269" y="1881" on="0"/>
        <pt x="1328" y="1969" on="0"/>
        <pt x="1414" y="2029" on="0"/>
      </contour>
    </TTGlyph>
    <TTGlyph name="B" xMin="0" yMin="-39" xMax="1742" yMax="1609">
      <contour>
        <pt x="776" y="123" on="1"/>
        <pt x="814" y="69" on="0"/>
        <pt x="934" y="10" on="0"/>
        <pt x="1005" y="10" on="1"/>
        <pt x="1092" y="10" on="0"/>
        <pt x="1246" y="94" on="0"/>
        <pt x="1361" y="238" on="0"/>
        <pt x="1429" y="428" on="0"/>
        <pt x="1429" y="535" on="1"/>
        <pt x="1429" y="667" on="0"/>
        <pt x="1320" y="825" on="0"/>
        <pt x="1214" y="853" on="1"/>
        <pt x="1211" y="852" on="0"/>
        <pt x="1200" y="852" on="1"/>
        <pt x="1188" y="852" on="0"/>
        <pt x="1173" y="859" on="0"/>
        <pt x="1173" y="865" on="1"/>
        <pt x="1173" y="870" on="0"/>
        <pt x="1189" y="879" on="0"/>
        <pt x="1202" y="879" on="1"/>
        <pt x="1216" y="879" on="0"/>
        <pt x="1229" y="871" on="1"/>
        <pt x="1310" y="889" on="0"/>
        <pt x="1449" y="978" on="0"/>
        <pt x="1552" y="1103" on="0"/>
        <pt x="1611" y="1253" on="0"/>
        <pt x="1611" y="1333" on="1"/>
        <pt x="1611" y="1423" on="0"/>
        <pt x="1531" y="1532" on="0"/>
        <pt x="1446" y="1555" on="1"/>
        <pt x="1419" y="1544" on="0"/>
        <pt x="1363" y="1509" on="0"/>
        <pt x="1310" y="1465" on="0"/>
        <pt x="1264" y="1416" on="0"/>
        <pt x="1247" y="1392" on="1"/>
        <pt x="1238" y="1379" on="0"/>
        <pt x="1220" y="1346" on="0"/>
        <pt x="1197" y="1292" on="0"/>
        <pt x="1164" y="1209" on="0"/>
        <pt x="1117" y="1084" on="0"/>
        <pt x="1053" y="910" on="0"/>
        <pt x="1009" y="791" on="1"/>
        <pt x="931" y="578" on="0"/>
        <pt x="765" y="265" on="0"/>
        <pt x="585" y="60" on="0"/>
        <pt x="387" y="-39" on="0"/>
        <pt x="278" y="-39" on="1"/>
        <pt x="0" y="-39" on="0"/>
        <pt x="0" y="281" on="1"/>
        <pt x="0" y="352" on="0"/>
        <pt x="26" y="508" on="0"/>
        <pt x="76" y="670" on="0"/>
        <pt x="148" y="833" on="0"/>
        <pt x="194" y="911" on="1"/>
        <pt x="288" y="1071" on="0"/>
        <pt x="538" y="1330" on="0"/>
        <pt x="825" y="1511" on="0"/>
        <pt x="1140" y="1609" on="0"/>
        <pt x="1299" y="1609" on="1"/>
        <pt x="1403" y="1609" on="0"/>
        <pt x="1568" y="1567" on="0"/>
        <pt x="1682" y="1487" on="0"/>
        <pt x="1742" y="1371" on="0"/>
        <pt x="1742" y="1298" on="1"/>
        <pt x="1742" y="1212" on="0"/>
        <pt x="1663" y="1056" on="0"/>
        <pt x="1526" y="937" on="0"/>
        <pt x="1344" y="864" on="0"/>
        <pt x="1242" y="861" on="1"/>
        <pt x="1413" y="823" on="0"/>
        <pt x="1580" y="640" on="0"/>
        <pt x="1580" y="498" on="1"/>
        <pt x="1580" y="426" on="0"/>
        <pt x="1538" y="290" on="0"/>
        <pt x="1463" y="171" on="0"/>
        <pt x="1357" y="72" on="0"/>
        <pt x="1230" y="0" on="0"/>
        <pt x="1086" y="-39" on="0"/>
        <pt x="1009" y="-39" on="1"/>
        <pt x="965" y="-39" on="0"/>
        <pt x="893" y="-25" on="0"/>
        <pt x="829" y="6" on="0"/>
        <pt x="772" y="55" on="0"/>
        <pt x="744" y="90" on="1"/>
      </contour>
      <contour>
        <pt x="1035" y="1229" on="1"/>
        <pt x="1079" y="1309" on="0"/>
        <pt x="1170" y="1421" on="0"/>
        <pt x="1263" y="1498" on="0"/>
        <pt x="1358" y="1547" on="0"/>
        <pt x="1407" y="1563" on="1"/>
        <pt x="1384" y="1567" on="0"/>
        <pt x="1330" y="1571" on="0"/>
        <pt x="1301" y="1571" on="1"/>
        <pt x="1151" y="1571" on="0"/>
        <pt x="850" y="1474" on="0"/>
        <pt x="573" y="1297" on="0"/>
        <pt x="332" y="1048" on="0"/>
        <pt x="242" y="897" on="1"/>
        <pt x="151" y="744" on="0"/>
        <pt x="56" y="427" on="0"/>
        <pt x="56" y="279" on="1"/>
        <pt x="56" y="207" on="0"/>
        <pt x="81" y="105" on="0"/>
        <pt x="134" y="40" on="0"/>
        <pt x="217" y="10" on="0"/>
        <pt x="276" y="10" on="1"/>
        <pt x="328" y="10" on="0"/>
        <pt x="415" y="34" on="0"/>
        <pt x="494" y="92" on="0"/>
        <pt x="570" y="186" on="0"/>
        <pt x="648" y="326" on="0"/>
        <pt x="734" y="516" on="0"/>
        <pt x="785" y="640" on="1"/>
        <pt x="824" y="735" on="0"/>
        <pt x="890" y="903" on="0"/>
        <pt x="950" y="1050" on="0"/>
        <pt x="1006" y="1176" on="0"/>
      </contour>
    </TTGlyph>
    <TTGlyph name="C" xMin="1" yMin="-39" xMax="1214" yMax="1609">
      <contour>
        <pt x="468" y="-39" on="1"/>
        <pt x="357" y="-39" on="0"/>
        <pt x="183" y="30" on="0"/>
        <pt x="64" y="161" on="0"/>
        <pt x="1" y="352" on="0"/>
        <pt x="1" y="474" on="1"/>
        <pt x="1" y="541" on="0"/>
        <pt x="20" y="691" on="0"/>
        <pt x="40" y="768" on="1"/>
        <pt x="71" y="890" on="0"/>
        <pt x="171" y="1109" on="0"/>
        <pt x="302" y="1295" on="0"/>
        <pt x="459" y="1446" on="0"/>
        <pt x="633" y="1552" on="0"/>
        <pt x="821" y="1609" on="0"/>
        <pt x="918" y="1609" on="1"/>
        <pt x="964" y="1609" on="0"/>
        <pt x="1058" y="1587" on="0"/>
        <pt x="1133" y="1536" on="0"/>
        <pt x="1180" y="1451" on="0"/>
        <pt x="1180" y="1388" on="1"/>
        <pt x="1180" y="1332" on="0"/>
        <pt x="1147" y="1237" on="0"/>
        <pt x="1088" y="1158" on="0"/>
        <pt x="1010" y="1092" on="0"/>
        <pt x="965" y="1066" on="1"/>
        <pt x="947" y="1091" on="1"/>
        <pt x="1028" y="1156" on="0"/>
        <pt x="1105" y="1313" on="0"/>
        <pt x="1105" y="1399" on="1"/>
        <pt x="1105" y="1489" on="0"/>
        <pt x="1022" y="1571" on="0"/>
        <pt x="942" y="1571" on="1"/>
        <pt x="840" y="1571" on="0"/>
        <pt x="629" y="1450" on="0"/>
        <pt x="435" y="1238" on="0"/>
        <pt x="273" y="951" on="0"/>
        <pt x="220" y="785" on="1"/>
        <pt x="186" y="678" on="0"/>
        <pt x="150" y="471" on="0"/>
        <pt x="150" y="381" on="1"/>
        <pt x="150" y="10" on="0"/>
        <pt x="483" y="10" on="1"/>
        <pt x="673" y="10" on="0"/>
        <pt x="993" y="251" on="0"/>
        <pt x="1135" y="501" on="1"/>
        <pt x="1187" y="593" on="1"/>
        <pt x="1214" y="574" on="1"/>
        <pt x="1162" y="482" on="1"/>
        <pt x="1086" y="348" on="0"/>
        <pt x="928" y="152" on="0"/>
        <pt x="758" y="24" on="0"/>
        <pt x="572" y="-39" on="0"/>
      </contour>
    </TTGlyph>
    <TTGlyph name="Cacute" xMin="1" yMin="-39" xMax="1214" yMax="2004">
      <contour>
        <pt x="468" y="-39" on="1"/>
        <pt x="357" y="-39" on="0"/>
        <pt x="183" y="30" on="0"/>
        <pt x="64" y="161" on="0"/>
        <pt x="1" y="352" on="0"/>
        <pt x="1" y="474" on="1"/>
        <pt x="1" y="541" on="0"/>
        <pt x="20" y="691" on="0"/>
        <pt x="40" y="768" on="1"/>
        <pt x="71" y="890" on="0"/>
        <pt x="171" y="1109" on="0"/>
        <pt x="302" y="1295" on="0"/>
        <pt x="459" y="1446" on="0"/>
        <pt x="633" y="1552" on="0"/>
        <pt x="821" y="1609" on="0"/>
        <pt x="918" y="1609" on="1"/>
        <pt x="964" y="1609" on="0"/>
        <pt x="1058" y="1587" on="0"/>
        <pt x="1133" y="1536" on="0"/>
        <pt x="1180" y="1451" on="0"/>
        <pt x="1180" y="1388" on="1"/>
        <pt x="1180" y="1332" on="0"/>
        <pt x="1147" y="1237" on="0"/>
        <pt x="1088" y="1158" on="0"/>
        <pt x="1010" y="1092" on="0"/>
        <pt x="965" y="1066" on="1"/>
        <pt x="947" y="1091" on="1"/>
        <pt x="1028" y="1156" on="0"/>
        <pt x="1105" y="1313" on="0"/>
        <pt x="1105" y="1399" on="1"/>
        <pt x="1105" y="1489" on="0"/>
        <pt x="1022" y="1571" on="0"/>
        <pt x="942" y="1571" on="1"/>
        <pt x="840" y="1571" on="0"/>
        <pt x="629" y="1450" on="0"/>
        <pt x="435" y="1238" on="0"/>
        <pt x="273" y="951" on="0"/>
        <pt x="220" y="785" on="1"/>
        <pt x="186" y="678" on="0"/>
        <pt x="150" y="471" on="0"/>
        <pt x="150" y="381" on="1"/>
        <pt x="150" y="10" on="0"/>
        <pt x="483" y="10" on="1"/>
        <pt x="673" y="10" on="0"/>
        <pt x="993" y="251" on="0"/>
        <pt x="1135" y="501" on="1"/>
        <pt x="1187" y="593" on="1"/>
        <pt x="1214" y="574" on="1"/>
        <pt x="1162" y="482" on="1"/>
        <pt x="1086" y="348" on="0"/>
        <pt x="928" y="152" on="0"/>
        <pt x="758" y="24" on="0"/>
        <pt x="572" y="-39" on="0"/>
      </contour>
      <contour>
        <pt x="871" y="1684" on="1"/>
        <pt x="903" y="1699" on="0"/>
        <pt x="981" y="1770" on="0"/>
        <pt x="1017" y="1818" on="1"/>
        <pt x="1047" y="1859" on="0"/>
        <pt x="1082" y="1927" on="0"/>
        <pt x="1109" y="1977" on="0"/>
        <pt x="1136" y="2004" on="0"/>
        <pt x="1157" y="2004" on="1"/>
        <pt x="1182" y="2004" on="0"/>
        <pt x="1205" y="1970" on="0"/>
        <pt x="1205" y="1947" on="1"/>
        <pt x="1205" y="1903" on="0"/>
        <pt x="1135" y="1811" on="0"/>
        <pt x="1037" y="1731" on="0"/>
        <pt x="934" y="1671" on="0"/>
        <pt x="900" y="1659" on="1"/>
      </contour>
    </TTGlyph>
    <TTGlyph name="Ccaron" xMin="1" yMin="-39" xMax="1297" yMax="2004">
      <contour>
        <pt x="468" y="-39" on="1"/>
        <pt x="357" y="-39" on="0"/>
        <pt x="183" y="30" on="0"/>
        <pt x="64" y="161" on="0"/>
        <pt x="1" y="352" on="0"/>
        <pt x="1" y="474" on="1"/>
        <pt x="1" y="541" on="0"/>
        <pt x="20" y="691" on="0"/>
        <pt x="40" y="768" on="1"/>
        <pt x="71" y="890" on="0"/>
        <pt x="171" y="1109" on="0"/>
        <pt x="302" y="1295" on="0"/>
        <pt x="459" y="1446" on="0"/>
        <pt x="633" y="1552" on="0"/>
        <pt x="821" y="1609" on="0"/>
        <pt x="918" y="1609" on="1"/>
        <pt x="964" y="1609" on="0"/>
        <pt x="1058" y="1587" on="0"/>
        <pt x="1133" y="1536" on="0"/>
        <pt x="1180" y="1451" on="0"/>
        <pt x="1180" y="1388" on="1"/>
        <pt x="1180" y="1332" on="0"/>
        <pt x="1147" y="1237" on="0"/>
        <pt x="1088" y="1158" on="0"/>
        <pt x="1010" y="1092" on="0"/>
        <pt x="965" y="1066" on="1"/>
        <pt x="947" y="1091" on="1"/>
        <pt x="1028" y="1156" on="0"/>
        <pt x="1105" y="1313" on="0"/>
        <pt x="1105" y="1399" on="1"/>
        <pt x="1105" y="1489" on="0"/>
        <pt x="1022" y="1571" on="0"/>
        <pt x="942" y="1571" on="1"/>
        <pt x="840" y="1571" on="0"/>
        <pt x="629" y="1450" on="0"/>
        <pt x="435" y="1238" on="0"/>
        <pt x="273" y="951" on="0"/>
        <pt x="220" y="785" on="1"/>
        <pt x="186" y="678" on="0"/>
        <pt x="150" y="471" on="0"/>
        <pt x="150" y="381" on="1"/>
        <pt x="150" y="10" on="0"/>
        <pt x="483" y="10" on="1"/>
        <pt x="673" y="10" on="0"/>
        <pt x="993" y="251" on="0"/>
        <pt x="1135" y="501" on="1"/>
        <pt x="1187" y="593" on="1"/>
        <pt x="1214" y="574" on="1"/>
        <pt x="1162" y="482" on="1"/>
        <pt x="1086" y="348" on="0"/>
        <pt x="928" y="152" on="0"/>
        <pt x="758" y="24" on="0"/>
        <pt x="572" y="-39" on="0"/>
      </contour>
      <contour>
        <pt x="992" y="1685" on="1"/>
        <pt x="981" y="1668" on="0"/>
        <pt x="956" y="1657" on="0"/>
        <pt x="943" y="1657" on="1"/>
        <pt x="909" y="1657" on="0"/>
        <pt x="902" y="1687" on="1"/>
        <pt x="892" y="1722" on="0"/>
        <pt x="867" y="1794" on="0"/>
        <pt x="822" y="1867" on="0"/>
        <pt x="749" y="1941" on="0"/>
        <pt x="691" y="1977" on="1"/>
        <pt x="692" y="1977" on="0"/>
        <pt x="699" y="1986" on="0"/>
        <pt x="704" y="1991" on="1"/>
        <pt x="709" y="1997" on="0"/>
        <pt x="716" y="2004" on="1"/>
        <pt x="764" y="1981" on="0"/>
        <pt x="808" y="1948" on="1"/>
        <pt x="827" y="1934" on="0"/>
        <pt x="867" y="1898" on="0"/>
        <pt x="905" y="1856" on="0"/>
        <pt x="939" y="1807" on="0"/>
        <pt x="952" y="1779" on="1"/>
        <pt x="952" y="1779" on="0"/>
        <pt x="976" y="1806" on="0"/>
        <pt x="1020" y="1847" on="0"/>
        <pt x="1080" y="1899" on="0"/>
        <pt x="1151" y="1948" on="0"/>
        <pt x="1228" y="1990" on="0"/>
        <pt x="1268" y="2002" on="1"/>
        <pt x="1297" y="1977" on="1"/>
        <pt x="1229" y="1942" on="0"/>
        <pt x="1139" y="1878" on="0"/>
        <pt x="1073" y="1809" on="0"/>
        <pt x="1021" y="1732" on="0"/>
      </contour>
    </TTGlyph>
    <TTGlyph name="Ccedilla" xMin="1" yMin="-481" xMax="1214" yMax="1609">
      <contour>
        <pt x="254" y="-372" on="1"/>
        <pt x="295" y="-407" on="0"/>
        <pt x="390" y="-448" on="0"/>
        <pt x="430" y="-448" on="1"/>
        <pt x="456" y="-448" on="0"/>
        <pt x="501" y="-429" on="0"/>
        <pt x="534" y="-394" on="0"/>
        <pt x="553" y="-348" on="0"/>
        <pt x="553" y="-321" on="1"/>
        <pt x="553" y="-263" on="0"/>
        <pt x="462" y="-196" on="0"/>
        <pt x="381" y="-196" on="1"/>
        <pt x="365" y="-196" on="0"/>
        <pt x="354" y="-196" on="0"/>
        <pt x="349" y="-197" on="1"/>
        <pt x="419" y="-37" on="1"/>
        <pt x="319" y="-30" on="0"/>
        <pt x="164" y="46" on="0"/>
        <pt x="57" y="176" on="0"/>
        <pt x="1" y="359" on="0"/>
        <pt x="1" y="474" on="1"/>
        <pt x="1" y="541" on="0"/>
        <pt x="20" y="691" on="0"/>
        <pt x="40" y="768" on="1"/>
        <pt x="71" y="890" on="0"/>
        <pt x="171" y="1109" on="0"/>
        <pt x="302" y="1295" on="0"/>
        <pt x="459" y="1446" on="0"/>
        <pt x="633" y="1552" on="0"/>
        <pt x="821" y="1609" on="0"/>
        <pt x="918" y="1609" on="1"/>
        <pt x="964" y="1609" on="0"/>
        <pt x="1058" y="1587" on="0"/>
        <pt x="1133" y="1536" on="0"/>
        <pt x="1180" y="1451" on="0"/>
        <pt x="1180" y="1388" on="1"/>
        <pt x="1180" y="1332" on="0"/>
        <pt x="1147" y="1237" on="0"/>
        <pt x="1088" y="1158" on="0"/>
        <pt x="1010" y="1092" on="0"/>
        <pt x="965" y="1066" on="1"/>
        <pt x="947" y="1091" on="1"/>
        <pt x="1028" y="1156" on="0"/>
        <pt x="1105" y="1313" on="0"/>
        <pt x="1105" y="1399" on="1"/>
        <pt x="1105" y="1489" on="0"/>
        <pt x="1022" y="1571" on="0"/>
        <pt x="942" y="1571" on="1"/>
        <pt x="840" y="1571" on="0"/>
        <pt x="629" y="1450" on="0"/>
        <pt x="435" y="1238" on="0"/>
        <pt x="273" y="951" on="0"/>
        <pt x="220" y="785" on="1"/>
        <pt x="186" y="678" on="0"/>
        <pt x="150" y="471" on="0"/>
        <pt x="150" y="381" on="1"/>
        <pt x="150" y="10" on="0"/>
        <pt x="483" y="10" on="1"/>
        <pt x="673" y="10" on="0"/>
        <pt x="993" y="251" on="0"/>
        <pt x="1135" y="501" on="1"/>
        <pt x="1187" y="593" on="1"/>
        <pt x="1214" y="574" on="1"/>
        <pt x="1162" y="482" on="1"/>
        <pt x="1087" y="350" on="0"/>
        <pt x="931" y="155" on="0"/>
        <pt x="762" y="26" on="0"/>
        <pt x="578" y="-38" on="0"/>
        <pt x="476" y="-39" on="1"/>
        <pt x="414" y="-177" on="1"/>
        <pt x="435" y="-177" on="1"/>
        <pt x="537" y="-177" on="0"/>
        <pt x="647" y="-250" on="0"/>
        <pt x="647" y="-318" on="1"/>
        <pt x="647" y="-353" on="0"/>
        <pt x="617" y="-413" on="0"/>
        <pt x="563" y="-456" on="0"/>
        <pt x="489" y="-481" on="0"/>
        <pt x="445" y="-481" on="1"/>
        <pt x="334" y="-481" on="0"/>
        <pt x="238" y="-391" on="1"/>
      </contour>
    </TTGlyph>
    <TTGlyph name="Ccircumflex" xMin="1" yMin="-39" xMax="1265" yMax="2004">
      <contour>
        <pt x="468" y="-39" on="1"/>
        <pt x="357" y="-39" on="0"/>
        <pt x="183" y="30" on="0"/>
        <pt x="64" y="161" on="0"/>
        <pt x="1" y="352" on="0"/>
        <pt x="1" y="474" on="1"/>
        <pt x="1" y="541" on="0"/>
        <pt x="20" y="691" on="0"/>
        <pt x="40" y="768" on="1"/>
        <pt x="71" y="890" on="0"/>
        <pt x="171" y="1109" on="0"/>
        <pt x="302" y="1295" on="0"/>
        <pt x="459" y="1446" on="0"/>
        <pt x="633" y="1552" on="0"/>
        <pt x="821" y="1609" on="0"/>
        <pt x="918" y="1609" on="1"/>
        <pt x="964" y="1609" on="0"/>
        <pt x="1058" y="1587" on="0"/>
        <pt x="1133" y="1536" on="0"/>
        <pt x="1180" y="1451" on="0"/>
        <pt x="1180" y="1388" on="1"/>
        <pt x="1180" y="1332" on="0"/>
        <pt x="1147" y="1237" on="0"/>
        <pt x="1088" y="1158" on="0"/>
        <pt x="1010" y="1092" on="0"/>
        <pt x="965" y="1066" on="1"/>
        <pt x="947" y="1091" on="1"/>
        <pt x="1028" y="1156" on="0"/>
        <pt x="1105" y="1313" on="0"/>
        <pt x="1105" y="1399" on="1"/>
        <pt x="1105" y="1489" on="0"/>
        <pt x="1022" y="1571" on="0"/>
        <pt x="942" y="1571" on="1"/>
        <pt x="840" y="1571" on="0"/>
        <pt x="629" y="1450" on="0"/>
        <pt x="435" y="1238" on="0"/>
        <pt x="273" y="951" on="0"/>
        <pt x="220" y="785" on="1"/>
        <pt x="186" y="678" on="0"/>
        <pt x="150" y="471" on="0"/>
        <pt x="150" y="381" on="1"/>
        <pt x="150" y="10" on="0"/>
        <pt x="483" y="10" on="1"/>
        <pt x="673" y="10" on="0"/>
        <pt x="993" y="251" on="0"/>
        <pt x="1135" y="501" on="1"/>
        <pt x="1187" y="593" on="1"/>
        <pt x="1214" y="574" on="1"/>
        <pt x="1162" y="482" on="1"/>
        <pt x="1086" y="348" on="0"/>
        <pt x="928" y="152" on="0"/>
        <pt x="758" y="24" on="0"/>
        <pt x="572" y="-39" on="0"/>
      </contour>
      <contour>
        <pt x="965" y="1976" on="1"/>
        <pt x="976" y="1993" on="0"/>
        <pt x="1000" y="2004" on="0"/>
        <pt x="1013" y="2004" on="1"/>
        <pt x="1031" y="2004" on="0"/>
        <pt x="1050" y="1988" on="0"/>
        <pt x="1055" y="1974" on="1"/>
        <pt x="1065" y="1939" on="0"/>
        <pt x="1089" y="1867" on="0"/>
        <pt x="1134" y="1793" on="0"/>
        <pt x="1207" y="1720" on="0"/>
        <pt x="1265" y="1684" on="1"/>
        <pt x="1264" y="1683" on="0"/>
        <pt x="1257" y="1675" on="0"/>
        <pt x="1252" y="1670" on="1"/>
        <pt x="1247" y="1664" on="0"/>
        <pt x="1241" y="1657" on="1"/>
        <pt x="1192" y="1680" on="0"/>
        <pt x="1148" y="1713" on="1"/>
        <pt x="1110" y="1741" on="0"/>
        <pt x="1031" y="1825" on="0"/>
        <pt x="1005" y="1882" on="1"/>
        <pt x="958" y="1832" on="0"/>
        <pt x="906" y="1788" on="1"/>
        <pt x="884" y="1769" on="0"/>
        <pt x="832" y="1731" on="0"/>
        <pt x="777" y="1696" on="0"/>
        <pt x="718" y="1668" on="0"/>
        <pt x="689" y="1659" on="1"/>
        <pt x="688" y="1659" on="0"/>
        <pt x="679" y="1666" on="0"/>
        <pt x="674" y="1671" on="1"/>
        <pt x="668" y="1676" on="0"/>
        <pt x="659" y="1684" on="1"/>
        <pt x="727" y="1719" on="0"/>
        <pt x="817" y="1783" on="0"/>
        <pt x="883" y="1852" on="0"/>
        <pt x="935" y="1929" on="0"/>
      </contour>
    </TTGlyph>
    <TTGlyph name="Cdotaccent" xMin="1" yMin="-39" xMax="1214" yMax="1852">
      <contour>
        <pt x="468" y="-39" on="1"/>
        <pt x="357" y="-39" on="0"/>
        <pt x="183" y="30" on="0"/>
        <pt x="64" y="161" on="0"/>
        <pt x="1" y="352" on="0"/>
        <pt x="1" y="474" on="1"/>
        <pt x="1" y="541" on="0"/>
        <pt x="20" y="691" on="0"/>
        <pt x="40" y="768" on="1"/>
        <pt x="71" y="890" on="0"/>
        <pt x="171" y="1109" on="0"/>
        <pt x="302" y="1295" on="0"/>
        <pt x="459" y="1446" on="0"/>
        <pt x="633" y="1552" on="0"/>
        <pt x="821" y="1609" on="0"/>
        <pt x="918" y="1609" on="1"/>
        <pt x="964" y="1609" on="0"/>
        <pt x="1058" y="1587" on="0"/>
        <pt x="1133" y="1536" on="0"/>
        <pt x="1180" y="1451" on="0"/>
        <pt x="1180" y="1388" on="1"/>
        <pt x="1180" y="1332" on="0"/>
        <pt x="1147" y="1237" on="0"/>
        <pt x="1088" y="1158" on="0"/>
        <pt x="1010" y="1092" on="0"/>
        <pt x="965" y="1066" on="1"/>
        <pt x="947" y="1091" on="1"/>
        <pt x="1028" y="1156" on="0"/>
        <pt x="1105" y="1313" on="0"/>
        <pt x="1105" y="1399" on="1"/>
        <pt x="1105" y="1489" on="0"/>
        <pt x="1022" y="1571" on="0"/>
        <pt x="942" y="1571" on="1"/>
        <pt x="840" y="1571" on="0"/>
        <pt x="629" y="1450" on="0"/>
        <pt x="435" y="1238" on="0"/>
        <pt x="273" y="951" on="0"/>
        <pt x="220" y="785" on="1"/>
        <pt x="186" y="678" on="0"/>
        <pt x="150" y="471" on="0"/>
        <pt x="150" y="381" on="1"/>
        <pt x="150" y="10" on="0"/>
        <pt x="483" y="10" on="1"/>
        <pt x="673" y="10" on="0"/>
        <pt x="993" y="251" on="0"/>
        <pt x="1135" y="501" on="1"/>
        <pt x="1187" y="593" on="1"/>
        <pt x="1214" y="574" on="1"/>
        <pt x="1162" y="482" on="1"/>
        <pt x="1086" y="348" on="0"/>
        <pt x="928" y="152" on="0"/>
        <pt x="758" y="24" on="0"/>
        <pt x="572" y="-39" on="0"/>
      </contour>
      <contour>
        <pt x="912" y="1767" on="1"/>
        <pt x="912" y="1785" on="0"/>
        <pt x="925" y="1816" on="0"/>
        <pt x="947" y="1839" on="0"/>
        <pt x="978" y="1852" on="0"/>
        <pt x="995" y="1852" on="1"/>
        <pt x="1030" y="1852" on="0"/>
        <pt x="1080" y="1802" on="0"/>
        <pt x="1080" y="1767" on="1"/>
        <pt x="1080" y="1732" on="0"/>
        <pt x="1030" y="1684" on="0"/>
        <pt x="994" y="1684" on="1"/>
        <pt x="959" y="1684" on="0"/>
        <pt x="912" y="1732" on="0"/>
      </contour>
    </TTGlyph>
    <TTGlyph name="D" xMin="0" yMin="-40" xMax="1906" yMax="1609">
      <contour>
        <pt x="1050" y="1224" on="1"/>
        <pt x="1072" y="1258" on="0"/>
        <pt x="1143" y="1346" on="0"/>
        <pt x="1233" y="1435" on="0"/>
        <pt x="1340" y="1515" on="0"/>
        <pt x="1398" y="1540" on="1"/>
        <pt x="1338" y="1555" on="0"/>
        <pt x="1202" y="1571" on="0"/>
        <pt x="1124" y="1571" on="1"/>
        <pt x="1018" y="1571" on="0"/>
        <pt x="822" y="1541" on="0"/>
        <pt x="654" y="1479" on="0"/>
        <pt x="517" y="1382" on="0"/>
        <pt x="419" y="1246" on="0"/>
        <pt x="366" y="1070" on="0"/>
        <pt x="366" y="961" on="1"/>
        <pt x="366" y="927" on="0"/>
        <pt x="373" y="853" on="0"/>
        <pt x="397" y="782" on="0"/>
        <pt x="441" y="718" on="0"/>
        <pt x="478" y="695" on="1"/>
        <pt x="465" y="674" on="1"/>
        <pt x="375" y="717" on="0"/>
        <pt x="289" y="862" on="0"/>
        <pt x="289" y="979" on="1"/>
        <pt x="289" y="1121" on="0"/>
        <pt x="413" y="1353" on="0"/>
        <pt x="633" y="1518" on="0"/>
        <pt x="938" y="1609" on="0"/>
        <pt x="1119" y="1609" on="1"/>
        <pt x="1307" y="1609" on="0"/>
        <pt x="1600" y="1512" on="0"/>
        <pt x="1801" y="1333" on="0"/>
        <pt x="1906" y="1083" on="0"/>
        <pt x="1906" y="930" on="1"/>
        <pt x="1906" y="835" on="0"/>
        <pt x="1866" y="651" on="0"/>
        <pt x="1795" y="481" on="0"/>
        <pt x="1696" y="328" on="0"/>
        <pt x="1637" y="264" on="1"/>
        <pt x="1578" y="200" on="0"/>
        <pt x="1434" y="89" on="0"/>
        <pt x="1261" y="7" on="0"/>
        <pt x="1061" y="-40" on="0"/>
        <pt x="946" y="-40" on="1"/>
        <pt x="876" y="-40" on="0"/>
        <pt x="750" y="-24" on="0"/>
        <pt x="641" y="1" on="0"/>
        <pt x="552" y="30" on="0"/>
        <pt x="519" y="43" on="1"/>
        <pt x="446" y="1" on="0"/>
        <pt x="289" y="-39" on="0"/>
        <pt x="201" y="-39" on="1"/>
        <pt x="139" y="-39" on="0"/>
        <pt x="61" y="-22" on="0"/>
        <pt x="17" y="7" on="0"/>
        <pt x="0" y="43" on="0"/>
        <pt x="0" y="61" on="1"/>
        <pt x="0" y="97" on="0"/>
        <pt x="47" y="139" on="0"/>
        <pt x="119" y="162" on="0"/>
        <pt x="204" y="169" on="0"/>
        <pt x="242" y="169" on="1"/>
        <pt x="324" y="169" on="0"/>
        <pt x="465" y="148" on="0"/>
        <pt x="530" y="128" on="1"/>
        <pt x="561" y="163" on="0"/>
        <pt x="624" y="258" on="0"/>
        <pt x="690" y="384" on="0"/>
        <pt x="761" y="542" on="0"/>
        <pt x="800" y="640" on="1"/>
        <pt x="847" y="758" on="0"/>
        <pt x="915" y="927" on="0"/>
        <pt x="963" y="1046" on="0"/>
        <pt x="996" y="1124" on="0"/>
        <pt x="1020" y="1175" on="0"/>
        <pt x="1039" y="1208" on="0"/>
      </contour>
      <contour>
        <pt x="1778" y="996" on="1"/>
        <pt x="1778" y="1210" on="0"/>
        <pt x="1609" y="1473" on="0"/>
        <pt x="1435" y="1529" on="1"/>
        <pt x="1408" y="1515" on="0"/>
        <pt x="1356" y="1479" on="0"/>
        <pt x="1310" y="1437" on="0"/>
        <pt x="1271" y="1391" on="0"/>
        <pt x="1256" y="1369" on="1"/>
        <pt x="1244" y="1352" on="0"/>
        <pt x="1222" y="1310" on="0"/>
        <pt x="1195" y="1250" on="0"/>
        <pt x="1162" y="1166" on="0"/>
        <pt x="1118" y="1049" on="0"/>
        <pt x="1060" y="893" on="0"/>
        <pt x="1023" y="791" on="1"/>
        <pt x="929" y="536" on="0"/>
        <pt x="723" y="198" on="0"/>
        <pt x="605" y="102" on="1"/>
        <pt x="643" y="88" on="0"/>
        <pt x="733" y="55" on="0"/>
        <pt x="837" y="27" on="0"/>
        <pt x="952" y="9" on="0"/>
        <pt x="1015" y="9" on="1"/>
        <pt x="1114" y="9" on="0"/>
        <pt x="1278" y="56" on="0"/>
        <pt x="1413" y="138" on="0"/>
        <pt x="1522" y="247" on="0"/>
        <pt x="1566" y="309" on="1"/>
        <pt x="1614" y="378" on="0"/>
        <pt x="1692" y="541" on="0"/>
        <pt x="1748" y="719" on="0"/>
        <pt x="1778" y="904" on="0"/>
      </contour>
      <contour>
        <pt x="208" y="-3" on="1"/>
        <pt x="283" y="-3" on="0"/>
        <pt x="405" y="24" on="0"/>
        <pt x="461" y="65" on="1"/>
        <pt x="441" y="71" on="0"/>
        <pt x="369" y="92" on="0"/>
        <pt x="284" y="111" on="0"/>
        <pt x="195" y="125" on="0"/>
        <pt x="156" y="125" on="1"/>
        <pt x="105" y="125" on="0"/>
        <pt x="40" y="95" on="0"/>
        <pt x="40" y="60" on="1"/>
        <pt x="40" y="47" on="0"/>
        <pt x="53" y="24" on="0"/>
        <pt x="90" y="7" on="0"/>
        <pt x="155" y="-3" on="0"/>
      </contour>
    </TTGlyph>
    <TTGlyph name="Dcaron" xMin="0" yMin="-40" xMax="1906" yMax="2004">
      <contour>
        <pt x="1050" y="1224" on="1"/>
        <pt x="1072" y="1258" on="0"/>
        <pt x="1143" y="1346" on="0"/>
        <pt x="1233" y="1435" on="0"/>
        <pt x="1340" y="1515" on="0"/>
        <pt x="1398" y="1540" on="1"/>
        <pt x="1338" y="1555" on="0"/>
        <pt x="1202" y="1571" on="0"/>
        <pt x="1124" y="1571" on="1"/>
        <pt x="1018" y="1571" on="0"/>
        <pt x="822" y="1541" on="0"/>
        <pt x="654" y="1479" on="0"/>
        <pt x="517" y="1382" on="0"/>
        <pt x="419" y="1246" on="0"/>
        <pt x="366" y="1070" on="0"/>
        <pt x="366" y="961" on="1"/>
        <pt x="366" y="927" on="0"/>
        <pt x="373" y="853" on="0"/>
        <pt x="397" y="782" on="0"/>
        <pt x="441" y="718" on="0"/>
        <pt x="478" y="695" on="1"/>
        <pt x="465" y="674" on="1"/>
        <pt x="375" y="717" on="0"/>
        <pt x="289" y="862" on="0"/>
        <pt x="289" y="979" on="1"/>
        <pt x="289" y="1121" on="0"/>
        <pt x="413" y="1353" on="0"/>
        <pt x="633" y="1518" on="0"/>
        <pt x="938" y="1609" on="0"/>
        <pt x="1119" y="1609" on="1"/>
        <pt x="1307" y="1609" on="0"/>
        <pt x="1600" y="1512" on="0"/>
        <pt x="1801" y="1333" on="0"/>
        <pt x="1906" y="1083" on="0"/>
        <pt x="1906" y="930" on="1"/>
        <pt x="1906" y="835" on="0"/>
        <pt x="1866" y="651" on="0"/>
        <pt x="1795" y="481" on="0"/>
        <pt x="1696" y="328" on="0"/>
        <pt x="1637" y="264" on="1"/>
        <pt x="1578" y="200" on="0"/>
        <pt x="1434" y="89" on="0"/>
        <pt x="1261" y="7" on="0"/>
        <pt x="1061" y="-40" on="0"/>
        <pt x="946" y="-40" on="1"/>
        <pt x="876" y="-40" on="0"/>
        <pt x="750" y="-24" on="0"/>
        <pt x="641" y="1" on="0"/>
        <pt x="552" y="30" on="0"/>
        <pt x="519" y="43" on="1"/>
        <pt x="446" y="1" on="0"/>
        <pt x="289" y="-39" on="0"/>
        <pt x="201" y="-39" on="1"/>
        <pt x="139" y="-39" on="0"/>
        <pt x="61" y="-22" on="0"/>
        <pt x="17" y="7" on="0"/>
        <pt x="0" y="43" on="0"/>
        <pt x="0" y="61" on="1"/>
        <pt x="0" y="97" on="0"/>
        <pt x="47" y="139" on="0"/>
        <pt x="119" y="162" on="0"/>
        <pt x="204" y="169" on="0"/>
        <pt x="242" y="169" on="1"/>
        <pt x="324" y="169" on="0"/>
        <pt x="465" y="148" on="0"/>
        <pt x="530" y="128" on="1"/>
        <pt x="561" y="163" on="0"/>
        <pt x="624" y="258" on="0"/>
        <pt x="690" y="384" on="0"/>
        <pt x="761" y="542" on="0"/>
        <pt x="800" y="640" on="1"/>
        <pt x="847" y="758" on="0"/>
        <pt x="915" y="927" on="0"/>
        <pt x="963" y="1046" on="0"/>
        <pt x="996" y="1124" on="0"/>
        <pt x="1020" y="1175" on="0"/>
        <pt x="1039" y="1208" on="0"/>
      </contour>
      <contour>
        <pt x="1778" y="996" on="1"/>
        <pt x="1778" y="1210" on="0"/>
        <pt x="1609" y="1473" on="0"/>
        <pt x="1435" y="1529" on="1"/>
        <pt x="1408" y="1515" on="0"/>
        <pt x="1356" y="1479" on="0"/>
        <pt x="1310" y="1437" on="0"/>
        <pt x="1271" y="1391" on="0"/>
        <pt x="1256" y="1369" on="1"/>
        <pt x="1244" y="1352" on="0"/>
        <pt x="1222" y="1310" on="0"/>
        <pt x="1195" y="1250" on="0"/>
        <pt x="1162" y="1166" on="0"/>
        <pt x="1118" y="1049" on="0"/>
        <pt x="1060" y="893" on="0"/>
        <pt x="1023" y="791" on="1"/>
        <pt x="929" y="536" on="0"/>
        <pt x="723" y="198" on="0"/>
        <pt x="605" y="102" on="1"/>
        <pt x="643" y="88" on="0"/>
        <pt x="733" y="55" on="0"/>
        <pt x="837" y="27" on="0"/>
        <pt x="952" y="9" on="0"/>
        <pt x="1015" y="9" on="1"/>
        <pt x="1114" y="9" on="0"/>
        <pt x="1278" y="56" on="0"/>
        <pt x="1413" y="138" on="0"/>
        <pt x="1522" y="247" on="0"/>
        <pt x="1566" y="309" on="1"/>
        <pt x="1614" y="378" on="0"/>
        <pt x="1692" y="541" on="0"/>
        <pt x="1748" y="719" on="0"/>
        <pt x="1778" y="904" on="0"/>
      </contour>
      <contour>
        <pt x="1465" y="1685" on="1"/>
        <pt x="1454" y="1668" on="0"/>
        <pt x="1429" y="1657" on="0"/>
        <pt x="1417" y="1657" on="1"/>
        <pt x="1382" y="1657" on="0"/>
        <pt x="1375" y="1687" on="1"/>
        <pt x="1365" y="1722" on="0"/>
        <pt x="1340" y="1794" on="0"/>
        <pt x="1295" y="1867" on="0"/>
        <pt x="1222" y="1941" on="0"/>
        <pt x="1164" y="1977" on="1"/>
        <pt x="1165" y="1977" on="0"/>
        <pt x="1172" y="1986" on="0"/>
        <pt x="1177" y="1991" on="1"/>
        <pt x="1182" y="1997" on="0"/>
        <pt x="1189" y="2004" on="1"/>
        <pt x="1237" y="1981" on="0"/>
        <pt x="1281" y="1948" on="1"/>
        <pt x="1300" y="1934" on="0"/>
        <pt x="1340" y="1898" on="0"/>
        <pt x="1378" y="1856" on="0"/>
        <pt x="1412" y="1807" on="0"/>
        <pt x="1425" y="1779" on="1"/>
        <pt x="1425" y="1779" on="0"/>
        <pt x="1449" y="1806" on="0"/>
        <pt x="1493" y="1847" on="0"/>
        <pt x="1553" y="1899" on="0"/>
        <pt x="1624" y="1948" on="0"/>
        <pt x="1701" y="1990" on="0"/>
        <pt x="1741" y="2002" on="1"/>
        <pt x="1743" y="2000" on="0"/>
        <pt x="1746" y="1998" on="1"/>
        <pt x="1752" y="1992" on="0"/>
        <pt x="1756" y="1989" on="1"/>
        <pt x="1770" y="1977" on="1"/>
        <pt x="1702" y="1942" on="0"/>
        <pt x="1612" y="1878" on="0"/>
        <pt x="1546" y="1809" on="0"/>
        <pt x="1494" y="1732" on="0"/>
      </contour>
      <contour>
        <pt x="208" y="-3" on="1"/>
        <pt x="283" y="-3" on="0"/>
        <pt x="405" y="24" on="0"/>
        <pt x="461" y="65" on="1"/>
        <pt x="441" y="71" on="0"/>
        <pt x="369" y="92" on="0"/>
        <pt x="284" y="111" on="0"/>
        <pt x="195" y="125" on="0"/>
        <pt x="156" y="125" on="1"/>
        <pt x="105" y="125" on="0"/>
        <pt x="40" y="95" on="0"/>
        <pt x="40" y="60" on="1"/>
        <pt x="40" y="47" on="0"/>
        <pt x="53" y="24" on="0"/>
        <pt x="90" y="7" on="0"/>
        <pt x="155" y="-3" on="0"/>
      </contour>
    </TTGlyph>
    <TTGlyph name="Dcroat" xMin="0" yMin="-40" xMax="1906" yMax="1609">
      <contour>
        <pt x="693" y="787" on="1"/>
        <pt x="858" y="787" on="1"/>
        <pt x="892" y="870" on="0"/>
        <pt x="941" y="992" on="0"/>
        <pt x="978" y="1080" on="0"/>
        <pt x="1004" y="1139" on="0"/>
        <pt x="1024" y="1181" on="0"/>
        <pt x="1041" y="1210" on="0"/>
        <pt x="1050" y="1224" on="1"/>
        <pt x="1072" y="1258" on="0"/>
        <pt x="1143" y="1346" on="0"/>
        <pt x="1233" y="1435" on="0"/>
        <pt x="1340" y="1515" on="0"/>
        <pt x="1398" y="1540" on="1"/>
        <pt x="1338" y="1555" on="0"/>
        <pt x="1202" y="1571" on="0"/>
        <pt x="1124" y="1571" on="1"/>
        <pt x="1018" y="1571" on="0"/>
        <pt x="822" y="1541" on="0"/>
        <pt x="654" y="1479" on="0"/>
        <pt x="517" y="1382" on="0"/>
        <pt x="419" y="1246" on="0"/>
        <pt x="366" y="1070" on="0"/>
        <pt x="366" y="961" on="1"/>
        <pt x="366" y="927" on="0"/>
        <pt x="373" y="853" on="0"/>
        <pt x="397" y="782" on="0"/>
        <pt x="441" y="718" on="0"/>
        <pt x="478" y="695" on="1"/>
        <pt x="465" y="674" on="1"/>
        <pt x="375" y="717" on="0"/>
        <pt x="289" y="862" on="0"/>
        <pt x="289" y="979" on="1"/>
        <pt x="289" y="1121" on="0"/>
        <pt x="413" y="1353" on="0"/>
        <pt x="633" y="1518" on="0"/>
        <pt x="938" y="1609" on="0"/>
        <pt x="1119" y="1609" on="1"/>
        <pt x="1307" y="1609" on="0"/>
        <pt x="1600" y="1512" on="0"/>
        <pt x="1801" y="1333" on="0"/>
        <pt x="1906" y="1083" on="0"/>
        <pt x="1906" y="930" on="1"/>
        <pt x="1906" y="835" on="0"/>
        <pt x="1866" y="651" on="0"/>
        <pt x="1795" y="481" on="0"/>
        <pt x="1696" y="328" on="0"/>
        <pt x="1637" y="264" on="1"/>
        <pt x="1578" y="200" on="0"/>
        <pt x="1434" y="89" on="0"/>
        <pt x="1261" y="7" on="0"/>
        <pt x="1061" y="-40" on="0"/>
        <pt x="946" y="-40" on="1"/>
        <pt x="876" y="-40" on="0"/>
        <pt x="750" y="-24" on="0"/>
        <pt x="641" y="1" on="0"/>
        <pt x="552" y="30" on="0"/>
        <pt x="519" y="43" on="1"/>
        <pt x="446" y="1" on="0"/>
        <pt x="289" y="-39" on="0"/>
        <pt x="201" y="-39" on="1"/>
        <pt x="139" y="-39" on="0"/>
        <pt x="61" y="-22" on="0"/>
        <pt x="17" y="7" on="0"/>
        <pt x="0" y="43" on="0"/>
        <pt x="0" y="61" on="1"/>
        <pt x="0" y="97" on="0"/>
        <pt x="47" y="139" on="0"/>
        <pt x="119" y="162" on="0"/>
        <pt x="204" y="169" on="0"/>
        <pt x="242" y="169" on="1"/>
        <pt x="324" y="169" on="0"/>
        <pt x="465" y="148" on="0"/>
        <pt x="530" y="128" on="1"/>
        <pt x="561" y="163" on="0"/>
        <pt x="624" y="258" on="0"/>
        <pt x="690" y="384" on="0"/>
        <pt x="761" y="542" on="0"/>
        <pt x="800" y="640" on="1"/>
        <pt x="821" y="694" on="1"/>
        <pt x="656" y="694" on="1"/>
      </contour>
      <contour>
        <pt x="1778" y="996" on="1"/>
        <pt x="1778" y="1210" on="0"/>
        <pt x="1609" y="1473" on="0"/>
        <pt x="1435" y="1529" on="1"/>
        <pt x="1408" y="1515" on="0"/>
        <pt x="1356" y="1479" on="0"/>
        <pt x="1310" y="1437" on="0"/>
        <pt x="1271" y="1391" on="0"/>
        <pt x="1256" y="1369" on="1"/>
        <pt x="1244" y="1352" on="0"/>
        <pt x="1222" y="1310" on="0"/>
        <pt x="1195" y="1249" on="0"/>
        <pt x="1162" y="1165" on="0"/>
        <pt x="1117" y="1047" on="0"/>
        <pt x="1059" y="890" on="0"/>
        <pt x="1021" y="787" on="1"/>
        <pt x="1388" y="787" on="1"/>
        <pt x="1352" y="694" on="1"/>
        <pt x="986" y="694" on="1"/>
        <pt x="900" y="479" on="0"/>
        <pt x="711" y="188" on="0"/>
        <pt x="605" y="102" on="1"/>
        <pt x="643" y="88" on="0"/>
        <pt x="733" y="55" on="0"/>
        <pt x="837" y="27" on="0"/>
        <pt x="952" y="9" on="0"/>
        <pt x="1015" y="9" on="1"/>
        <pt x="1114" y="9" on="0"/>
        <pt x="1278" y="56" on="0"/>
        <pt x="1413" y="138" on="0"/>
        <pt x="1522" y="247" on="0"/>
        <pt x="1566" y="309" on="1"/>
        <pt x="1614" y="378" on="0"/>
        <pt x="1692" y="541" on="0"/>
        <pt x="1748" y="719" on="0"/>
        <pt x="1778" y="904" on="0"/>
      </contour>
      <contour>
        <pt x="208" y="-3" on="1"/>
        <pt x="283" y="-3" on="0"/>
        <pt x="405" y="24" on="0"/>
        <pt x="461" y="65" on="1"/>
        <pt x="441" y="71" on="0"/>
        <pt x="369" y="92" on="0"/>
        <pt x="284" y="111" on="0"/>
        <pt x="195" y="125" on="0"/>
        <pt x="156" y="125" on="1"/>
        <pt x="105" y="125" on="0"/>
        <pt x="40" y="95" on="0"/>
        <pt x="40" y="60" on="1"/>
        <pt x="40" y="47" on="0"/>
        <pt x="53" y="24" on="0"/>
        <pt x="90" y="7" on="0"/>
        <pt x="155" y="-3" on="0"/>
      </contour>
    </TTGlyph>
    <TTGlyph name="Ddotbelow" xMin="0" yMin="-338" xMax="1906" yMax="1609">
      <contour>
        <pt x="1050" y="1224" on="1"/>
        <pt x="1072" y="1258" on="0"/>
        <pt x="1143" y="1346" on="0"/>
        <pt x="1233" y="1435" on="0"/>
        <pt x="1340" y="1515" on="0"/>
        <pt x="1398" y="1540" on="1"/>
        <pt x="1338" y="1555" on="0"/>
        <pt x="1202" y="1571" on="0"/>
        <pt x="1124" y="1571" on="1"/>
        <pt x="1018" y="1571" on="0"/>
        <pt x="822" y="1541" on="0"/>
        <pt x="654" y="1479" on="0"/>
        <pt x="517" y="1382" on="0"/>
        <pt x="419" y="1246" on="0"/>
        <pt x="366" y="1070" on="0"/>
        <pt x="366" y="961" on="1"/>
        <pt x="366" y="927" on="0"/>
        <pt x="373" y="853" on="0"/>
        <pt x="397" y="782" on="0"/>
        <pt x="441" y="718" on="0"/>
        <pt x="478" y="695" on="1"/>
        <pt x="465" y="674" on="1"/>
        <pt x="375" y="717" on="0"/>
        <pt x="289" y="862" on="0"/>
        <pt x="289" y="979" on="1"/>
        <pt x="289" y="1121" on="0"/>
        <pt x="413" y="1353" on="0"/>
        <pt x="633" y="1518" on="0"/>
        <pt x="938" y="1609" on="0"/>
        <pt x="1119" y="1609" on="1"/>
        <pt x="1307" y="1609" on="0"/>
        <pt x="1600" y="1512" on="0"/>
        <pt x="1801" y="1333" on="0"/>
        <pt x="1906" y="1083" on="0"/>
        <pt x="1906" y="930" on="1"/>
        <pt x="1906" y="835" on="0"/>
        <pt x="1866" y="651" on="0"/>
        <pt x="1795" y="481" on="0"/>
        <pt x="1696" y="328" on="0"/>
        <pt x="1637" y="264" on="1"/>
        <pt x="1578" y="200" on="0"/>
        <pt x="1434" y="89" on="0"/>
        <pt x="1261" y="7" on="0"/>
        <pt x="1061" y="-40" on="0"/>
        <pt x="946" y="-40" on="1"/>
        <pt x="876" y="-40" on="0"/>
        <pt x="750" y="-24" on="0"/>
        <pt x="641" y="1" on="0"/>
        <pt x="552" y="30" on="0"/>
        <pt x="519" y="43" on="1"/>
        <pt x="446" y="1" on="0"/>
        <pt x="289" y="-39" on="0"/>
        <pt x="201" y="-39" on="1"/>
        <pt x="139" y="-39" on="0"/>
        <pt x="61" y="-22" on="0"/>
        <pt x="17" y="7" on="0"/>
        <pt x="0" y="43" on="0"/>
        <pt x="0" y="61" on="1"/>
        <pt x="0" y="97" on="0"/>
        <pt x="47" y="139" on="0"/>
        <pt x="119" y="162" on="0"/>
        <pt x="204" y="169" on="0"/>
        <pt x="242" y="169" on="1"/>
        <pt x="324" y="169" on="0"/>
        <pt x="465" y="148" on="0"/>
        <pt x="530" y="128" on="1"/>
        <pt x="561" y="163" on="0"/>
        <pt x="624" y="258" on="0"/>
        <pt x="690" y="384" on="0"/>
        <pt x="761" y="542" on="0"/>
        <pt x="800" y="640" on="1"/>
        <pt x="847" y="758" on="0"/>
        <pt x="915" y="927" on="0"/>
        <pt x="963" y="1046" on="0"/>
        <pt x="996" y="1124" on="0"/>
        <pt x="1020" y="1175" on="0"/>
        <pt x="1039" y="1208" on="0"/>
      </contour>
      <contour>
        <pt x="1778" y="996" on="1"/>
        <pt x="1778" y="1210" on="0"/>
        <pt x="1609" y="1473" on="0"/>
        <pt x="1435" y="1529" on="1"/>
        <pt x="1408" y="1515" on="0"/>
        <pt x="1356" y="1479" on="0"/>
        <pt x="1310" y="1437" on="0"/>
        <pt x="1271" y="1391" on="0"/>
        <pt x="1256" y="1369" on="1"/>
        <pt x="1244" y="1352" on="0"/>
        <pt x="1222" y="1310" on="0"/>
        <pt x="1195" y="1250" on="0"/>
        <pt x="1162" y="1166" on="0"/>
        <pt x="1118" y="1049" on="0"/>
        <pt x="1060" y="893" on="0"/>
        <pt x="1023" y="791" on="1"/>
        <pt x="929" y="536" on="0"/>
        <pt x="723" y="198" on="0"/>
        <pt x="605" y="102" on="1"/>
        <pt x="643" y="88" on="0"/>
        <pt x="733" y="55" on="0"/>
        <pt x="837" y="27" on="0"/>
        <pt x="952" y="9" on="0"/>
        <pt x="1015" y="9" on="1"/>
        <pt x="1114" y="9" on="0"/>
        <pt x="1278" y="56" on="0"/>
        <pt x="1413" y="138" on="0"/>
        <pt x="1522" y="247" on="0"/>
        <pt x="1566" y="309" on="1"/>
        <pt x="1614" y="378" on="0"/>
        <pt x="1692" y="541" on="0"/>
        <pt x="1748" y="719" on="0"/>
        <pt x="1778" y="904" on="0"/>
      </contour>
      <contour>
        <pt x="208" y="-3" on="1"/>
        <pt x="283" y="-3" on="0"/>
        <pt x="405" y="24" on="0"/>
        <pt x="461" y="65" on="1"/>
        <pt x="441" y="71" on="0"/>
        <pt x="369" y="92" on="0"/>
        <pt x="284" y="111" on="0"/>
        <pt x="195" y="125" on="0"/>
        <pt x="156" y="125" on="1"/>
        <pt x="105" y="125" on="0"/>
        <pt x="40" y="95" on="0"/>
        <pt x="40" y="60" on="1"/>
        <pt x="40" y="47" on="0"/>
        <pt x="53" y="24" on="0"/>
        <pt x="90" y="7" on="0"/>
        <pt x="155" y="-3" on="0"/>
      </contour>
      <contour>
        <pt x="786" y="-246" on="1"/>
        <pt x="786" y="-227" on="0"/>
        <pt x="801" y="-192" on="0"/>
        <pt x="826" y="-167" on="0"/>
        <pt x="860" y="-152" on="0"/>
        <pt x="879" y="-152" on="1"/>
        <pt x="898" y="-152" on="0"/>
        <pt x="932" y="-167" on="0"/>
        <pt x="957" y="-192" on="0"/>
        <pt x="972" y="-226" on="0"/>
        <pt x="972" y="-245" on="1"/>
        <pt x="972" y="-264" on="0"/>
        <pt x="957" y="-298" on="0"/>
        <pt x="932" y="-323" on="0"/>
        <pt x="897" y="-338" on="0"/>
        <pt x="878" y="-338" on="1"/>
        <pt x="859" y="-338" on="0"/>
        <pt x="825" y="-324" on="0"/>
        <pt x="800" y="-299" on="0"/>
        <pt x="786" y="-265" on="0"/>
      </contour>
    </TTGlyph>
    <TTGlyph name="E" xMin="0" yMin="-37" xMax="1205" yMax="1609">
      <contour>
        <pt x="606" y="894" on="1"/>
        <pt x="503" y="881" on="0"/>
        <pt x="337" y="790" on="0"/>
        <pt x="220" y="645" on="0"/>
        <pt x="157" y="453" on="0"/>
        <pt x="157" y="339" on="1"/>
        <pt x="157" y="173" on="0"/>
        <pt x="295" y="13" on="0"/>
        <pt x="437" y="13" on="1"/>
        <pt x="532" y="13" on="0"/>
        <pt x="723" y="79" on="0"/>
        <pt x="901" y="204" on="0"/>
        <pt x="1062" y="385" on="0"/>
        <pt x="1127" y="501" on="1"/>
        <pt x="1179" y="593" on="1"/>
        <pt x="1205" y="574" on="1"/>
        <pt x="1154" y="482" on="1"/>
        <pt x="1082" y="352" on="0"/>
        <pt x="911" y="158" on="0"/>
        <pt x="722" y="28" on="0"/>
        <pt x="517" y="-37" on="0"/>
        <pt x="412" y="-37" on="1"/>
        <pt x="316" y="-37" on="0"/>
        <pt x="164" y="19" on="0"/>
        <pt x="57" y="124" on="0"/>
        <pt x="0" y="273" on="0"/>
        <pt x="0" y="365" on="1"/>
        <pt x="0" y="476" on="0"/>
        <pt x="82" y="664" on="0"/>
        <pt x="229" y="805" on="0"/>
        <pt x="435" y="894" on="0"/>
        <pt x="559" y="905" on="1"/>
        <pt x="484" y="947" on="0"/>
        <pt x="404" y="1091" on="0"/>
        <pt x="404" y="1182" on="1"/>
        <pt x="404" y="1270" on="0"/>
        <pt x="478" y="1426" on="0"/>
        <pt x="605" y="1542" on="0"/>
        <pt x="775" y="1609" on="0"/>
        <pt x="871" y="1609" on="1"/>
        <pt x="932" y="1609" on="0"/>
        <pt x="1035" y="1575" on="0"/>
        <pt x="1110" y="1513" on="0"/>
        <pt x="1151" y="1428" on="0"/>
        <pt x="1151" y="1377" on="1"/>
        <pt x="1151" y="1281" on="0"/>
        <pt x="1032" y="1126" on="0"/>
        <pt x="931" y="1068" on="1"/>
        <pt x="917" y="1098" on="1"/>
        <pt x="956" y="1120" on="0"/>
        <pt x="1018" y="1182" on="0"/>
        <pt x="1061" y="1257" on="0"/>
        <pt x="1085" y="1342" on="0"/>
        <pt x="1085" y="1386" on="1"/>
        <pt x="1085" y="1476" on="0"/>
        <pt x="990" y="1570" on="0"/>
        <pt x="901" y="1570" on="1"/>
        <pt x="823" y="1570" on="0"/>
        <pt x="684" y="1499" on="0"/>
        <pt x="580" y="1378" on="0"/>
        <pt x="519" y="1217" on="0"/>
        <pt x="519" y="1127" on="1"/>
        <pt x="519" y="1049" on="0"/>
        <pt x="565" y="936" on="0"/>
        <pt x="607" y="912" on="1"/>
        <pt x="612" y="914" on="0"/>
        <pt x="634" y="918" on="0"/>
        <pt x="644" y="918" on="1"/>
        <pt x="672" y="918" on="0"/>
        <pt x="672" y="904" on="1"/>
        <pt x="672" y="888" on="0"/>
        <pt x="643" y="888" on="1"/>
        <pt x="633" y="888" on="0"/>
        <pt x="613" y="892" on="0"/>
      </contour>
    </TTGlyph>
    <TTGlyph name="Eacute" xMin="0" yMin="-37" xMax="1205" yMax="2004">
      <contour>
        <pt x="606" y="894" on="1"/>
        <pt x="503" y="881" on="0"/>
        <pt x="337" y="790" on="0"/>
        <pt x="220" y="645" on="0"/>
        <pt x="157" y="453" on="0"/>
        <pt x="157" y="339" on="1"/>
        <pt x="157" y="173" on="0"/>
        <pt x="295" y="13" on="0"/>
        <pt x="437" y="13" on="1"/>
        <pt x="532" y="13" on="0"/>
        <pt x="723" y="79" on="0"/>
        <pt x="901" y="205" on="0"/>
        <pt x="1062" y="386" on="0"/>
        <pt x="1127" y="501" on="1"/>
        <pt x="1179" y="593" on="1"/>
        <pt x="1205" y="574" on="1"/>
        <pt x="1154" y="482" on="1"/>
        <pt x="1081" y="353" on="0"/>
        <pt x="910" y="159" on="0"/>
        <pt x="721" y="29" on="0"/>
        <pt x="517" y="-37" on="0"/>
        <pt x="412" y="-37" on="1"/>
        <pt x="316" y="-37" on="0"/>
        <pt x="164" y="19" on="0"/>
        <pt x="57" y="124" on="0"/>
        <pt x="0" y="273" on="0"/>
        <pt x="0" y="365" on="1"/>
        <pt x="0" y="476" on="0"/>
        <pt x="82" y="664" on="0"/>
        <pt x="229" y="805" on="0"/>
        <pt x="435" y="894" on="0"/>
        <pt x="559" y="905" on="1"/>
        <pt x="484" y="947" on="0"/>
        <pt x="404" y="1091" on="0"/>
        <pt x="404" y="1182" on="1"/>
        <pt x="404" y="1270" on="0"/>
        <pt x="478" y="1426" on="0"/>
        <pt x="605" y="1542" on="0"/>
        <pt x="775" y="1609" on="0"/>
        <pt x="871" y="1609" on="1"/>
        <pt x="932" y="1609" on="0"/>
        <pt x="1035" y="1575" on="0"/>
        <pt x="1110" y="1513" on="0"/>
        <pt x="1151" y="1428" on="0"/>
        <pt x="1151" y="1377" on="1"/>
        <pt x="1151" y="1281" on="0"/>
        <pt x="1032" y="1126" on="0"/>
        <pt x="931" y="1068" on="1"/>
        <pt x="917" y="1098" on="1"/>
        <pt x="956" y="1120" on="0"/>
        <pt x="1018" y="1182" on="0"/>
        <pt x="1061" y="1257" on="0"/>
        <pt x="1085" y="1342" on="0"/>
        <pt x="1085" y="1386" on="1"/>
        <pt x="1085" y="1476" on="0"/>
        <pt x="990" y="1570" on="0"/>
        <pt x="901" y="1570" on="1"/>
        <pt x="823" y="1570" on="0"/>
        <pt x="684" y="1499" on="0"/>
        <pt x="580" y="1378" on="0"/>
        <pt x="519" y="1217" on="0"/>
        <pt x="519" y="1127" on="1"/>
        <pt x="519" y="1049" on="0"/>
        <pt x="565" y="936" on="0"/>
        <pt x="607" y="912" on="1"/>
        <pt x="612" y="914" on="0"/>
        <pt x="634" y="918" on="0"/>
        <pt x="644" y="918" on="1"/>
        <pt x="672" y="918" on="0"/>
        <pt x="672" y="904" on="1"/>
        <pt x="672" y="888" on="0"/>
        <pt x="643" y="888" on="1"/>
        <pt x="633" y="888" on="0"/>
        <pt x="613" y="892" on="0"/>
      </contour>
      <contour>
        <pt x="794" y="1684" on="1"/>
        <pt x="826" y="1699" on="0"/>
        <pt x="905" y="1770" on="0"/>
        <pt x="940" y="1818" on="1"/>
        <pt x="970" y="1859" on="0"/>
        <pt x="1005" y="1927" on="0"/>
        <pt x="1032" y="1977" on="0"/>
        <pt x="1059" y="2004" on="0"/>
        <pt x="1080" y="2004" on="1"/>
        <pt x="1105" y="2004" on="0"/>
        <pt x="1128" y="1970" on="0"/>
        <pt x="1128" y="1947" on="1"/>
        <pt x="1128" y="1903" on="0"/>
        <pt x="1058" y="1811" on="0"/>
        <pt x="960" y="1731" on="0"/>
        <pt x="857" y="1671" on="0"/>
        <pt x="823" y="1659" on="1"/>
      </contour>
    </TTGlyph>
    <TTGlyph name="Ebreve" xMin="0" yMin="-37" xMax="1205" yMax="1918">
      <contour>
        <pt x="606" y="894" on="1"/>
        <pt x="503" y="881" on="0"/>
        <pt x="337" y="790" on="0"/>
        <pt x="220" y="645" on="0"/>
        <pt x="157" y="453" on="0"/>
        <pt x="157" y="339" on="1"/>
        <pt x="157" y="173" on="0"/>
        <pt x="295" y="13" on="0"/>
        <pt x="437" y="13" on="1"/>
        <pt x="532" y="13" on="0"/>
        <pt x="723" y="79" on="0"/>
        <pt x="901" y="205" on="0"/>
        <pt x="1062" y="386" on="0"/>
        <pt x="1127" y="501" on="1"/>
        <pt x="1179" y="593" on="1"/>
        <pt x="1205" y="574" on="1"/>
        <pt x="1154" y="482" on="1"/>
        <pt x="1081" y="353" on="0"/>
        <pt x="910" y="159" on="0"/>
        <pt x="721" y="29" on="0"/>
        <pt x="517" y="-37" on="0"/>
        <pt x="412" y="-37" on="1"/>
        <pt x="316" y="-37" on="0"/>
        <pt x="164" y="19" on="0"/>
        <pt x="57" y="124" on="0"/>
        <pt x="0" y="273" on="0"/>
        <pt x="0" y="365" on="1"/>
        <pt x="0" y="476" on="0"/>
        <pt x="82" y="664" on="0"/>
        <pt x="229" y="805" on="0"/>
        <pt x="435" y="894" on="0"/>
        <pt x="559" y="905" on="1"/>
        <pt x="484" y="947" on="0"/>
        <pt x="404" y="1091" on="0"/>
        <pt x="404" y="1182" on="1"/>
        <pt x="404" y="1270" on="0"/>
        <pt x="478" y="1426" on="0"/>
        <pt x="605" y="1542" on="0"/>
        <pt x="775" y="1609" on="0"/>
        <pt x="871" y="1609" on="1"/>
        <pt x="932" y="1609" on="0"/>
        <pt x="1035" y="1575" on="0"/>
        <pt x="1110" y="1513" on="0"/>
        <pt x="1151" y="1428" on="0"/>
        <pt x="1151" y="1377" on="1"/>
        <pt x="1151" y="1281" on="0"/>
        <pt x="1032" y="1126" on="0"/>
        <pt x="931" y="1068" on="1"/>
        <pt x="917" y="1098" on="1"/>
        <pt x="956" y="1120" on="0"/>
        <pt x="1018" y="1182" on="0"/>
        <pt x="1061" y="1257" on="0"/>
        <pt x="1085" y="1342" on="0"/>
        <pt x="1085" y="1386" on="1"/>
        <pt x="1085" y="1476" on="0"/>
        <pt x="990" y="1570" on="0"/>
        <pt x="901" y="1570" on="1"/>
        <pt x="823" y="1570" on="0"/>
        <pt x="684" y="1499" on="0"/>
        <pt x="580" y="1378" on="0"/>
        <pt x="519" y="1217" on="0"/>
        <pt x="519" y="1127" on="1"/>
        <pt x="519" y="1049" on="0"/>
        <pt x="565" y="936" on="0"/>
        <pt x="607" y="912" on="1"/>
        <pt x="612" y="914" on="0"/>
        <pt x="634" y="918" on="0"/>
        <pt x="644" y="918" on="1"/>
        <pt x="672" y="918" on="0"/>
        <pt x="672" y="904" on="1"/>
        <pt x="672" y="888" on="0"/>
        <pt x="643" y="888" on="1"/>
        <pt x="633" y="888" on="0"/>
        <pt x="613" y="892" on="0"/>
      </contour>
      <contour>
        <pt x="1179" y="1918" on="1"/>
        <pt x="1177" y="1887" on="0"/>
        <pt x="1147" y="1820" on="0"/>
        <pt x="1091" y="1765" on="0"/>
        <pt x="1011" y="1730" on="0"/>
        <pt x="960" y="1730" on="1"/>
        <pt x="909" y="1730" on="0"/>
        <pt x="831" y="1765" on="0"/>
        <pt x="777" y="1820" on="0"/>
        <pt x="749" y="1886" on="0"/>
        <pt x="748" y="1918" on="1"/>
        <pt x="791" y="1918" on="1"/>
        <pt x="792" y="1895" on="0"/>
        <pt x="814" y="1843" on="0"/>
        <pt x="857" y="1799" on="0"/>
        <pt x="920" y="1770" on="0"/>
        <pt x="961" y="1770" on="1"/>
        <pt x="1002" y="1770" on="0"/>
        <pt x="1065" y="1799" on="0"/>
        <pt x="1109" y="1844" on="0"/>
        <pt x="1132" y="1895" on="0"/>
        <pt x="1134" y="1918" on="1"/>
      </contour>
    </TTGlyph>
    <TTGlyph name="Ecaron" xMin="0" yMin="-37" xMax="1264" yMax="2004">
      <contour>
        <pt x="606" y="894" on="1"/>
        <pt x="503" y="881" on="0"/>
        <pt x="337" y="790" on="0"/>
        <pt x="220" y="645" on="0"/>
        <pt x="157" y="453" on="0"/>
        <pt x="157" y="339" on="1"/>
        <pt x="157" y="173" on="0"/>
        <pt x="295" y="13" on="0"/>
        <pt x="437" y="13" on="1"/>
        <pt x="532" y="13" on="0"/>
        <pt x="723" y="79" on="0"/>
        <pt x="901" y="205" on="0"/>
        <pt x="1062" y="386" on="0"/>
        <pt x="1127" y="501" on="1"/>
        <pt x="1179" y="593" on="1"/>
        <pt x="1205" y="574" on="1"/>
        <pt x="1154" y="482" on="1"/>
        <pt x="1081" y="353" on="0"/>
        <pt x="910" y="159" on="0"/>
        <pt x="721" y="29" on="0"/>
        <pt x="517" y="-37" on="0"/>
        <pt x="412" y="-37" on="1"/>
        <pt x="316" y="-37" on="0"/>
        <pt x="164" y="19" on="0"/>
        <pt x="57" y="124" on="0"/>
        <pt x="0" y="273" on="0"/>
        <pt x="0" y="365" on="1"/>
        <pt x="0" y="476" on="0"/>
        <pt x="82" y="664" on="0"/>
        <pt x="229" y="805" on="0"/>
        <pt x="435" y="894" on="0"/>
        <pt x="559" y="905" on="1"/>
        <pt x="484" y="947" on="0"/>
        <pt x="404" y="1091" on="0"/>
        <pt x="404" y="1182" on="1"/>
        <pt x="404" y="1270" on="0"/>
        <pt x="478" y="1426" on="0"/>
        <pt x="605" y="1542" on="0"/>
        <pt x="775" y="1609" on="0"/>
        <pt x="871" y="1609" on="1"/>
        <pt x="932" y="1609" on="0"/>
        <pt x="1035" y="1575" on="0"/>
        <pt x="1110" y="1513" on="0"/>
        <pt x="1151" y="1428" on="0"/>
        <pt x="1151" y="1377" on="1"/>
        <pt x="1151" y="1281" on="0"/>
        <pt x="1032" y="1126" on="0"/>
        <pt x="931" y="1068" on="1"/>
        <pt x="917" y="1098" on="1"/>
        <pt x="956" y="1120" on="0"/>
        <pt x="1018" y="1182" on="0"/>
        <pt x="1061" y="1257" on="0"/>
        <pt x="1085" y="1342" on="0"/>
        <pt x="1085" y="1386" on="1"/>
        <pt x="1085" y="1476" on="0"/>
        <pt x="990" y="1570" on="0"/>
        <pt x="901" y="1570" on="1"/>
        <pt x="823" y="1570" on="0"/>
        <pt x="684" y="1499" on="0"/>
        <pt x="580" y="1378" on="0"/>
        <pt x="519" y="1217" on="0"/>
        <pt x="519" y="1127" on="1"/>
        <pt x="519" y="1049" on="0"/>
        <pt x="565" y="936" on="0"/>
        <pt x="607" y="912" on="1"/>
        <pt x="612" y="914" on="0"/>
        <pt x="634" y="918" on="0"/>
        <pt x="644" y="918" on="1"/>
        <pt x="672" y="918" on="0"/>
        <pt x="672" y="904" on="1"/>
        <pt x="672" y="888" on="0"/>
        <pt x="643" y="888" on="1"/>
        <pt x="633" y="888" on="0"/>
        <pt x="613" y="892" on="0"/>
      </contour>
      <contour>
        <pt x="958" y="1685" on="1"/>
        <pt x="947" y="1668" on="0"/>
        <pt x="923" y="1657" on="0"/>
        <pt x="910" y="1657" on="1"/>
        <pt x="892" y="1657" on="0"/>
        <pt x="873" y="1672" on="0"/>
        <pt x="868" y="1687" on="1"/>
        <pt x="858" y="1722" on="0"/>
        <pt x="833" y="1794" on="0"/>
        <pt x="788" y="1867" on="0"/>
        <pt x="715" y="1941" on="0"/>
        <pt x="657" y="1977" on="1"/>
        <pt x="658" y="1977" on="0"/>
        <pt x="665" y="1986" on="0"/>
        <pt x="670" y="1991" on="1"/>
        <pt x="675" y="1997" on="0"/>
        <pt x="682" y="2004" on="1"/>
        <pt x="729" y="1981" on="0"/>
        <pt x="774" y="1948" on="1"/>
        <pt x="812" y="1919" on="0"/>
        <pt x="892" y="1836" on="0"/>
        <pt x="918" y="1779" on="1"/>
        <pt x="965" y="1829" on="0"/>
        <pt x="1017" y="1873" on="1"/>
        <pt x="1062" y="1911" on="0"/>
        <pt x="1174" y="1984" on="0"/>
        <pt x="1234" y="2002" on="1"/>
        <pt x="1236" y="2000" on="0"/>
        <pt x="1239" y="1998" on="1"/>
        <pt x="1245" y="1992" on="0"/>
        <pt x="1249" y="1989" on="1"/>
        <pt x="1255" y="1984" on="0"/>
        <pt x="1264" y="1977" on="1"/>
        <pt x="1196" y="1942" on="0"/>
        <pt x="1106" y="1878" on="0"/>
        <pt x="1040" y="1809" on="0"/>
        <pt x="988" y="1732" on="0"/>
      </contour>
    </TTGlyph>
    <TTGlyph name="Ecircumflex" xMin="0" yMin="-37" xMax="1263" yMax="2004">
      <contour>
        <pt x="606" y="894" on="1"/>
        <pt x="503" y="881" on="0"/>
        <pt x="337" y="790" on="0"/>
        <pt x="220" y="645" on="0"/>
        <pt x="157" y="453" on="0"/>
        <pt x="157" y="339" on="1"/>
        <pt x="157" y="173" on="0"/>
        <pt x="295" y="13" on="0"/>
        <pt x="437" y="13" on="1"/>
        <pt x="532" y="13" on="0"/>
        <pt x="723" y="79" on="0"/>
        <pt x="901" y="205" on="0"/>
        <pt x="1062" y="386" on="0"/>
        <pt x="1127" y="501" on="1"/>
        <pt x="1179" y="593" on="1"/>
        <pt x="1205" y="574" on="1"/>
        <pt x="1154" y="482" on="1"/>
        <pt x="1081" y="353" on="0"/>
        <pt x="910" y="159" on="0"/>
        <pt x="721" y="29" on="0"/>
        <pt x="517" y="-37" on="0"/>
        <pt x="412" y="-37" on="1"/>
        <pt x="316" y="-37" on="0"/>
        <pt x="164" y="19" on="0"/>
        <pt x="57" y="124" on="0"/>
        <pt x="0" y="273" on="0"/>
        <pt x="0" y="365" on="1"/>
        <pt x="0" y="476" on="0"/>
        <pt x="82" y="664" on="0"/>
        <pt x="229" y="805" on="0"/>
        <pt x="435" y="894" on="0"/>
        <pt x="559" y="905" on="1"/>
        <pt x="484" y="947" on="0"/>
        <pt x="404" y="1091" on="0"/>
        <pt x="404" y="1182" on="1"/>
        <pt x="404" y="1270" on="0"/>
        <pt x="478" y="1426" on="0"/>
        <pt x="605" y="1542" on="0"/>
        <pt x="775" y="1609" on="0"/>
        <pt x="871" y="1609" on="1"/>
        <pt x="932" y="1609" on="0"/>
        <pt x="1035" y="1575" on="0"/>
        <pt x="1110" y="1513" on="0"/>
        <pt x="1151" y="1428" on="0"/>
        <pt x="1151" y="1377" on="1"/>
        <pt x="1151" y="1281" on="0"/>
        <pt x="1032" y="1126" on="0"/>
        <pt x="931" y="1068" on="1"/>
        <pt x="917" y="1098" on="1"/>
        <pt x="956" y="1120" on="0"/>
        <pt x="1018" y="1182" on="0"/>
        <pt x="1061" y="1257" on="0"/>
        <pt x="1085" y="1342" on="0"/>
        <pt x="1085" y="1386" on="1"/>
        <pt x="1085" y="1476" on="0"/>
        <pt x="990" y="1570" on="0"/>
        <pt x="901" y="1570" on="1"/>
        <pt x="823" y="1570" on="0"/>
        <pt x="684" y="1499" on="0"/>
        <pt x="580" y="1378" on="0"/>
        <pt x="519" y="1217" on="0"/>
        <pt x="519" y="1127" on="1"/>
        <pt x="519" y="1049" on="0"/>
        <pt x="565" y="936" on="0"/>
        <pt x="607" y="912" on="1"/>
        <pt x="612" y="914" on="0"/>
        <pt x="634" y="918" on="0"/>
        <pt x="644" y="918" on="1"/>
        <pt x="672" y="918" on="0"/>
        <pt x="672" y="904" on="1"/>
        <pt x="672" y="888" on="0"/>
        <pt x="643" y="888" on="1"/>
        <pt x="633" y="888" on="0"/>
        <pt x="613" y="892" on="0"/>
      </contour>
      <contour>
        <pt x="963" y="1976" on="1"/>
        <pt x="974" y="1993" on="0"/>
        <pt x="998" y="2004" on="0"/>
        <pt x="1011" y="2004" on="1"/>
        <pt x="1029" y="2004" on="0"/>
        <pt x="1048" y="1988" on="0"/>
        <pt x="1053" y="1974" on="1"/>
        <pt x="1063" y="1939" on="0"/>
        <pt x="1088" y="1867" on="0"/>
        <pt x="1133" y="1793" on="0"/>
        <pt x="1205" y="1720" on="0"/>
        <pt x="1263" y="1684" on="1"/>
        <pt x="1262" y="1683" on="0"/>
        <pt x="1255" y="1675" on="0"/>
        <pt x="1250" y="1670" on="1"/>
        <pt x="1245" y="1664" on="0"/>
        <pt x="1239" y="1657" on="1"/>
        <pt x="1190" y="1680" on="0"/>
        <pt x="1146" y="1713" on="1"/>
        <pt x="1108" y="1741" on="0"/>
        <pt x="1029" y="1825" on="0"/>
        <pt x="1003" y="1882" on="1"/>
        <pt x="1003" y="1882" on="0"/>
        <pt x="978" y="1855" on="0"/>
        <pt x="934" y="1813" on="0"/>
        <pt x="874" y="1762" on="0"/>
        <pt x="804" y="1712" on="0"/>
        <pt x="726" y="1670" on="0"/>
        <pt x="687" y="1659" on="1"/>
        <pt x="686" y="1659" on="0"/>
        <pt x="677" y="1666" on="0"/>
        <pt x="672" y="1671" on="1"/>
        <pt x="666" y="1676" on="0"/>
        <pt x="657" y="1684" on="1"/>
        <pt x="725" y="1719" on="0"/>
        <pt x="815" y="1783" on="0"/>
        <pt x="881" y="1852" on="0"/>
        <pt x="933" y="1929" on="0"/>
      </contour>
    </TTGlyph>
    <TTGlyph name="Edieresis" xMin="0" yMin="-37" xMax="1205" yMax="1852">
      <contour>
        <pt x="606" y="894" on="1"/>
        <pt x="503" y="881" on="0"/>
        <pt x="337" y="790" on="0"/>
        <pt x="220" y="645" on="0"/>
        <pt x="157" y="453" on="0"/>
        <pt x="157" y="339" on="1"/>
        <pt x="157" y="173" on="0"/>
        <pt x="295" y="13" on="0"/>
        <pt x="437" y="13" on="1"/>
        <pt x="532" y="13" on="0"/>
        <pt x="723" y="79" on="0"/>
        <pt x="901" y="205" on="0"/>
        <pt x="1062" y="386" on="0"/>
        <pt x="1127" y="501" on="1"/>
        <pt x="1179" y="593" on="1"/>
        <pt x="1205" y="574" on="1"/>
        <pt x="1154" y="482" on="1"/>
        <pt x="1081" y="353" on="0"/>
        <pt x="910" y="159" on="0"/>
        <pt x="721" y="29" on="0"/>
        <pt x="517" y="-37" on="0"/>
        <pt x="412" y="-37" on="1"/>
        <pt x="316" y="-37" on="0"/>
        <pt x="164" y="19" on="0"/>
        <pt x="57" y="124" on="0"/>
        <pt x="0" y="273" on="0"/>
        <pt x="0" y="365" on="1"/>
        <pt x="0" y="476" on="0"/>
        <pt x="82" y="664" on="0"/>
        <pt x="229" y="805" on="0"/>
        <pt x="435" y="894" on="0"/>
        <pt x="559" y="905" on="1"/>
        <pt x="484" y="947" on="0"/>
        <pt x="404" y="1091" on="0"/>
        <pt x="404" y="1182" on="1"/>
        <pt x="404" y="1270" on="0"/>
        <pt x="478" y="1426" on="0"/>
        <pt x="605" y="1542" on="0"/>
        <pt x="775" y="1609" on="0"/>
        <pt x="871" y="1609" on="1"/>
        <pt x="932" y="1609" on="0"/>
        <pt x="1035" y="1575" on="0"/>
        <pt x="1110" y="1513" on="0"/>
        <pt x="1151" y="1428" on="0"/>
        <pt x="1151" y="1377" on="1"/>
        <pt x="1151" y="1281" on="0"/>
        <pt x="1032" y="1126" on="0"/>
        <pt x="931" y="1068" on="1"/>
        <pt x="917" y="1098" on="1"/>
        <pt x="956" y="1120" on="0"/>
        <pt x="1018" y="1182" on="0"/>
        <pt x="1061" y="1257" on="0"/>
        <pt x="1085" y="1342" on="0"/>
        <pt x="1085" y="1386" on="1"/>
        <pt x="1085" y="1476" on="0"/>
        <pt x="990" y="1570" on="0"/>
        <pt x="901" y="1570" on="1"/>
        <pt x="823" y="1570" on="0"/>
        <pt x="684" y="1499" on="0"/>
        <pt x="580" y="1378" on="0"/>
        <pt x="519" y="1217" on="0"/>
        <pt x="519" y="1127" on="1"/>
        <pt x="519" y="1049" on="0"/>
        <pt x="565" y="936" on="0"/>
        <pt x="607" y="912" on="1"/>
        <pt x="612" y="914" on="0"/>
        <pt x="634" y="918" on="0"/>
        <pt x="644" y="918" on="1"/>
        <pt x="672" y="918" on="0"/>
        <pt x="672" y="904" on="1"/>
        <pt x="672" y="888" on="0"/>
        <pt x="643" y="888" on="1"/>
        <pt x="633" y="888" on="0"/>
        <pt x="613" y="892" on="0"/>
      </contour>
      <contour>
        <pt x="731" y="1767" on="1"/>
        <pt x="731" y="1802" on="0"/>
        <pt x="774" y="1852" on="0"/>
        <pt x="805" y="1852" on="1"/>
        <pt x="820" y="1852" on="0"/>
        <pt x="848" y="1839" on="0"/>
        <pt x="868" y="1816" on="0"/>
        <pt x="880" y="1785" on="0"/>
        <pt x="880" y="1767" on="1"/>
        <pt x="880" y="1732" on="0"/>
        <pt x="835" y="1684" on="0"/>
        <pt x="804" y="1684" on="1"/>
        <pt x="773" y="1684" on="0"/>
        <pt x="731" y="1732" on="0"/>
      </contour>
      <contour>
        <pt x="1045" y="1767" on="1"/>
        <pt x="1045" y="1802" on="0"/>
        <pt x="1089" y="1852" on="0"/>
        <pt x="1119" y="1852" on="1"/>
        <pt x="1151" y="1852" on="0"/>
        <pt x="1194" y="1802" on="0"/>
        <pt x="1194" y="1767" on="1"/>
        <pt x="1194" y="1732" on="0"/>
        <pt x="1150" y="1684" on="0"/>
        <pt x="1118" y="1684" on="1"/>
        <pt x="1088" y="1684" on="0"/>
        <pt x="1045" y="1732" on="0"/>
      </contour>
    </TTGlyph>
    <TTGlyph name="Edotaccent" xMin="0" yMin="-37" xMax="1205" yMax="1852">
      <contour>
        <pt x="606" y="894" on="1"/>
        <pt x="503" y="881" on="0"/>
        <pt x="337" y="790" on="0"/>
        <pt x="220" y="645" on="0"/>
        <pt x="157" y="453" on="0"/>
        <pt x="157" y="339" on="1"/>
        <pt x="157" y="173" on="0"/>
        <pt x="295" y="13" on="0"/>
        <pt x="437" y="13" on="1"/>
        <pt x="532" y="13" on="0"/>
        <pt x="723" y="79" on="0"/>
        <pt x="901" y="205" on="0"/>
        <pt x="1062" y="386" on="0"/>
        <pt x="1127" y="501" on="1"/>
        <pt x="1179" y="593" on="1"/>
        <pt x="1205" y="574" on="1"/>
        <pt x="1154" y="482" on="1"/>
        <pt x="1081" y="353" on="0"/>
        <pt x="910" y="159" on="0"/>
        <pt x="721" y="29" on="0"/>
        <pt x="517" y="-37" on="0"/>
        <pt x="412" y="-37" on="1"/>
        <pt x="316" y="-37" on="0"/>
        <pt x="164" y="19" on="0"/>
        <pt x="57" y="124" on="0"/>
        <pt x="0" y="273" on="0"/>
        <pt x="0" y="365" on="1"/>
        <pt x="0" y="476" on="0"/>
        <pt x="82" y="664" on="0"/>
        <pt x="229" y="805" on="0"/>
        <pt x="435" y="894" on="0"/>
        <pt x="559" y="905" on="1"/>
        <pt x="484" y="947" on="0"/>
        <pt x="404" y="1091" on="0"/>
        <pt x="404" y="1182" on="1"/>
        <pt x="404" y="1270" on="0"/>
        <pt x="478" y="1426" on="0"/>
        <pt x="605" y="1542" on="0"/>
        <pt x="775" y="1609" on="0"/>
        <pt x="871" y="1609" on="1"/>
        <pt x="932" y="1609" on="0"/>
        <pt x="1035" y="1575" on="0"/>
        <pt x="1110" y="1513" on="0"/>
        <pt x="1151" y="1428" on="0"/>
        <pt x="1151" y="1377" on="1"/>
        <pt x="1151" y="1281" on="0"/>
        <pt x="1032" y="1126" on="0"/>
        <pt x="931" y="1068" on="1"/>
        <pt x="917" y="1098" on="1"/>
        <pt x="956" y="1120" on="0"/>
        <pt x="1018" y="1182" on="0"/>
        <pt x="1061" y="1257" on="0"/>
        <pt x="1085" y="1342" on="0"/>
        <pt x="1085" y="1386" on="1"/>
        <pt x="1085" y="1476" on="0"/>
        <pt x="990" y="1570" on="0"/>
        <pt x="901" y="1570" on="1"/>
        <pt x="823" y="1570" on="0"/>
        <pt x="684" y="1499" on="0"/>
        <pt x="580" y="1378" on="0"/>
        <pt x="519" y="1217" on="0"/>
        <pt x="519" y="1127" on="1"/>
        <pt x="519" y="1049" on="0"/>
        <pt x="565" y="936" on="0"/>
        <pt x="607" y="912" on="1"/>
        <pt x="612" y="914" on="0"/>
        <pt x="634" y="918" on="0"/>
        <pt x="644" y="918" on="1"/>
        <pt x="672" y="918" on="0"/>
        <pt x="672" y="904" on="1"/>
        <pt x="672" y="888" on="0"/>
        <pt x="643" y="888" on="1"/>
        <pt x="633" y="888" on="0"/>
        <pt x="613" y="892" on="0"/>
      </contour>
      <contour>
        <pt x="879" y="1767" on="1"/>
        <pt x="879" y="1785" on="0"/>
        <pt x="892" y="1816" on="0"/>
        <pt x="914" y="1839" on="0"/>
        <pt x="945" y="1852" on="0"/>
        <pt x="962" y="1852" on="1"/>
        <pt x="979" y="1852" on="0"/>
        <pt x="1010" y="1839" on="0"/>
        <pt x="1033" y="1816" on="0"/>
        <pt x="1046" y="1785" on="0"/>
        <pt x="1046" y="1767" on="1"/>
        <pt x="1046" y="1750" on="0"/>
        <pt x="1033" y="1719" on="0"/>
        <pt x="1010" y="1697" on="0"/>
        <pt x="979" y="1684" on="0"/>
        <pt x="961" y="1684" on="1"/>
        <pt x="926" y="1684" on="0"/>
        <pt x="879" y="1732" on="0"/>
      </contour>
    </TTGlyph>
    <TTGlyph name="Edotbelow" xMin="0" yMin="-350" xMax="1205" yMax="1609">
      <contour>
        <pt x="606" y="894" on="1"/>
        <pt x="503" y="881" on="0"/>
        <pt x="337" y="790" on="0"/>
        <pt x="220" y="645" on="0"/>
        <pt x="157" y="453" on="0"/>
        <pt x="157" y="339" on="1"/>
        <pt x="157" y="173" on="0"/>
        <pt x="295" y="13" on="0"/>
        <pt x="437" y="13" on="1"/>
        <pt x="532" y="13" on="0"/>
        <pt x="723" y="79" on="0"/>
        <pt x="901" y="205" on="0"/>
        <pt x="1062" y="386" on="0"/>
        <pt x="1127" y="501" on="1"/>
        <pt x="1179" y="593" on="1"/>
        <pt x="1205" y="574" on="1"/>
        <pt x="1154" y="482" on="1"/>
        <pt x="1081" y="353" on="0"/>
        <pt x="910" y="159" on="0"/>
        <pt x="721" y="29" on="0"/>
        <pt x="517" y="-37" on="0"/>
        <pt x="412" y="-37" on="1"/>
        <pt x="316" y="-37" on="0"/>
        <pt x="164" y="19" on="0"/>
        <pt x="57" y="124" on="0"/>
        <pt x="0" y="273" on="0"/>
        <pt x="0" y="365" on="1"/>
        <pt x="0" y="476" on="0"/>
        <pt x="82" y="664" on="0"/>
        <pt x="229" y="805" on="0"/>
        <pt x="435" y="894" on="0"/>
        <pt x="559" y="905" on="1"/>
        <pt x="484" y="947" on="0"/>
        <pt x="404" y="1091" on="0"/>
        <pt x="404" y="1182" on="1"/>
        <pt x="404" y="1270" on="0"/>
        <pt x="478" y="1426" on="0"/>
        <pt x="605" y="1542" on="0"/>
        <pt x="775" y="1609" on="0"/>
        <pt x="871" y="1609" on="1"/>
        <pt x="932" y="1609" on="0"/>
        <pt x="1035" y="1575" on="0"/>
        <pt x="1110" y="1513" on="0"/>
        <pt x="1151" y="1428" on="0"/>
        <pt x="1151" y="1377" on="1"/>
        <pt x="1151" y="1281" on="0"/>
        <pt x="1032" y="1126" on="0"/>
        <pt x="931" y="1068" on="1"/>
        <pt x="917" y="1098" on="1"/>
        <pt x="956" y="1120" on="0"/>
        <pt x="1018" y="1182" on="0"/>
        <pt x="1061" y="1257" on="0"/>
        <pt x="1085" y="1342" on="0"/>
        <pt x="1085" y="1386" on="1"/>
        <pt x="1085" y="1476" on="0"/>
        <pt x="990" y="1570" on="0"/>
        <pt x="901" y="1570" on="1"/>
        <pt x="823" y="1570" on="0"/>
        <pt x="684" y="1499" on="0"/>
        <pt x="580" y="1378" on="0"/>
        <pt x="519" y="1217" on="0"/>
        <pt x="519" y="1127" on="1"/>
        <pt x="519" y="1049" on="0"/>
        <pt x="565" y="936" on="0"/>
        <pt x="607" y="912" on="1"/>
        <pt x="612" y="914" on="0"/>
        <pt x="634" y="918" on="0"/>
        <pt x="644" y="918" on="1"/>
        <pt x="672" y="918" on="0"/>
        <pt x="672" y="904" on="1"/>
        <pt x="672" y="888" on="0"/>
        <pt x="643" y="888" on="1"/>
        <pt x="633" y="888" on="0"/>
        <pt x="613" y="892" on="0"/>
      </contour>
      <contour>
        <pt x="234" y="-258" on="1"/>
        <pt x="234" y="-239" on="0"/>
        <pt x="249" y="-204" on="0"/>
        <pt x="274" y="-179" on="0"/>
        <pt x="308" y="-164" on="0"/>
        <pt x="327" y="-164" on="1"/>
        <pt x="346" y="-164" on="0"/>
        <pt x="380" y="-179" on="0"/>
        <pt x="405" y="-204" on="0"/>
        <pt x="420" y="-238" on="0"/>
        <pt x="420" y="-257" on="1"/>
        <pt x="420" y="-276" on="0"/>
        <pt x="405" y="-310" on="0"/>
        <pt x="380" y="-335" on="0"/>
        <pt x="345" y="-350" on="0"/>
        <pt x="326" y="-350" on="1"/>
        <pt x="307" y="-350" on="0"/>
        <pt x="273" y="-336" on="0"/>
        <pt x="248" y="-311" on="0"/>
        <pt x="234" y="-277" on="0"/>
      </contour>
    </TTGlyph>
    <TTGlyph name="Egrave" xMin="0" yMin="-37" xMax="1205" yMax="2004">
      <contour>
        <pt x="606" y="894" on="1"/>
        <pt x="503" y="881" on="0"/>
        <pt x="337" y="790" on="0"/>
        <pt x="220" y="645" on="0"/>
        <pt x="157" y="453" on="0"/>
        <pt x="157" y="339" on="1"/>
        <pt x="157" y="173" on="0"/>
        <pt x="295" y="13" on="0"/>
        <pt x="437" y="13" on="1"/>
        <pt x="532" y="13" on="0"/>
        <pt x="723" y="79" on="0"/>
        <pt x="901" y="205" on="0"/>
        <pt x="1062" y="386" on="0"/>
        <pt x="1127" y="501" on="1"/>
        <pt x="1179" y="593" on="1"/>
        <pt x="1205" y="574" on="1"/>
        <pt x="1154" y="482" on="1"/>
        <pt x="1081" y="353" on="0"/>
        <pt x="910" y="159" on="0"/>
        <pt x="721" y="29" on="0"/>
        <pt x="517" y="-37" on="0"/>
        <pt x="412" y="-37" on="1"/>
        <pt x="316" y="-37" on="0"/>
        <pt x="164" y="19" on="0"/>
        <pt x="57" y="124" on="0"/>
        <pt x="0" y="273" on="0"/>
        <pt x="0" y="365" on="1"/>
        <pt x="0" y="476" on="0"/>
        <pt x="82" y="664" on="0"/>
        <pt x="229" y="805" on="0"/>
        <pt x="435" y="894" on="0"/>
        <pt x="559" y="905" on="1"/>
        <pt x="484" y="947" on="0"/>
        <pt x="404" y="1091" on="0"/>
        <pt x="404" y="1182" on="1"/>
        <pt x="404" y="1270" on="0"/>
        <pt x="478" y="1426" on="0"/>
        <pt x="605" y="1542" on="0"/>
        <pt x="775" y="1609" on="0"/>
        <pt x="871" y="1609" on="1"/>
        <pt x="932" y="1609" on="0"/>
        <pt x="1035" y="1575" on="0"/>
        <pt x="1110" y="1513" on="0"/>
        <pt x="1151" y="1428" on="0"/>
        <pt x="1151" y="1377" on="1"/>
        <pt x="1151" y="1281" on="0"/>
        <pt x="1032" y="1126" on="0"/>
        <pt x="931" y="1068" on="1"/>
        <pt x="917" y="1098" on="1"/>
        <pt x="956" y="1120" on="0"/>
        <pt x="1018" y="1182" on="0"/>
        <pt x="1061" y="1257" on="0"/>
        <pt x="1085" y="1342" on="0"/>
        <pt x="1085" y="1386" on="1"/>
        <pt x="1085" y="1476" on="0"/>
        <pt x="990" y="1570" on="0"/>
        <pt x="901" y="1570" on="1"/>
        <pt x="823" y="1570" on="0"/>
        <pt x="684" y="1499" on="0"/>
        <pt x="580" y="1378" on="0"/>
        <pt x="519" y="1217" on="0"/>
        <pt x="519" y="1127" on="1"/>
        <pt x="519" y="1049" on="0"/>
        <pt x="565" y="936" on="0"/>
        <pt x="607" y="912" on="1"/>
        <pt x="612" y="914" on="0"/>
        <pt x="634" y="918" on="0"/>
        <pt x="644" y="918" on="1"/>
        <pt x="672" y="918" on="0"/>
        <pt x="672" y="904" on="1"/>
        <pt x="672" y="888" on="0"/>
        <pt x="643" y="888" on="1"/>
        <pt x="633" y="888" on="0"/>
        <pt x="613" y="892" on="0"/>
      </contour>
      <contour>
        <pt x="1007" y="1659" on="1"/>
        <pt x="985" y="1667" on="0"/>
        <pt x="922" y="1699" on="0"/>
        <pt x="855" y="1744" on="0"/>
        <pt x="788" y="1798" on="0"/>
        <pt x="736" y="1857" on="0"/>
        <pt x="703" y="1918" on="0"/>
        <pt x="703" y="1947" on="1"/>
        <pt x="703" y="1970" on="0"/>
        <pt x="726" y="2004" on="0"/>
        <pt x="750" y="2004" on="1"/>
        <pt x="771" y="2004" on="0"/>
        <pt x="798" y="1977" on="0"/>
        <pt x="825" y="1927" on="0"/>
        <pt x="861" y="1859" on="0"/>
        <pt x="891" y="1818" on="1"/>
        <pt x="926" y="1770" on="0"/>
        <pt x="1004" y="1699" on="0"/>
        <pt x="1036" y="1684" on="1"/>
      </contour>
    </TTGlyph>
    <TTGlyph name="Emacron" xMin="0" yMin="-37" xMax="1313" yMax="1811">
      <contour>
        <pt x="606" y="894" on="1"/>
        <pt x="503" y="881" on="0"/>
        <pt x="337" y="790" on="0"/>
        <pt x="220" y="645" on="0"/>
        <pt x="157" y="453" on="0"/>
        <pt x="157" y="339" on="1"/>
        <pt x="157" y="173" on="0"/>
        <pt x="295" y="13" on="0"/>
        <pt x="437" y="13" on="1"/>
        <pt x="532" y="13" on="0"/>
        <pt x="723" y="79" on="0"/>
        <pt x="901" y="205" on="0"/>
        <pt x="1062" y="386" on="0"/>
        <pt x="1127" y="501" on="1"/>
        <pt x="1179" y="593" on="1"/>
        <pt x="1205" y="574" on="1"/>
        <pt x="1154" y="482" on="1"/>
        <pt x="1081" y="353" on="0"/>
        <pt x="910" y="159" on="0"/>
        <pt x="721" y="29" on="0"/>
        <pt x="517" y="-37" on="0"/>
        <pt x="412" y="-37" on="1"/>
        <pt x="316" y="-37" on="0"/>
        <pt x="164" y="19" on="0"/>
        <pt x="57" y="124" on="0"/>
        <pt x="0" y="273" on="0"/>
        <pt x="0" y="365" on="1"/>
        <pt x="0" y="476" on="0"/>
        <pt x="82" y="664" on="0"/>
        <pt x="229" y="805" on="0"/>
        <pt x="435" y="894" on="0"/>
        <pt x="559" y="905" on="1"/>
        <pt x="484" y="947" on="0"/>
        <pt x="404" y="1091" on="0"/>
        <pt x="404" y="1182" on="1"/>
        <pt x="404" y="1270" on="0"/>
        <pt x="478" y="1426" on="0"/>
        <pt x="605" y="1542" on="0"/>
        <pt x="775" y="1609" on="0"/>
        <pt x="871" y="1609" on="1"/>
        <pt x="932" y="1609" on="0"/>
        <pt x="1035" y="1575" on="0"/>
        <pt x="1110" y="1513" on="0"/>
        <pt x="1151" y="1428" on="0"/>
        <pt x="1151" y="1377" on="1"/>
        <pt x="1151" y="1281" on="0"/>
        <pt x="1032" y="1126" on="0"/>
        <pt x="931" y="1068" on="1"/>
        <pt x="917" y="1098" on="1"/>
        <pt x="956" y="1120" on="0"/>
        <pt x="1018" y="1182" on="0"/>
        <pt x="1061" y="1257" on="0"/>
        <pt x="1085" y="1342" on="0"/>
        <pt x="1085" y="1386" on="1"/>
        <pt x="1085" y="1476" on="0"/>
        <pt x="990" y="1570" on="0"/>
        <pt x="901" y="1570" on="1"/>
        <pt x="823" y="1570" on="0"/>
        <pt x="684" y="1499" on="0"/>
        <pt x="580" y="1378" on="0"/>
        <pt x="519" y="1217" on="0"/>
        <pt x="519" y="1127" on="1"/>
        <pt x="519" y="1049" on="0"/>
        <pt x="565" y="936" on="0"/>
        <pt x="607" y="912" on="1"/>
        <pt x="612" y="914" on="0"/>
        <pt x="634" y="918" on="0"/>
        <pt x="644" y="918" on="1"/>
        <pt x="672" y="918" on="0"/>
        <pt x="672" y="904" on="1"/>
        <pt x="672" y="888" on="0"/>
        <pt x="643" y="888" on="1"/>
        <pt x="633" y="888" on="0"/>
        <pt x="613" y="892" on="0"/>
      </contour>
      <contour>
        <pt x="636" y="1811" on="1"/>
        <pt x="1313" y="1811" on="1"/>
        <pt x="1286" y="1743" on="1"/>
        <pt x="609" y="1743" on="1"/>
      </contour>
    </TTGlyph>
    <TTGlyph name="Eng" xMin="0" yMin="-527" xMax="1369" yMax="1609">
      <contour>
        <pt x="1232" y="1392" on="1"/>
        <pt x="1232" y="1477" on="0"/>
        <pt x="1145" y="1571" on="0"/>
        <pt x="1076" y="1571" on="1"/>
        <pt x="1016" y="1571" on="0"/>
        <pt x="905" y="1505" on="0"/>
        <pt x="792" y="1377" on="0"/>
        <pt x="673" y="1190" on="0"/>
        <pt x="605" y="1069" on="1"/>
        <pt x="555" y="981" on="1"/>
        <pt x="198" y="-1" on="1"/>
        <pt x="50" y="-1" on="1"/>
        <pt x="444" y="1085" on="1"/>
        <pt x="453" y="1107" on="0"/>
        <pt x="478" y="1187" on="0"/>
        <pt x="501" y="1282" on="0"/>
        <pt x="518" y="1385" on="0"/>
        <pt x="518" y="1430" on="1"/>
        <pt x="518" y="1460" on="0"/>
        <pt x="509" y="1512" on="0"/>
        <pt x="487" y="1549" on="0"/>
        <pt x="452" y="1571" on="0"/>
        <pt x="426" y="1571" on="1"/>
        <pt x="382" y="1571" on="0"/>
        <pt x="285" y="1514" on="0"/>
        <pt x="183" y="1396" on="0"/>
        <pt x="78" y="1215" on="0"/>
        <pt x="27" y="1092" on="1"/>
        <pt x="0" y="1110" on="1"/>
        <pt x="55" y="1246" on="0"/>
        <pt x="168" y="1436" on="0"/>
        <pt x="283" y="1555" on="0"/>
        <pt x="398" y="1609" on="0"/>
        <pt x="455" y="1609" on="1"/>
        <pt x="510" y="1609" on="0"/>
        <pt x="583" y="1567" on="0"/>
        <pt x="625" y="1494" on="0"/>
        <pt x="642" y="1397" on="0"/>
        <pt x="642" y="1342" on="1"/>
        <pt x="642" y="1304" on="0"/>
        <pt x="628" y="1205" on="0"/>
        <pt x="613" y="1150" on="1"/>
        <pt x="679" y="1264" on="0"/>
        <pt x="795" y="1436" on="0"/>
        <pt x="909" y="1551" on="0"/>
        <pt x="1028" y="1609" on="0"/>
        <pt x="1098" y="1609" on="1"/>
        <pt x="1153" y="1609" on="0"/>
        <pt x="1252" y="1573" on="0"/>
        <pt x="1326" y="1504" on="0"/>
        <pt x="1369" y="1400" on="0"/>
        <pt x="1369" y="1333" on="1"/>
        <pt x="1369" y="1275" on="0"/>
        <pt x="1340" y="1154" on="0"/>
        <pt x="1315" y="1085" on="1"/>
        <pt x="965" y="121" on="1"/>
        <pt x="905" y="-43" on="0"/>
        <pt x="771" y="-286" on="0"/>
        <pt x="613" y="-447" on="0"/>
        <pt x="428" y="-527" on="0"/>
        <pt x="318" y="-527" on="1"/>
        <pt x="262" y="-527" on="0"/>
        <pt x="178" y="-513" on="0"/>
        <pt x="112" y="-483" on="0"/>
        <pt x="61" y="-437" on="0"/>
        <pt x="39" y="-405" on="1"/>
        <pt x="84" y="-381" on="1"/>
        <pt x="108" y="-407" on="0"/>
        <pt x="153" y="-444" on="0"/>
        <pt x="208" y="-468" on="0"/>
        <pt x="279" y="-479" on="0"/>
        <pt x="328" y="-479" on="1"/>
        <pt x="404" y="-479" on="0"/>
        <pt x="526" y="-430" on="0"/>
        <pt x="630" y="-317" on="0"/>
        <pt x="724" y="-135" on="0"/>
        <pt x="772" y="-1" on="1"/>
        <pt x="1167" y="1085" on="1"/>
        <pt x="1174" y="1105" on="0"/>
        <pt x="1196" y="1174" on="0"/>
        <pt x="1217" y="1257" on="0"/>
        <pt x="1232" y="1349" on="0"/>
      </contour>
    </TTGlyph>
    <TTGlyph name="Eogonek" xMin="0" yMin="-516" xMax="1205" yMax="1609">
      <contour>
        <pt x="606" y="894" on="1"/>
        <pt x="503" y="881" on="0"/>
        <pt x="337" y="790" on="0"/>
        <pt x="220" y="645" on="0"/>
        <pt x="157" y="453" on="0"/>
        <pt x="157" y="339" on="1"/>
        <pt x="157" y="173" on="0"/>
        <pt x="295" y="13" on="0"/>
        <pt x="437" y="13" on="1"/>
        <pt x="532" y="13" on="0"/>
        <pt x="723" y="79" on="0"/>
        <pt x="901" y="205" on="0"/>
        <pt x="1062" y="386" on="0"/>
        <pt x="1127" y="501" on="1"/>
        <pt x="1179" y="593" on="1"/>
        <pt x="1205" y="574" on="1"/>
        <pt x="1154" y="482" on="1"/>
        <pt x="1036" y="274" on="0"/>
        <pt x="743" y="27" on="0"/>
        <pt x="579" y="-16" on="1"/>
        <pt x="414" y="-97" on="0"/>
        <pt x="244" y="-287" on="0"/>
        <pt x="244" y="-382" on="1"/>
        <pt x="244" y="-488" on="0"/>
        <pt x="357" y="-488" on="1"/>
        <pt x="394" y="-488" on="0"/>
        <pt x="477" y="-467" on="0"/>
        <pt x="531" y="-445" on="1"/>
        <pt x="543" y="-464" on="1"/>
        <pt x="483" y="-492" on="0"/>
        <pt x="389" y="-516" on="0"/>
        <pt x="337" y="-516" on="1"/>
        <pt x="155" y="-516" on="0"/>
        <pt x="155" y="-371" on="1"/>
        <pt x="155" y="-280" on="0"/>
        <pt x="291" y="-109" on="0"/>
        <pt x="416" y="-37" on="1"/>
        <pt x="412" y="-37" on="1"/>
        <pt x="316" y="-37" on="0"/>
        <pt x="164" y="19" on="0"/>
        <pt x="57" y="124" on="0"/>
        <pt x="0" y="273" on="0"/>
        <pt x="0" y="365" on="1"/>
        <pt x="0" y="476" on="0"/>
        <pt x="82" y="664" on="0"/>
        <pt x="229" y="805" on="0"/>
        <pt x="435" y="894" on="0"/>
        <pt x="559" y="905" on="1"/>
        <pt x="484" y="947" on="0"/>
        <pt x="404" y="1091" on="0"/>
        <pt x="404" y="1182" on="1"/>
        <pt x="404" y="1270" on="0"/>
        <pt x="478" y="1426" on="0"/>
        <pt x="605" y="1542" on="0"/>
        <pt x="775" y="1609" on="0"/>
        <pt x="871" y="1609" on="1"/>
        <pt x="932" y="1609" on="0"/>
        <pt x="1035" y="1575" on="0"/>
        <pt x="1110" y="1513" on="0"/>
        <pt x="1151" y="1428" on="0"/>
        <pt x="1151" y="1377" on="1"/>
        <pt x="1151" y="1281" on="0"/>
        <pt x="1032" y="1126" on="0"/>
        <pt x="931" y="1068" on="1"/>
        <pt x="917" y="1098" on="1"/>
        <pt x="956" y="1120" on="0"/>
        <pt x="1018" y="1182" on="0"/>
        <pt x="1061" y="1257" on="0"/>
        <pt x="1085" y="1342" on="0"/>
        <pt x="1085" y="1386" on="1"/>
        <pt x="1085" y="1476" on="0"/>
        <pt x="990" y="1570" on="0"/>
        <pt x="901" y="1570" on="1"/>
        <pt x="823" y="1570" on="0"/>
        <pt x="684" y="1499" on="0"/>
        <pt x="580" y="1378" on="0"/>
        <pt x="519" y="1217" on="0"/>
        <pt x="519" y="1127" on="1"/>
        <pt x="519" y="1049" on="0"/>
        <pt x="565" y="936" on="0"/>
        <pt x="607" y="912" on="1"/>
        <pt x="612" y="914" on="0"/>
        <pt x="634" y="918" on="0"/>
        <pt x="644" y="918" on="1"/>
        <pt x="672" y="918" on="0"/>
        <pt x="672" y="904" on="1"/>
        <pt x="672" y="888" on="0"/>
        <pt x="643" y="888" on="1"/>
        <pt x="633" y="888" on="0"/>
        <pt x="613" y="892" on="0"/>
      </contour>
    </TTGlyph>
    <TTGlyph name="Eth" xMin="0" yMin="-40" xMax="1906" yMax="1609">
      <contour>
        <pt x="693" y="787" on="1"/>
        <pt x="858" y="787" on="1"/>
        <pt x="892" y="870" on="0"/>
        <pt x="941" y="992" on="0"/>
        <pt x="978" y="1080" on="0"/>
        <pt x="1004" y="1139" on="0"/>
        <pt x="1024" y="1181" on="0"/>
        <pt x="1041" y="1210" on="0"/>
        <pt x="1050" y="1224" on="1"/>
        <pt x="1072" y="1258" on="0"/>
        <pt x="1143" y="1346" on="0"/>
        <pt x="1233" y="1435" on="0"/>
        <pt x="1340" y="1515" on="0"/>
        <pt x="1398" y="1540" on="1"/>
        <pt x="1338" y="1555" on="0"/>
        <pt x="1202" y="1571" on="0"/>
        <pt x="1124" y="1571" on="1"/>
        <pt x="1018" y="1571" on="0"/>
        <pt x="822" y="1541" on="0"/>
        <pt x="654" y="1479" on="0"/>
        <pt x="517" y="1382" on="0"/>
        <pt x="419" y="1246" on="0"/>
        <pt x="366" y="1070" on="0"/>
        <pt x="366" y="961" on="1"/>
        <pt x="366" y="927" on="0"/>
        <pt x="373" y="853" on="0"/>
        <pt x="397" y="782" on="0"/>
        <pt x="441" y="718" on="0"/>
        <pt x="478" y="695" on="1"/>
        <pt x="465" y="674" on="1"/>
        <pt x="375" y="717" on="0"/>
        <pt x="289" y="862" on="0"/>
        <pt x="289" y="979" on="1"/>
        <pt x="289" y="1121" on="0"/>
        <pt x="413" y="1353" on="0"/>
        <pt x="633" y="1518" on="0"/>
        <pt x="938" y="1609" on="0"/>
        <pt x="1119" y="1609" on="1"/>
        <pt x="1307" y="1609" on="0"/>
        <pt x="1600" y="1512" on="0"/>
        <pt x="1801" y="1333" on="0"/>
        <pt x="1906" y="1083" on="0"/>
        <pt x="1906" y="930" on="1"/>
        <pt x="1906" y="835" on="0"/>
        <pt x="1866" y="651" on="0"/>
        <pt x="1795" y="481" on="0"/>
        <pt x="1696" y="328" on="0"/>
        <pt x="1637" y="264" on="1"/>
        <pt x="1578" y="200" on="0"/>
        <pt x="1434" y="89" on="0"/>
        <pt x="1261" y="7" on="0"/>
        <pt x="1061" y="-40" on="0"/>
        <pt x="946" y="-40" on="1"/>
        <pt x="876" y="-40" on="0"/>
        <pt x="750" y="-24" on="0"/>
        <pt x="641" y="1" on="0"/>
        <pt x="552" y="30" on="0"/>
        <pt x="519" y="43" on="1"/>
        <pt x="446" y="1" on="0"/>
        <pt x="289" y="-39" on="0"/>
        <pt x="201" y="-39" on="1"/>
        <pt x="139" y="-39" on="0"/>
        <pt x="61" y="-22" on="0"/>
        <pt x="17" y="7" on="0"/>
        <pt x="0" y="43" on="0"/>
        <pt x="0" y="61" on="1"/>
        <pt x="0" y="97" on="0"/>
        <pt x="47" y="139" on="0"/>
        <pt x="119" y="162" on="0"/>
        <pt x="204" y="169" on="0"/>
        <pt x="242" y="169" on="1"/>
        <pt x="324" y="169" on="0"/>
        <pt x="465" y="148" on="0"/>
        <pt x="530" y="128" on="1"/>
        <pt x="561" y="163" on="0"/>
        <pt x="625" y="260" on="0"/>
        <pt x="695" y="396" on="0"/>
        <pt x="774" y="576" on="0"/>
        <pt x="821" y="694" on="1"/>
        <pt x="656" y="694" on="1"/>
      </contour>
      <contour>
        <pt x="1778" y="996" on="1"/>
        <pt x="1778" y="1210" on="0"/>
        <pt x="1609" y="1473" on="0"/>
        <pt x="1435" y="1529" on="1"/>
        <pt x="1408" y="1515" on="0"/>
        <pt x="1356" y="1479" on="0"/>
        <pt x="1310" y="1437" on="0"/>
        <pt x="1271" y="1391" on="0"/>
        <pt x="1256" y="1369" on="1"/>
        <pt x="1244" y="1352" on="0"/>
        <pt x="1222" y="1310" on="0"/>
        <pt x="1195" y="1249" on="0"/>
        <pt x="1162" y="1165" on="0"/>
        <pt x="1117" y="1047" on="0"/>
        <pt x="1059" y="890" on="0"/>
        <pt x="1021" y="787" on="1"/>
        <pt x="1388" y="787" on="1"/>
        <pt x="1352" y="694" on="1"/>
        <pt x="986" y="694" on="1"/>
        <pt x="900" y="479" on="0"/>
        <pt x="711" y="188" on="0"/>
        <pt x="605" y="102" on="1"/>
        <pt x="643" y="88" on="0"/>
        <pt x="733" y="55" on="0"/>
        <pt x="837" y="27" on="0"/>
        <pt x="952" y="9" on="0"/>
        <pt x="1015" y="9" on="1"/>
        <pt x="1114" y="9" on="0"/>
        <pt x="1278" y="56" on="0"/>
        <pt x="1413" y="138" on="0"/>
        <pt x="1522" y="247" on="0"/>
        <pt x="1566" y="309" on="1"/>
        <pt x="1614" y="378" on="0"/>
        <pt x="1692" y="541" on="0"/>
        <pt x="1748" y="719" on="0"/>
        <pt x="1778" y="904" on="0"/>
      </contour>
      <contour>
        <pt x="208" y="-3" on="1"/>
        <pt x="283" y="-3" on="0"/>
        <pt x="405" y="24" on="0"/>
        <pt x="461" y="65" on="1"/>
        <pt x="441" y="71" on="0"/>
        <pt x="369" y="92" on="0"/>
        <pt x="284" y="111" on="0"/>
        <pt x="195" y="125" on="0"/>
        <pt x="156" y="125" on="1"/>
        <pt x="105" y="125" on="0"/>
        <pt x="40" y="95" on="0"/>
        <pt x="40" y="60" on="1"/>
        <pt x="40" y="47" on="0"/>
        <pt x="53" y="24" on="0"/>
        <pt x="90" y="7" on="0"/>
        <pt x="155" y="-3" on="0"/>
      </contour>
    </TTGlyph>
    <TTGlyph name="Etilde" xMin="0" yMin="-37" xMax="1385" yMax="1986">
      <contour>
        <pt x="606" y="894" on="1"/>
        <pt x="503" y="881" on="0"/>
        <pt x="337" y="790" on="0"/>
        <pt x="220" y="645" on="0"/>
        <pt x="157" y="453" on="0"/>
        <pt x="157" y="339" on="1"/>
        <pt x="157" y="173" on="0"/>
        <pt x="295" y="13" on="0"/>
        <pt x="437" y="13" on="1"/>
        <pt x="532" y="13" on="0"/>
        <pt x="723" y="79" on="0"/>
        <pt x="901" y="205" on="0"/>
        <pt x="1062" y="386" on="0"/>
        <pt x="1127" y="501" on="1"/>
        <pt x="1179" y="593" on="1"/>
        <pt x="1205" y="574" on="1"/>
        <pt x="1154" y="482" on="1"/>
        <pt x="1081" y="353" on="0"/>
        <pt x="910" y="159" on="0"/>
        <pt x="721" y="29" on="0"/>
        <pt x="517" y="-37" on="0"/>
        <pt x="412" y="-37" on="1"/>
        <pt x="316" y="-37" on="0"/>
        <pt x="164" y="19" on="0"/>
        <pt x="57" y="124" on="0"/>
        <pt x="0" y="273" on="0"/>
        <pt x="0" y="365" on="1"/>
        <pt x="0" y="476" on="0"/>
        <pt x="82" y="664" on="0"/>
        <pt x="229" y="805" on="0"/>
        <pt x="435" y="894" on="0"/>
        <pt x="559" y="905" on="1"/>
        <pt x="484" y="947" on="0"/>
        <pt x="404" y="1091" on="0"/>
        <pt x="404" y="1182" on="1"/>
        <pt x="404" y="1270" on="0"/>
        <pt x="478" y="1426" on="0"/>
        <pt x="605" y="1542" on="0"/>
        <pt x="775" y="1609" on="0"/>
        <pt x="871" y="1609" on="1"/>
        <pt x="932" y="1609" on="0"/>
        <pt x="1035" y="1575" on="0"/>
        <pt x="1110" y="1513" on="0"/>
        <pt x="1151" y="1428" on="0"/>
        <pt x="1151" y="1377" on="1"/>
        <pt x="1151" y="1281" on="0"/>
        <pt x="1032" y="1126" on="0"/>
        <pt x="931" y="1068" on="1"/>
        <pt x="917" y="1098" on="1"/>
        <pt x="956" y="1120" on="0"/>
        <pt x="1018" y="1182" on="0"/>
        <pt x="1061" y="1257" on="0"/>
        <pt x="1085" y="1342" on="0"/>
        <pt x="1085" y="1386" on="1"/>
        <pt x="1085" y="1476" on="0"/>
        <pt x="990" y="1570" on="0"/>
        <pt x="901" y="1570" on="1"/>
        <pt x="823" y="1570" on="0"/>
        <pt x="684" y="1499" on="0"/>
        <pt x="580" y="1378" on="0"/>
        <pt x="519" y="1217" on="0"/>
        <pt x="519" y="1127" on="1"/>
        <pt x="519" y="1049" on="0"/>
        <pt x="565" y="936" on="0"/>
        <pt x="607" y="912" on="1"/>
        <pt x="612" y="914" on="0"/>
        <pt x="634" y="918" on="0"/>
        <pt x="644" y="918" on="1"/>
        <pt x="672" y="918" on="0"/>
        <pt x="672" y="904" on="1"/>
        <pt x="672" y="888" on="0"/>
        <pt x="643" y="888" on="1"/>
        <pt x="633" y="888" on="0"/>
        <pt x="613" y="892" on="0"/>
      </contour>
      <contour>
        <pt x="803" y="1986" on="1"/>
        <pt x="847" y="1986" on="0"/>
        <pt x="915" y="1957" on="0"/>
        <pt x="972" y="1913" on="0"/>
        <pt x="1021" y="1861" on="0"/>
        <pt x="1071" y="1817" on="0"/>
        <pt x="1125" y="1788" on="0"/>
        <pt x="1159" y="1788" on="1"/>
        <pt x="1197" y="1788" on="0"/>
        <pt x="1259" y="1825" on="0"/>
        <pt x="1306" y="1879" on="0"/>
        <pt x="1336" y="1941" on="0"/>
        <pt x="1342" y="1965" on="1"/>
        <pt x="1385" y="1965" on="1"/>
        <pt x="1370" y="1912" on="0"/>
        <pt x="1329" y="1812" on="0"/>
        <pt x="1267" y="1732" on="0"/>
        <pt x="1181" y="1684" on="0"/>
        <pt x="1121" y="1684" on="1"/>
        <pt x="1074" y="1684" on="0"/>
        <pt x="1007" y="1713" on="0"/>
        <pt x="954" y="1756" on="0"/>
        <pt x="910" y="1807" on="0"/>
        <pt x="864" y="1850" on="0"/>
        <pt x="809" y="1879" on="0"/>
        <pt x="772" y="1879" on="1"/>
        <pt x="724" y="1879" on="0"/>
        <pt x="659" y="1834" on="0"/>
        <pt x="617" y="1774" on="0"/>
        <pt x="595" y="1713" on="0"/>
        <pt x="590" y="1698" on="1"/>
        <pt x="546" y="1698" on="1"/>
        <pt x="555" y="1724" on="0"/>
        <pt x="576" y="1788" on="0"/>
        <pt x="604" y="1852" on="0"/>
        <pt x="643" y="1912" on="0"/>
        <pt x="694" y="1958" on="0"/>
        <pt x="760" y="1986" on="0"/>
      </contour>
    </TTGlyph>
    <TTGlyph name="Euro" xMin="42" yMin="-39" xMax="1420" yMax="1609">
      <contour>
        <pt x="182" y="1003" on="1"/>
        <pt x="313" y="1003" on="1"/>
        <pt x="375" y="1138" on="0"/>
        <pt x="548" y="1361" on="0"/>
        <pt x="753" y="1521" on="0"/>
        <pt x="980" y="1609" on="0"/>
        <pt x="1097" y="1609" on="1"/>
        <pt x="1228" y="1609" on="0"/>
        <pt x="1385" y="1494" on="0"/>
        <pt x="1420" y="1384" on="1"/>
        <pt x="1364" y="1384" on="1"/>
        <pt x="1356" y="1412" on="0"/>
        <pt x="1320" y="1478" on="0"/>
        <pt x="1265" y="1534" on="0"/>
        <pt x="1189" y="1571" on="0"/>
        <pt x="1141" y="1571" on="1"/>
        <pt x="1054" y="1571" on="0"/>
        <pt x="876" y="1488" on="0"/>
        <pt x="707" y="1338" on="0"/>
        <pt x="555" y="1129" on="0"/>
        <pt x="494" y="1003" on="1"/>
        <pt x="1029" y="1003" on="1"/>
        <pt x="996" y="910" on="1"/>
        <pt x="454" y="910" on="1"/>
        <pt x="435" y="862" on="0"/>
        <pt x="402" y="763" on="0"/>
        <pt x="388" y="713" on="1"/>
        <pt x="920" y="713" on="1"/>
        <pt x="888" y="620" on="1"/>
        <pt x="366" y="620" on="1"/>
        <pt x="339" y="489" on="0"/>
        <pt x="339" y="374" on="1"/>
        <pt x="339" y="196" on="0"/>
        <pt x="472" y="10" on="0"/>
        <pt x="598" y="10" on="1"/>
        <pt x="626" y="10" on="0"/>
        <pt x="689" y="16" on="0"/>
        <pt x="756" y="31" on="0"/>
        <pt x="827" y="59" on="0"/>
        <pt x="863" y="81" on="1"/>
        <pt x="945" y="85" on="1"/>
        <pt x="858" y="25" on="0"/>
        <pt x="675" y="-39" on="0"/>
        <pt x="583" y="-39" on="1"/>
        <pt x="490" y="-39" on="0"/>
        <pt x="344" y="29" on="0"/>
        <pt x="242" y="158" on="0"/>
        <pt x="189" y="345" on="0"/>
        <pt x="189" y="463" on="1"/>
        <pt x="189" y="501" on="0"/>
        <pt x="195" y="580" on="0"/>
        <pt x="200" y="620" on="1"/>
        <pt x="42" y="620" on="1"/>
        <pt x="74" y="713" on="1"/>
        <pt x="216" y="713" on="1"/>
        <pt x="226" y="752" on="0"/>
        <pt x="241" y="811" on="0"/>
        <pt x="255" y="857" on="0"/>
        <pt x="267" y="893" on="0"/>
        <pt x="274" y="910" on="1"/>
        <pt x="150" y="910" on="1"/>
      </contour>
    </TTGlyph>
    <TTGlyph name="F" xMin="0" yMin="-39" xMax="1869" yMax="1632">
      <contour>
        <pt x="1142" y="1221" on="1"/>
        <pt x="1175" y="1282" on="0"/>
        <pt x="1272" y="1395" on="0"/>
        <pt x="1330" y="1444" on="1"/>
        <pt x="1242" y="1452" on="0"/>
        <pt x="1067" y="1483" on="0"/>
        <pt x="899" y="1513" on="0"/>
        <pt x="739" y="1535" on="0"/>
        <pt x="666" y="1535" on="1"/>
        <pt x="573" y="1535" on="0"/>
        <pt x="446" y="1497" on="0"/>
        <pt x="369" y="1435" on="0"/>
        <pt x="335" y="1358" on="0"/>
        <pt x="335" y="1318" on="1"/>
        <pt x="335" y="1280" on="0"/>
        <pt x="363" y="1211" on="0"/>
        <pt x="417" y="1158" on="0"/>
        <pt x="497" y="1126" on="0"/>
        <pt x="550" y="1126" on="1"/>
        <pt x="580" y="1126" on="0"/>
        <pt x="648" y="1136" on="0"/>
        <pt x="717" y="1155" on="0"/>
        <pt x="783" y="1181" on="0"/>
        <pt x="810" y="1197" on="1"/>
        <pt x="830" y="1173" on="1"/>
        <pt x="797" y="1154" on="0"/>
        <pt x="725" y="1125" on="0"/>
        <pt x="652" y="1104" on="0"/>
        <pt x="579" y="1093" on="0"/>
        <pt x="546" y="1093" on="1"/>
        <pt x="486" y="1093" on="0"/>
        <pt x="393" y="1128" on="0"/>
        <pt x="328" y="1189" on="0"/>
        <pt x="294" y="1271" on="0"/>
        <pt x="294" y="1318" on="1"/>
        <pt x="294" y="1381" on="0"/>
        <pt x="354" y="1488" on="0"/>
        <pt x="471" y="1566" on="0"/>
        <pt x="646" y="1610" on="0"/>
        <pt x="760" y="1610" on="1"/>
        <pt x="845" y="1610" on="0"/>
        <pt x="1016" y="1588" on="0"/>
        <pt x="1190" y="1561" on="0"/>
        <pt x="1368" y="1537" on="0"/>
        <pt x="1461" y="1534" on="1"/>
        <pt x="1541" y="1579" on="0"/>
        <pt x="1710" y="1632" on="0"/>
        <pt x="1795" y="1632" on="1"/>
        <pt x="1838" y="1632" on="0"/>
        <pt x="1869" y="1616" on="0"/>
        <pt x="1869" y="1594" on="1"/>
        <pt x="1869" y="1561" on="0"/>
        <pt x="1807" y="1504" on="0"/>
        <pt x="1697" y="1462" on="0"/>
        <pt x="1549" y="1438" on="0"/>
        <pt x="1462" y="1438" on="1"/>
        <pt x="1448" y="1438" on="0"/>
        <pt x="1419" y="1438" on="0"/>
        <pt x="1405" y="1439" on="1"/>
        <pt x="1377" y="1411" on="0"/>
        <pt x="1358" y="1382" on="1"/>
        <pt x="1349" y="1369" on="0"/>
        <pt x="1332" y="1336" on="0"/>
        <pt x="1309" y="1284" on="0"/>
        <pt x="1279" y="1209" on="0"/>
        <pt x="1238" y="1097" on="0"/>
        <pt x="1181" y="944" on="0"/>
        <pt x="1144" y="841" on="1"/>
        <pt x="1436" y="841" on="1"/>
        <pt x="1436" y="801" on="1"/>
        <pt x="1130" y="801" on="1"/>
        <pt x="1052" y="581" on="0"/>
        <pt x="874" y="263" on="0"/>
        <pt x="676" y="58" on="0"/>
        <pt x="462" y="-39" on="0"/>
        <pt x="348" y="-39" on="1"/>
        <pt x="274" y="-39" on="0"/>
        <pt x="147" y="-1" on="0"/>
        <pt x="54" y="74" on="0"/>
        <pt x="0" y="184" on="0"/>
        <pt x="0" y="256" on="1"/>
        <pt x="0" y="304" on="0"/>
        <pt x="23" y="392" on="0"/>
        <pt x="64" y="459" on="0"/>
        <pt x="119" y="500" on="0"/>
        <pt x="151" y="500" on="1"/>
        <pt x="172" y="500" on="0"/>
        <pt x="202" y="479" on="0"/>
        <pt x="202" y="451" on="1"/>
        <pt x="202" y="428" on="0"/>
        <pt x="179" y="401" on="0"/>
        <pt x="145" y="382" on="0"/>
        <pt x="104" y="363" on="0"/>
        <pt x="70" y="332" on="0"/>
        <pt x="47" y="282" on="0"/>
        <pt x="47" y="241" on="1"/>
        <pt x="47" y="184" on="0"/>
        <pt x="89" y="94" on="0"/>
        <pt x="167" y="31" on="0"/>
        <pt x="280" y="-3" on="0"/>
        <pt x="351" y="-3" on="1"/>
        <pt x="404" y="-3" on="0"/>
        <pt x="498" y="19" on="0"/>
        <pt x="586" y="74" on="0"/>
        <pt x="670" y="167" on="0"/>
        <pt x="757" y="310" on="0"/>
        <pt x="850" y="508" on="0"/>
        <pt x="903" y="640" on="1"/>
        <pt x="921" y="685" on="0"/>
        <pt x="952" y="765" on="0"/>
        <pt x="966" y="801" on="1"/>
        <pt x="696" y="801" on="1"/>
        <pt x="696" y="841" on="1"/>
        <pt x="981" y="841" on="1"/>
        <pt x="1021" y="941" on="0"/>
        <pt x="1072" y="1069" on="0"/>
        <pt x="1107" y="1151" on="0"/>
        <pt x="1130" y="1200" on="0"/>
      </contour>
      <contour>
        <pt x="1790" y="1604" on="1"/>
        <pt x="1727" y="1604" on="0"/>
        <pt x="1597" y="1566" on="0"/>
        <pt x="1537" y="1534" on="1"/>
        <pt x="1594" y="1535" on="0"/>
        <pt x="1701" y="1547" on="0"/>
        <pt x="1784" y="1563" on="0"/>
        <pt x="1835" y="1582" on="0"/>
        <pt x="1835" y="1592" on="1"/>
        <pt x="1835" y="1604" on="0"/>
      </contour>
    </TTGlyph>
    <TTGlyph name="G" xMin="0" yMin="-526" xMax="1770" yMax="1609">
      <contour>
        <pt x="1285" y="1099" on="1"/>
        <pt x="1302" y="1116" on="0"/>
        <pt x="1337" y="1181" on="0"/>
        <pt x="1366" y="1262" on="0"/>
        <pt x="1384" y="1351" on="0"/>
        <pt x="1384" y="1392" on="1"/>
        <pt x="1384" y="1428" on="0"/>
        <pt x="1364" y="1493" on="0"/>
        <pt x="1316" y="1542" on="0"/>
        <pt x="1237" y="1571" on="0"/>
        <pt x="1179" y="1571" on="1"/>
        <pt x="1071" y="1571" on="0"/>
        <pt x="861" y="1484" on="0"/>
        <pt x="674" y="1325" on="0"/>
        <pt x="518" y="1099" on="0"/>
        <pt x="465" y="960" on="1"/>
        <pt x="425" y="856" on="0"/>
        <pt x="382" y="647" on="0"/>
        <pt x="382" y="554" on="1"/>
        <pt x="382" y="414" on="0"/>
        <pt x="483" y="283" on="0"/>
        <pt x="589" y="283" on="1"/>
        <pt x="731" y="283" on="0"/>
        <pt x="1012" y="526" on="0"/>
        <pt x="1156" y="779" on="1"/>
        <pt x="1164" y="792" on="1"/>
        <pt x="1296" y="792" on="1"/>
        <pt x="1231" y="609" on="1"/>
        <pt x="1174" y="446" on="0"/>
        <pt x="1056" y="172" on="0"/>
        <pt x="994" y="57" on="1"/>
        <pt x="1082" y="66" on="0"/>
        <pt x="1225" y="90" on="0"/>
        <pt x="1347" y="129" on="0"/>
        <pt x="1451" y="189" on="0"/>
        <pt x="1548" y="282" on="0"/>
        <pt x="1641" y="412" on="0"/>
        <pt x="1692" y="501" on="1"/>
        <pt x="1743" y="593" on="1"/>
        <pt x="1770" y="574" on="1"/>
        <pt x="1718" y="482" on="1"/>
        <pt x="1668" y="393" on="0"/>
        <pt x="1574" y="261" on="0"/>
        <pt x="1475" y="164" on="0"/>
        <pt x="1366" y="98" on="0"/>
        <pt x="1233" y="54" on="0"/>
        <pt x="1072" y="26" on="0"/>
        <pt x="971" y="16" on="1"/>
        <pt x="818" y="-259" on="0"/>
        <pt x="473" y="-526" on="0"/>
        <pt x="270" y="-526" on="1"/>
        <pt x="133" y="-526" on="0"/>
        <pt x="0" y="-414" on="0"/>
        <pt x="0" y="-320" on="1"/>
        <pt x="0" y="-253" on="0"/>
        <pt x="68" y="-152" on="0"/>
        <pt x="188" y="-78" on="0"/>
        <pt x="349" y="-27" on="0"/>
        <pt x="534" y="8" on="0"/>
        <pt x="735" y="32" on="0"/>
        <pt x="834" y="42" on="1"/>
        <pt x="876" y="129" on="0"/>
        <pt x="960" y="334" on="0"/>
        <pt x="1008" y="458" on="1"/>
        <pt x="1034" y="526" on="1"/>
        <pt x="994" y="473" on="0"/>
        <pt x="895" y="368" on="0"/>
        <pt x="778" y="285" on="0"/>
        <pt x="644" y="234" on="0"/>
        <pt x="569" y="234" on="1"/>
        <pt x="493" y="234" on="0"/>
        <pt x="368" y="291" on="0"/>
        <pt x="280" y="398" on="0"/>
        <pt x="231" y="549" on="0"/>
        <pt x="231" y="642" on="1"/>
        <pt x="231" y="709" on="0"/>
        <pt x="257" y="861" on="0"/>
        <pt x="283" y="940" on="1"/>
        <pt x="334" y="1089" on="0"/>
        <pt x="511" y="1335" on="0"/>
        <pt x="739" y="1512" on="0"/>
        <pt x="1005" y="1609" on="0"/>
        <pt x="1145" y="1609" on="1"/>
        <pt x="1227" y="1609" on="0"/>
        <pt x="1342" y="1574" on="0"/>
        <pt x="1414" y="1513" on="0"/>
        <pt x="1447" y="1432" on="0"/>
        <pt x="1447" y="1386" on="1"/>
        <pt x="1447" y="1349" on="0"/>
        <pt x="1428" y="1272" on="0"/>
        <pt x="1395" y="1195" on="0"/>
        <pt x="1347" y="1121" on="0"/>
        <pt x="1319" y="1088" on="1"/>
      </contour>
      <contour>
        <pt x="274" y="-477" on="1"/>
        <pt x="356" y="-477" on="0"/>
        <pt x="498" y="-427" on="0"/>
        <pt x="627" y="-313" on="0"/>
        <pt x="751" y="-130" on="0"/>
        <pt x="816" y="2" on="1"/>
        <pt x="657" y="-12" on="0"/>
        <pt x="378" y="-51" on="0"/>
        <pt x="170" y="-121" on="0"/>
        <pt x="50" y="-231" on="0"/>
        <pt x="50" y="-315" on="1"/>
        <pt x="50" y="-394" on="0"/>
        <pt x="162" y="-477" on="0"/>
      </contour>
    </TTGlyph>
    <TTGlyph name="Gbreve" xMin="0" yMin="-526" xMax="1770" yMax="1918">
      <contour>
        <pt x="1285" y="1099" on="1"/>
        <pt x="1302" y="1116" on="0"/>
        <pt x="1337" y="1181" on="0"/>
        <pt x="1366" y="1262" on="0"/>
        <pt x="1384" y="1351" on="0"/>
        <pt x="1384" y="1392" on="1"/>
        <pt x="1384" y="1428" on="0"/>
        <pt x="1364" y="1493" on="0"/>
        <pt x="1316" y="1542" on="0"/>
        <pt x="1237" y="1571" on="0"/>
        <pt x="1179" y="1571" on="1"/>
        <pt x="1071" y="1571" on="0"/>
        <pt x="861" y="1484" on="0"/>
        <pt x="674" y="1325" on="0"/>
        <pt x="518" y="1099" on="0"/>
        <pt x="465" y="960" on="1"/>
        <pt x="425" y="856" on="0"/>
        <pt x="382" y="647" on="0"/>
        <pt x="382" y="554" on="1"/>
        <pt x="382" y="414" on="0"/>
        <pt x="483" y="283" on="0"/>
        <pt x="589" y="283" on="1"/>
        <pt x="731" y="283" on="0"/>
        <pt x="1012" y="526" on="0"/>
        <pt x="1156" y="779" on="1"/>
        <pt x="1164" y="792" on="1"/>
        <pt x="1296" y="792" on="1"/>
        <pt x="1231" y="609" on="1"/>
        <pt x="1174" y="446" on="0"/>
        <pt x="1056" y="172" on="0"/>
        <pt x="994" y="57" on="1"/>
        <pt x="1082" y="66" on="0"/>
        <pt x="1225" y="90" on="0"/>
        <pt x="1347" y="129" on="0"/>
        <pt x="1451" y="189" on="0"/>
        <pt x="1548" y="282" on="0"/>
        <pt x="1641" y="412" on="0"/>
        <pt x="1692" y="501" on="1"/>
        <pt x="1743" y="593" on="1"/>
        <pt x="1770" y="574" on="1"/>
        <pt x="1718" y="482" on="1"/>
        <pt x="1668" y="393" on="0"/>
        <pt x="1574" y="261" on="0"/>
        <pt x="1475" y="164" on="0"/>
        <pt x="1366" y="98" on="0"/>
        <pt x="1233" y="54" on="0"/>
        <pt x="1072" y="26" on="0"/>
        <pt x="971" y="16" on="1"/>
        <pt x="818" y="-259" on="0"/>
        <pt x="473" y="-526" on="0"/>
        <pt x="270" y="-526" on="1"/>
        <pt x="133" y="-526" on="0"/>
        <pt x="0" y="-414" on="0"/>
        <pt x="0" y="-320" on="1"/>
        <pt x="0" y="-253" on="0"/>
        <pt x="68" y="-152" on="0"/>
        <pt x="188" y="-78" on="0"/>
        <pt x="349" y="-27" on="0"/>
        <pt x="534" y="8" on="0"/>
        <pt x="735" y="32" on="0"/>
        <pt x="834" y="42" on="1"/>
        <pt x="876" y="129" on="0"/>
        <pt x="960" y="334" on="0"/>
        <pt x="1008" y="458" on="1"/>
        <pt x="1034" y="526" on="1"/>
        <pt x="994" y="473" on="0"/>
        <pt x="895" y="368" on="0"/>
        <pt x="778" y="285" on="0"/>
        <pt x="644" y="234" on="0"/>
        <pt x="569" y="234" on="1"/>
        <pt x="493" y="234" on="0"/>
        <pt x="368" y="291" on="0"/>
        <pt x="280" y="398" on="0"/>
        <pt x="231" y="549" on="0"/>
        <pt x="231" y="642" on="1"/>
        <pt x="231" y="709" on="0"/>
        <pt x="257" y="861" on="0"/>
        <pt x="283" y="940" on="1"/>
        <pt x="334" y="1089" on="0"/>
        <pt x="511" y="1335" on="0"/>
        <pt x="739" y="1512" on="0"/>
        <pt x="1005" y="1609" on="0"/>
        <pt x="1145" y="1609" on="1"/>
        <pt x="1227" y="1609" on="0"/>
        <pt x="1342" y="1574" on="0"/>
        <pt x="1414" y="1513" on="0"/>
        <pt x="1447" y="1432" on="0"/>
        <pt x="1447" y="1386" on="1"/>
        <pt x="1447" y="1349" on="0"/>
        <pt x="1428" y="1272" on="0"/>
        <pt x="1395" y="1195" on="0"/>
        <pt x="1347" y="1121" on="0"/>
        <pt x="1319" y="1088" on="1"/>
      </contour>
      <contour>
        <pt x="274" y="-477" on="1"/>
        <pt x="356" y="-477" on="0"/>
        <pt x="498" y="-427" on="0"/>
        <pt x="627" y="-313" on="0"/>
        <pt x="751" y="-130" on="0"/>
        <pt x="816" y="2" on="1"/>
        <pt x="657" y="-12" on="0"/>
        <pt x="378" y="-51" on="0"/>
        <pt x="170" y="-121" on="0"/>
        <pt x="50" y="-231" on="0"/>
        <pt x="50" y="-315" on="1"/>
        <pt x="50" y="-394" on="0"/>
        <pt x="162" y="-477" on="0"/>
      </contour>
      <contour>
        <pt x="1446" y="1918" on="1"/>
        <pt x="1444" y="1887" on="0"/>
        <pt x="1414" y="1820" on="0"/>
        <pt x="1359" y="1765" on="0"/>
        <pt x="1279" y="1730" on="0"/>
        <pt x="1228" y="1730" on="1"/>
        <pt x="1177" y="1730" on="0"/>
        <pt x="1099" y="1765" on="0"/>
        <pt x="1045" y="1820" on="0"/>
        <pt x="1017" y="1886" on="0"/>
        <pt x="1016" y="1918" on="1"/>
        <pt x="1058" y="1918" on="1"/>
        <pt x="1059" y="1895" on="0"/>
        <pt x="1082" y="1843" on="0"/>
        <pt x="1125" y="1799" on="0"/>
        <pt x="1188" y="1770" on="0"/>
        <pt x="1229" y="1770" on="1"/>
        <pt x="1270" y="1770" on="0"/>
        <pt x="1333" y="1799" on="0"/>
        <pt x="1376" y="1844" on="0"/>
        <pt x="1400" y="1895" on="0"/>
        <pt x="1402" y="1918" on="1"/>
      </contour>
    </TTGlyph>
    <TTGlyph name="Gcircumflex" xMin="0" yMin="-526" xMax="1770" yMax="2004">
      <contour>
        <pt x="1285" y="1099" on="1"/>
        <pt x="1302" y="1116" on="0"/>
        <pt x="1337" y="1181" on="0"/>
        <pt x="1366" y="1262" on="0"/>
        <pt x="1384" y="1351" on="0"/>
        <pt x="1384" y="1392" on="1"/>
        <pt x="1384" y="1428" on="0"/>
        <pt x="1364" y="1493" on="0"/>
        <pt x="1316" y="1542" on="0"/>
        <pt x="1237" y="1571" on="0"/>
        <pt x="1179" y="1571" on="1"/>
        <pt x="1071" y="1571" on="0"/>
        <pt x="861" y="1484" on="0"/>
        <pt x="674" y="1325" on="0"/>
        <pt x="518" y="1099" on="0"/>
        <pt x="465" y="960" on="1"/>
        <pt x="425" y="856" on="0"/>
        <pt x="382" y="647" on="0"/>
        <pt x="382" y="554" on="1"/>
        <pt x="382" y="414" on="0"/>
        <pt x="483" y="283" on="0"/>
        <pt x="589" y="283" on="1"/>
        <pt x="731" y="283" on="0"/>
        <pt x="1012" y="526" on="0"/>
        <pt x="1156" y="779" on="1"/>
        <pt x="1164" y="792" on="1"/>
        <pt x="1296" y="792" on="1"/>
        <pt x="1231" y="609" on="1"/>
        <pt x="1174" y="446" on="0"/>
        <pt x="1056" y="172" on="0"/>
        <pt x="994" y="57" on="1"/>
        <pt x="1082" y="66" on="0"/>
        <pt x="1225" y="90" on="0"/>
        <pt x="1347" y="129" on="0"/>
        <pt x="1451" y="189" on="0"/>
        <pt x="1548" y="282" on="0"/>
        <pt x="1641" y="412" on="0"/>
        <pt x="1692" y="501" on="1"/>
        <pt x="1743" y="593" on="1"/>
        <pt x="1770" y="574" on="1"/>
        <pt x="1718" y="482" on="1"/>
        <pt x="1668" y="393" on="0"/>
        <pt x="1574" y="261" on="0"/>
        <pt x="1475" y="164" on="0"/>
        <pt x="1366" y="98" on="0"/>
        <pt x="1233" y="54" on="0"/>
        <pt x="1072" y="26" on="0"/>
        <pt x="971" y="16" on="1"/>
        <pt x="818" y="-259" on="0"/>
        <pt x="473" y="-526" on="0"/>
        <pt x="270" y="-526" on="1"/>
        <pt x="133" y="-526" on="0"/>
        <pt x="0" y="-414" on="0"/>
        <pt x="0" y="-320" on="1"/>
        <pt x="0" y="-253" on="0"/>
        <pt x="68" y="-152" on="0"/>
        <pt x="188" y="-78" on="0"/>
        <pt x="349" y="-27" on="0"/>
        <pt x="534" y="8" on="0"/>
        <pt x="735" y="32" on="0"/>
        <pt x="834" y="42" on="1"/>
        <pt x="876" y="129" on="0"/>
        <pt x="960" y="334" on="0"/>
        <pt x="1008" y="458" on="1"/>
        <pt x="1034" y="526" on="1"/>
        <pt x="994" y="473" on="0"/>
        <pt x="895" y="368" on="0"/>
        <pt x="778" y="285" on="0"/>
        <pt x="644" y="234" on="0"/>
        <pt x="569" y="234" on="1"/>
        <pt x="493" y="234" on="0"/>
        <pt x="368" y="291" on="0"/>
        <pt x="280" y="398" on="0"/>
        <pt x="231" y="549" on="0"/>
        <pt x="231" y="642" on="1"/>
        <pt x="231" y="709" on="0"/>
        <pt x="257" y="861" on="0"/>
        <pt x="283" y="940" on="1"/>
        <pt x="334" y="1089" on="0"/>
        <pt x="511" y="1335" on="0"/>
        <pt x="739" y="1512" on="0"/>
        <pt x="1005" y="1609" on="0"/>
        <pt x="1145" y="1609" on="1"/>
        <pt x="1227" y="1609" on="0"/>
        <pt x="1342" y="1574" on="0"/>
        <pt x="1414" y="1513" on="0"/>
        <pt x="1447" y="1432" on="0"/>
        <pt x="1447" y="1386" on="1"/>
        <pt x="1447" y="1349" on="0"/>
        <pt x="1428" y="1272" on="0"/>
        <pt x="1395" y="1195" on="0"/>
        <pt x="1347" y="1121" on="0"/>
        <pt x="1319" y="1088" on="1"/>
      </contour>
      <contour>
        <pt x="274" y="-477" on="1"/>
        <pt x="356" y="-477" on="0"/>
        <pt x="498" y="-427" on="0"/>
        <pt x="627" y="-313" on="0"/>
        <pt x="751" y="-130" on="0"/>
        <pt x="816" y="2" on="1"/>
        <pt x="657" y="-12" on="0"/>
        <pt x="378" y="-51" on="0"/>
        <pt x="170" y="-121" on="0"/>
        <pt x="50" y="-231" on="0"/>
        <pt x="50" y="-315" on="1"/>
        <pt x="50" y="-394" on="0"/>
        <pt x="162" y="-477" on="0"/>
      </contour>
      <contour>
        <pt x="1230" y="1976" on="1"/>
        <pt x="1241" y="1993" on="0"/>
        <pt x="1266" y="2004" on="0"/>
        <pt x="1279" y="2004" on="1"/>
        <pt x="1297" y="2004" on="0"/>
        <pt x="1316" y="1988" on="0"/>
        <pt x="1320" y="1974" on="1"/>
        <pt x="1330" y="1939" on="0"/>
        <pt x="1355" y="1867" on="0"/>
        <pt x="1400" y="1793" on="0"/>
        <pt x="1473" y="1720" on="0"/>
        <pt x="1530" y="1684" on="1"/>
        <pt x="1529" y="1683" on="0"/>
        <pt x="1523" y="1675" on="0"/>
        <pt x="1518" y="1670" on="1"/>
        <pt x="1513" y="1664" on="0"/>
        <pt x="1506" y="1657" on="1"/>
        <pt x="1458" y="1680" on="0"/>
        <pt x="1414" y="1713" on="1"/>
        <pt x="1376" y="1741" on="0"/>
        <pt x="1296" y="1825" on="0"/>
        <pt x="1270" y="1882" on="1"/>
        <pt x="1270" y="1882" on="0"/>
        <pt x="1246" y="1855" on="0"/>
        <pt x="1202" y="1813" on="0"/>
        <pt x="1142" y="1762" on="0"/>
        <pt x="1072" y="1712" on="0"/>
        <pt x="994" y="1670" on="0"/>
        <pt x="955" y="1659" on="1"/>
        <pt x="954" y="1659" on="0"/>
        <pt x="945" y="1666" on="0"/>
        <pt x="940" y="1671" on="1"/>
        <pt x="934" y="1676" on="0"/>
        <pt x="925" y="1684" on="1"/>
        <pt x="992" y="1719" on="0"/>
        <pt x="1083" y="1783" on="0"/>
        <pt x="1149" y="1852" on="0"/>
        <pt x="1201" y="1929" on="0"/>
      </contour>
    </TTGlyph>
    <TTGlyph name="Gcommaaccent" xMin="0" yMin="-527" xMax="1770" yMax="1609">
      <contour>
        <pt x="1285" y="1099" on="1"/>
        <pt x="1302" y="1116" on="0"/>
        <pt x="1337" y="1181" on="0"/>
        <pt x="1366" y="1262" on="0"/>
        <pt x="1384" y="1351" on="0"/>
        <pt x="1384" y="1392" on="1"/>
        <pt x="1384" y="1428" on="0"/>
        <pt x="1364" y="1493" on="0"/>
        <pt x="1316" y="1542" on="0"/>
        <pt x="1237" y="1571" on="0"/>
        <pt x="1179" y="1571" on="1"/>
        <pt x="1071" y="1571" on="0"/>
        <pt x="861" y="1484" on="0"/>
        <pt x="674" y="1325" on="0"/>
        <pt x="518" y="1099" on="0"/>
        <pt x="465" y="960" on="1"/>
        <pt x="425" y="856" on="0"/>
        <pt x="382" y="647" on="0"/>
        <pt x="382" y="554" on="1"/>
        <pt x="382" y="414" on="0"/>
        <pt x="483" y="283" on="0"/>
        <pt x="589" y="283" on="1"/>
        <pt x="731" y="283" on="0"/>
        <pt x="1012" y="526" on="0"/>
        <pt x="1156" y="779" on="1"/>
        <pt x="1164" y="792" on="1"/>
        <pt x="1296" y="792" on="1"/>
        <pt x="1231" y="609" on="1"/>
        <pt x="1174" y="446" on="0"/>
        <pt x="1056" y="172" on="0"/>
        <pt x="994" y="57" on="1"/>
        <pt x="1082" y="66" on="0"/>
        <pt x="1225" y="90" on="0"/>
        <pt x="1347" y="129" on="0"/>
        <pt x="1451" y="189" on="0"/>
        <pt x="1548" y="282" on="0"/>
        <pt x="1641" y="412" on="0"/>
        <pt x="1692" y="501" on="1"/>
        <pt x="1743" y="593" on="1"/>
        <pt x="1770" y="574" on="1"/>
        <pt x="1718" y="482" on="1"/>
        <pt x="1668" y="393" on="0"/>
        <pt x="1574" y="261" on="0"/>
        <pt x="1475" y="164" on="0"/>
        <pt x="1366" y="98" on="0"/>
        <pt x="1233" y="54" on="0"/>
        <pt x="1072" y="26" on="0"/>
        <pt x="971" y="16" on="1"/>
        <pt x="818" y="-259" on="0"/>
        <pt x="473" y="-526" on="0"/>
        <pt x="270" y="-526" on="1"/>
        <pt x="133" y="-526" on="0"/>
        <pt x="0" y="-414" on="0"/>
        <pt x="0" y="-320" on="1"/>
        <pt x="0" y="-253" on="0"/>
        <pt x="68" y="-152" on="0"/>
        <pt x="188" y="-78" on="0"/>
        <pt x="349" y="-27" on="0"/>
        <pt x="534" y="8" on="0"/>
        <pt x="735" y="32" on="0"/>
        <pt x="834" y="42" on="1"/>
        <pt x="876" y="129" on="0"/>
        <pt x="960" y="334" on="0"/>
        <pt x="1008" y="458" on="1"/>
        <pt x="1034" y="526" on="1"/>
        <pt x="994" y="473" on="0"/>
        <pt x="895" y="368" on="0"/>
        <pt x="778" y="285" on="0"/>
        <pt x="644" y="234" on="0"/>
        <pt x="569" y="234" on="1"/>
        <pt x="493" y="234" on="0"/>
        <pt x="368" y="291" on="0"/>
        <pt x="280" y="398" on="0"/>
        <pt x="231" y="549" on="0"/>
        <pt x="231" y="642" on="1"/>
        <pt x="231" y="709" on="0"/>
        <pt x="257" y="861" on="0"/>
        <pt x="283" y="940" on="1"/>
        <pt x="334" y="1089" on="0"/>
        <pt x="511" y="1335" on="0"/>
        <pt x="739" y="1512" on="0"/>
        <pt x="1005" y="1609" on="0"/>
        <pt x="1145" y="1609" on="1"/>
        <pt x="1227" y="1609" on="0"/>
        <pt x="1342" y="1574" on="0"/>
        <pt x="1414" y="1513" on="0"/>
        <pt x="1447" y="1432" on="0"/>
        <pt x="1447" y="1386" on="1"/>
        <pt x="1447" y="1349" on="0"/>
        <pt x="1428" y="1272" on="0"/>
        <pt x="1395" y="1195" on="0"/>
        <pt x="1347" y="1121" on="0"/>
        <pt x="1319" y="1088" on="1"/>
      </contour>
      <contour>
        <pt x="274" y="-477" on="1"/>
        <pt x="356" y="-477" on="0"/>
        <pt x="498" y="-427" on="0"/>
        <pt x="627" y="-313" on="0"/>
        <pt x="751" y="-130" on="0"/>
        <pt x="816" y="2" on="1"/>
        <pt x="657" y="-12" on="0"/>
        <pt x="378" y="-51" on="0"/>
        <pt x="170" y="-121" on="0"/>
        <pt x="50" y="-231" on="0"/>
        <pt x="50" y="-315" on="1"/>
        <pt x="50" y="-394" on="0"/>
        <pt x="162" y="-477" on="0"/>
      </contour>
      <contour>
        <pt x="938" y="-492" on="1"/>
        <pt x="970" y="-490" on="0"/>
        <pt x="1031" y="-464" on="0"/>
        <pt x="1078" y="-426" on="0"/>
        <pt x="1106" y="-382" on="0"/>
        <pt x="1106" y="-362" on="1"/>
        <pt x="1106" y="-356" on="0"/>
        <pt x="1104" y="-343" on="0"/>
        <pt x="1099" y="-338" on="1"/>
        <pt x="1082" y="-338" on="0"/>
        <pt x="1050" y="-325" on="0"/>
        <pt x="1025" y="-301" on="0"/>
        <pt x="1010" y="-269" on="0"/>
        <pt x="1010" y="-249" on="1"/>
        <pt x="1010" y="-232" on="0"/>
        <pt x="1022" y="-198" on="0"/>
        <pt x="1046" y="-170" on="0"/>
        <pt x="1080" y="-153" on="0"/>
        <pt x="1102" y="-153" on="1"/>
        <pt x="1119" y="-153" on="0"/>
        <pt x="1154" y="-165" on="0"/>
        <pt x="1183" y="-194" on="0"/>
        <pt x="1201" y="-241" on="0"/>
        <pt x="1201" y="-276" on="1"/>
        <pt x="1201" y="-333" on="0"/>
        <pt x="1154" y="-426" on="0"/>
        <pt x="1076" y="-491" on="0"/>
        <pt x="977" y="-527" on="0"/>
        <pt x="926" y="-527" on="1"/>
      </contour>
    </TTGlyph>
</ttFont>
